<svg width="41" height="41" viewBox="0 0 41 41" fill="none" xmlns="http://www.w3.org/2000/svg">
  <path d="M31.875 22.222C34.9187 17.5919 32.4125 12.8945 28.2737 11.9389C24.1349 10.9833 20.4462 13.3252 20.4462 13.3252H20.3589C20.3589 13.3252 16.6769 10.9833 12.5381 11.9389C8.39928 12.8945 5.88642 17.6458 8.93007 22.2759C11.9737 26.906 14.3388 28.1308 14.3388 28.1308H12.4373L12.2694 31.4957H9.74978L9.60868 34.8606H31.1964L31.0553 31.4957H28.5626L28.3947 28.1308H26.4663C26.4663 28.1308 28.8314 26.8521 31.875 22.222Z" fill="#6D645C"/>
  <path d="M28.3145 28.1306V31.5359H25.3313V28.1306" fill="#54463A"/>
  <path d="M15.784 28.1101V31.5154H12.606V28.1101" fill="white"/>
  <path d="M31.1027 31.4553H27.8911V34.8606H31.1027V31.4553Z" fill="#54463A"/>
  <path d="M9.75 31.4752H12.9616V34.8805H9.75" fill="white"/>
  <path d="M27.092 11.7098C26.5536 11.7011 26.0183 11.7924 25.5131 11.979H24.5321L20.6419 13.5807L20.3933 13.9912L18.8076 15.3372C18.8076 15.3372 26.5478 11.3868 29.457 13.648C30.0177 14.1096 30.4641 14.6948 30.7613 15.358C31.0586 16.0211 31.1986 16.7442 31.1704 17.4705C31.1704 20.6403 28.0864 24.0792 26.064 25.9972C25.0801 26.8458 23.8513 27.3574 22.5568 27.4575L24.5724 27.8883L24.6866 28.1036H27.1659C27.1659 28.1036 33.5556 22.6794 33.3607 18.1772C33.1659 13.6749 30.0953 11.4608 27.092 11.7098Z" fill="#54463A"/>
  <path d="M14.8567 26.0041C12.841 24.0861 9.75036 20.6202 9.75036 17.4774C9.72374 16.4016 10.0505 15.3468 10.6805 14.475C11.3105 13.6033 12.2088 12.9629 13.2375 12.6521C14.2345 12.4475 15.2587 12.4111 16.2677 12.5445L15.3808 11.8715C15.3808 11.8715 13.5936 11.5013 13.3651 11.5013C13.2581 11.5312 13.1623 11.5921 13.0896 11.6763C10.3416 11.8513 7.7347 14.0721 7.58689 18.2042C7.39204 22.7065 13.7817 28.1307 13.7817 28.1307H16.261L16.3752 27.9153L18.3908 27.4846C17.0845 27.3844 15.8452 26.8653 14.8567 26.0041Z" fill="white"/>
  <path d="M31.2501 30.8225H29.2345V28.1306C29.2345 27.9521 29.1637 27.7809 29.0377 27.6547C28.9117 27.5285 28.7408 27.4576 28.5626 27.4576H28.4685C30.5312 25.654 33.9377 22.0738 33.9377 18.0359C33.9587 16.849 33.6871 15.6752 33.1468 14.6187C32.6065 13.5621 31.8142 12.6555 30.8403 11.9791C28.4954 10.4649 25.2434 10.5793 21.1718 12.2954V9.28714H23.1875C23.3657 9.28714 23.5366 9.21624 23.6626 9.09003C23.7886 8.96382 23.8594 8.79265 23.8594 8.61416C23.8594 8.43567 23.7886 8.2645 23.6626 8.13829C23.5366 8.01208 23.3657 7.94118 23.1875 7.94118H21.1718V6.59522C21.1718 6.41674 21.101 6.24556 20.975 6.11935C20.849 5.99314 20.6781 5.92224 20.4999 5.92224C20.3217 5.92224 20.1508 5.99314 20.0248 6.11935C19.8988 6.24556 19.828 6.41674 19.828 6.59522V7.94118H17.8124C17.6342 7.94118 17.4633 8.01208 17.3373 8.13829C17.2113 8.2645 17.1405 8.43567 17.1405 8.61416C17.1405 8.79265 17.2113 8.96382 17.3373 9.09003C17.4633 9.21624 17.6342 9.28714 17.8124 9.28714H19.828V12.2954C15.7564 10.5793 12.5045 10.4649 10.1596 11.9791C9.18564 12.6555 8.39339 13.5621 7.85308 14.6187C7.31278 15.6752 7.04111 16.849 7.06217 18.0359C7.06217 22.0738 10.4686 25.654 12.5313 27.4576H12.4373C12.2591 27.4576 12.0882 27.5285 11.9622 27.6547C11.8362 27.7809 11.7654 27.9521 11.7654 28.1306V30.8225H9.74972C9.57153 30.8225 9.40063 30.8934 9.27463 31.0196C9.14862 31.1458 9.07784 31.317 9.07784 31.4955V34.8604C9.07784 35.0389 9.14862 35.21 9.27463 35.3362C9.40063 35.4624 9.57153 35.5334 9.74972 35.5334H31.2501C31.4283 35.5334 31.5992 35.4624 31.7252 35.3362C31.8512 35.21 31.922 35.0389 31.922 34.8604V31.4955C31.922 31.317 31.8512 31.1458 31.7252 31.0196C31.5992 30.8934 31.4283 30.8225 31.2501 30.8225ZM8.40595 18.0359C8.38843 17.0736 8.60425 16.1214 9.03491 15.2611C9.46556 14.4007 10.0982 13.6578 10.8785 13.0962C12.9681 11.7502 16.1931 12.0531 20.211 13.9307C20.3004 13.9727 20.3979 13.9945 20.4966 13.9945C20.5953 13.9945 20.6928 13.9727 20.7821 13.9307C24.8134 12.0531 28.0318 11.7637 30.1146 13.0962C30.8962 13.6571 31.5301 14.3996 31.962 15.26C32.3938 16.1205 32.6107 17.073 32.5939 18.0359C32.5939 22.5718 27.2994 26.7308 26.3252 27.4576H14.6747C13.7004 26.7375 8.40595 22.5785 8.40595 18.0359ZM13.1092 28.8036H27.8907V30.8225H13.1092V28.8036ZM30.5782 34.1874H10.4216V32.1685H30.5782V34.1874Z" fill="#42210B"/>
</svg>


