<svg width="74" height="72" viewBox="0 0 74 72" fill="none" xmlns="http://www.w3.org/2000/svg">
<path d="M21.2126 21.6493C31.3303 14.421 36.9992 9.0625 36.9992 9.0625C36.9992 9.0625 44.5015 15.7307 52.7858 21.6493C52.7858 21.6493 57.7192 25.1737 57.7192 33.2297C57.7192 41.2856 52.7858 43.2996 52.7858 43.2996V44.8101V52.3625V53.3695C52.7858 53.3695 51.7992 57.3975 36.9992 57.3975C22.1993 57.3975 21.2126 53.3695 21.2126 53.3695V52.3625V44.8101V43.2996C21.2126 43.2996 16.2793 41.2856 16.2793 33.2297C16.2793 25.1737 21.2126 21.6493 21.2126 21.6493Z" fill="#6D645C"/>
<path d="M50.8131 52.3647C50.8131 54.0332 44.6287 55.3857 36.9998 55.3857C29.3709 55.3857 23.1865 54.0332 23.1865 52.3647C23.1865 50.6963 29.3709 49.3438 36.9998 49.3438C44.6287 49.3438 50.8131 50.6963 50.8131 52.3647Z" fill="#54463A"/>
<path d="M47.1188 23.8425C54.2025 32.035 47.1188 41.2515 47.1188 41.2515L50.6606 43.2996L54.2025 41.2515L56.7324 34.0831L54.2025 25.3786L36.9991 13.0898C36.9991 13.0898 40.035 15.65 47.1188 23.8425Z" fill="#54463A"/>
<path d="M23.1865 42.2949H28.1198V48.3369H23.1865V42.2949Z" fill="white"/>
<path d="M45.8799 42.2949H50.8132V48.3369H45.8799V42.2949Z" fill="#54463A"/>
<path d="M26.8802 23.8425C19.7965 32.035 26.8802 41.2515 26.8802 41.2515L23.3384 43.2996L19.7965 41.2515L17.2666 34.0831L19.7965 25.3786L36.9999 13.0898C36.9999 13.0898 33.964 15.65 26.8802 23.8425Z" fill="white"/>
<path fill-rule="evenodd" clip-rule="evenodd" d="M21.2126 43.2996C21.2126 43.2996 20.9964 43.2113 20.6544 42.9978C19.3631 42.1914 16.2793 39.599 16.2793 33.2297C16.2793 25.1737 21.2126 21.6493 21.2126 21.6493C31.3303 14.421 36.9992 9.0625 36.9992 9.0625C36.9992 9.0625 44.5015 15.7307 52.7858 21.6493C52.7858 21.6493 57.7192 25.1737 57.7192 33.2297C57.7192 39.599 54.6353 42.1914 53.344 42.9978C53.0021 43.2113 52.7858 43.2996 52.7858 43.2996V53.3695C52.7858 53.3695 51.7992 57.3975 36.9992 57.3975C22.1993 57.3975 21.2126 53.3695 21.2126 53.3695V43.2996ZM24.1726 52.2897C24.324 52.391 24.5334 52.5142 24.8163 52.6501C26.3525 53.3879 29.8037 54.3765 36.9992 54.3765C44.1948 54.3765 47.6459 53.3879 49.1822 52.6501C49.4651 52.5142 49.6744 52.391 49.8259 52.2897V51.7218C49.8214 51.7196 49.8169 51.7174 49.8123 51.7153C47.9959 50.8428 44.297 49.845 36.9992 49.845C29.7015 49.845 26.0026 50.8428 24.1861 51.7153C24.1816 51.7174 24.1771 51.7196 24.1726 51.7218V52.2897ZM24.1726 48.4615C26.6877 47.5487 30.6641 46.8241 36.9992 46.8241C43.3343 46.8241 47.3108 47.5487 49.8259 48.4615V44.1693C49.8214 44.1671 49.8169 44.165 49.8123 44.1628C47.9959 43.2904 44.297 42.2926 36.9992 42.2926C29.7015 42.2926 26.0026 43.2904 24.1861 44.1628C24.1816 44.165 24.1771 44.1671 24.1726 44.1693V48.4615ZM23.3673 41.2282C25.8108 40.1711 29.9411 39.2716 36.9992 39.2716C44.0573 39.2716 48.1877 40.1711 50.6312 41.2282C51.7992 40.7828 52.2983 40.1847 52.9786 39.3516C53.757 38.3983 54.7592 36.5697 54.7592 33.2297C54.7592 29.8718 53.7413 27.5511 52.7896 26.0942C52.307 25.3554 51.8329 24.8269 51.4994 24.4979C51.3332 24.3339 51.2038 24.2214 51.1288 24.159C51.0972 24.1327 51.0754 24.1155 51.0649 24.1073C46.8547 21.0983 42.8592 17.9117 39.9227 15.4838C38.7886 14.5462 37.8093 13.719 37.0327 13.0554C36.4182 13.5919 35.6644 14.2391 34.7762 14.9819C32.0475 17.2641 28.0493 20.4515 22.9336 24.1073C22.923 24.1155 22.9013 24.1327 22.8697 24.159C22.7946 24.2214 22.6653 24.3339 22.499 24.4979C22.1655 24.8269 21.6914 25.3554 21.2088 26.0942C20.2571 27.5511 19.2393 29.8718 19.2393 33.2297C19.2393 36.5697 20.2415 38.3983 21.0199 39.3516C21.7001 40.1847 22.1993 40.7828 23.3673 41.2282Z" fill="#42210B"/>
<path d="M30.0937 56.3906C27.1337 67.971 17.2671 50.3487 1.48047 62.4326L5.92045 70.4885C16.7738 60.9221 30.0937 74.5165 37.0004 62.4326C43.907 74.5165 57.227 60.9221 68.0803 70.4885L72.5202 62.4326C56.7336 50.3487 46.867 67.971 43.907 56.3906H30.0937Z" fill="#6D645C"/>
<path d="M5.82331 70.4882L1.48047 62.4323L8.10521 58.4043L12.3338 66.9637L5.82331 70.4882Z" fill="white"/>
<path d="M68.1767 70.4882L72.5195 62.4323L65.8948 58.4043L61.6662 66.9637L68.1767 70.4882Z" fill="#54463A"/>
<path fill-rule="evenodd" clip-rule="evenodd" d="M28.6613 56.0101C28.8313 55.345 29.4199 54.8809 30.0934 54.8809H43.9067C44.5801 54.8809 45.1687 55.345 45.3387 56.0101C45.6778 57.3369 46.0736 58.0633 46.4294 58.4594C46.7432 58.8088 47.0848 58.9698 47.5563 59.0189C48.0901 59.0744 48.7868 58.9831 49.74 58.7404C50.3974 58.573 51.0843 58.3601 51.8563 58.1208C52.2125 58.0104 52.5868 57.8944 52.9847 57.7747C55.4315 57.0383 58.4453 56.2654 61.9088 56.513C65.4015 56.7627 69.2476 58.0404 73.4079 61.2249C74.002 61.6796 74.1739 62.5133 73.8098 63.1738L69.3698 71.2298C69.1521 71.6248 68.7721 71.8992 68.3347 71.9772C67.8973 72.0552 67.4486 71.9286 67.1125 71.6324C62.4223 67.4983 57.2781 68.1453 51.8111 68.833C51.621 68.8569 51.4304 68.8808 51.2395 68.9047C48.4962 69.2469 45.5886 69.56 42.9045 68.9149C40.6907 68.3829 38.6905 67.2197 37 65.0949C35.3095 67.2197 33.3093 68.3829 31.0955 68.9149C28.4114 69.56 25.5038 69.2469 22.7605 68.9047C22.5696 68.8808 22.3791 68.8569 22.1889 68.833C16.7219 68.1453 11.5777 67.4983 6.88745 71.6324C6.55137 71.9286 6.10273 72.0552 5.6653 71.9772C5.22787 71.8992 4.84788 71.6248 4.63017 71.2298L0.190184 63.1738C-0.173878 62.5133 -0.00195631 61.6796 0.592114 61.2249C4.75244 58.0404 8.59851 56.7627 12.0912 56.513C15.5547 56.2654 18.5685 57.0383 21.0153 57.7747C21.4132 57.8944 21.7875 58.0104 22.1437 58.1208C22.9157 58.3601 23.6026 58.573 24.26 58.7404C25.2132 58.9831 25.9099 59.0744 26.4437 59.0189C26.9152 58.9698 27.2568 58.8088 27.5706 58.4594C27.9265 58.0633 28.3222 57.3369 28.6613 56.0101ZM31.1893 57.9018C30.8252 58.9537 30.3591 59.8256 29.7525 60.5009C28.8985 61.4516 27.8603 61.9081 26.7439 62.0243C25.6898 62.134 24.5905 61.9381 23.5434 61.6715C22.8113 61.485 22.0092 61.2366 21.199 60.9856C20.8586 60.8801 20.5168 60.7743 20.1781 60.6723C17.815 59.9612 15.2171 59.318 12.2981 59.5266C9.68312 59.7136 6.72628 60.592 3.42147 62.8747L6.36928 68.2233C11.699 64.4485 17.4751 65.1861 22.3163 65.8042C22.5871 65.8388 22.8549 65.873 23.1196 65.906C25.9263 66.2561 28.322 66.4779 30.417 65.9744C32.395 65.499 34.1908 64.3506 35.7216 61.6722C35.9868 61.2082 36.4736 60.9228 37 60.9228C37.5264 60.9228 38.0132 61.2082 38.2784 61.6722C39.8092 64.3506 41.605 65.499 43.583 65.9744C45.678 66.4779 48.0737 66.2561 50.8804 65.906C51.1451 65.873 51.4129 65.8388 51.6837 65.8042C56.5249 65.1861 62.301 64.4485 67.6307 68.2233L70.5785 62.8747C67.2737 60.592 64.3169 59.7136 61.7019 59.5266C58.7829 59.318 56.185 59.9612 53.8219 60.6723C53.4832 60.7743 53.1414 60.8801 52.801 60.9856C51.9908 61.2366 51.1887 61.485 50.4566 61.6715C49.4095 61.9381 48.3102 62.134 47.2561 62.0243C46.1397 61.9081 45.1015 61.4516 44.2476 60.5009C43.6409 59.8256 43.1748 58.9537 42.8107 57.9018H31.1893Z" fill="#42210B"/>
<path d="M42.92 6.04196C42.92 9.37884 40.2696 12.0839 37.0001 12.0839C33.7305 12.0839 31.0801 9.37884 31.0801 6.04196C31.0801 2.70508 33.7305 0 37.0001 0C40.2696 0 42.92 2.70508 42.92 6.04196Z" fill="#6D645C"/>
<path d="M33.0527 3.01953H36.9994C35.0261 4.53002 35.0261 7.551 36.9994 9.06149H33.0527V3.01953Z" fill="white"/>
<path fill-rule="evenodd" clip-rule="evenodd" d="M37.0001 9.06293C38.6348 9.06293 39.9601 7.7104 39.9601 6.04196C39.9601 4.37352 38.6348 3.02098 37.0001 3.02098C35.3653 3.02098 34.0401 4.37352 34.0401 6.04196C34.0401 7.7104 35.3653 9.06293 37.0001 9.06293ZM37.0001 12.0839C40.2696 12.0839 42.92 9.37884 42.92 6.04196C42.92 2.70508 40.2696 0 37.0001 0C33.7305 0 31.0801 2.70508 31.0801 6.04196C31.0801 9.37884 33.7305 12.0839 37.0001 12.0839Z" fill="#42210B"/>
<path d="M35.0273 21.1465H38.974V35.2444H35.0273V21.1465Z" fill="#42210B"/>
<path d="M43.9062 26.1816L43.9062 30.2096L30.093 30.2096L30.093 26.1816L43.9062 26.1816Z" fill="#42210B"/>
</svg>
