<svg width="55" height="71" viewBox="0 0 55 71" fill="none" xmlns="http://www.w3.org/2000/svg">
<path d="M9.5 22.5C9.5 22.5 14.5 21 27.5 21C40.5 21 45.5 22.5 45.5 22.5V48.5H9.5V22.5Z" fill="#6D645C"/>
<path d="M9.5 48.5H45.5L50.5 53.5H4.5L9.5 48.5Z" fill="#6D645C"/>
<path d="M9.5 22.5C9.5 22.5 14.5 21 27.5 21C40.5 21 45.5 22.5 45.5 22.5L52.5 17.5C52.5 17.5 45.7 14 27.5 14C9.3 14 2.5 17.5 2.5 17.5L9.5 22.5Z" fill="#6D645C"/>
<path d="M2.5 5.5C2.5 5.5 7 3.5 12.5 3V8L21 7V2C21 2 23.5 1.5 27.5 1.5C31.5 1.5 34 2 34 2V7L42.5 8V3C49 4 52.5 5.5 52.5 5.5V17.5C52.5 17.5 45.7 14 27.5 14C9.3 14 2.5 17.5 2.5 17.5V5.5Z" fill="#6D645C"/>
<path d="M50.5 53.5H4.5V61.5H50.5V53.5Z" fill="#6D645C"/>
<path d="M53.5 69.5V61.5H50.5H4.5H1.5V69.5H53.5Z" fill="#6D645C"/>
<rect x="3.5" y="4.5" width="4" height="11" fill="white"/>
<rect x="5.5" y="53.5" width="8" height="8" fill="white"/>
<rect x="41.5" y="53.5" width="8" height="8" fill="#54463A"/>
<rect x="2.5" y="61.5" width="8" height="8" fill="white"/>
<rect x="44.5" y="61.5" width="8" height="8" fill="#54463A"/>
<path d="M3.5 16.5H8.5L15.5 21.5L10.5002 21.4996L3.5 16.5Z" fill="white"/>
<path d="M36.5 48.5H44.5L49.5 53.5H41.5L36.5 48.5Z" fill="#54463A"/>
<path d="M51.5 16.5H46.5L39.5 21.5H44.5L51.5 16.5Z" fill="#54463A"/>
<path d="M18.5 48.5H10.5L5.5 53.5H13.5L18.5 48.5Z" fill="white"/>
<rect x="47.5" y="4.5" width="4" height="11" fill="#54463A"/>
<path d="M32.5 22.5H45.5V47.5H40.5C40.5 47.5 40.5 36 40.5 30C40.5 24 32.5 22.5 32.5 22.5Z" fill="#54463A"/>
<path d="M22.5 47.5L9.5 47.5L9.5 22.5L14.5 22.5C14.5 22.5 14.5 33.5 14.5 40C14.5 46.5 22.5 47.5 22.5 47.5Z" fill="white"/>
<path fill-rule="evenodd" clip-rule="evenodd" d="M22.5 3.28974V7C22.5 7.76063 21.9307 8.40085 21.1753 8.48973L12.6753 9.48973C12.2498 9.53977 11.8233 9.40556 11.5032 9.12091C11.1831 8.83627 11 8.42835 11 8V4.69048C9.03167 4.98309 7.25672 5.44349 5.8821 5.8701C5.11053 6.10955 4.47061 6.33662 4 6.51404V15.3163C4.94691 15.0068 6.21903 14.6446 7.85253 14.2851C11.945 13.3842 18.3041 12.5 27.5 12.5C36.6959 12.5 43.055 13.3842 47.1475 14.2851C48.781 14.6446 50.0531 15.0068 51 15.3163V6.53934C50.6199 6.40738 50.1225 6.24429 49.5114 6.0632C48.1929 5.67255 46.3448 5.19824 44 4.77217V8C44 8.42835 43.8169 8.83627 43.4968 9.12091C43.1767 9.40556 42.7502 9.53977 42.3247 9.48973L33.8247 8.48973C33.0693 8.40085 32.5 7.76063 32.5 7V3.28974C32.371 3.27368 32.2324 3.25727 32.0844 3.24083C31.0073 3.12116 29.438 3 27.5 3C25.562 3 23.9927 3.12116 22.9156 3.24083C22.7676 3.25727 22.629 3.27368 22.5 3.28974ZM34 2L34.2942 0.529129C34.9953 0.669356 35.5 1.28498 35.5 2V5.66613L41 6.31318V3C41 2.56235 41.1911 2.14652 41.5233 1.86155C41.8555 1.57658 42.2955 1.45089 42.7281 1.51744C46.0495 2.02843 48.6157 2.6689 50.3636 3.1868C51.2376 3.44576 51.9071 3.67409 52.3642 3.84031C52.5927 3.92342 52.7682 3.99102 52.8897 4.03915C52.9504 4.06322 52.9976 4.08243 53.0312 4.09628L53.0713 4.11298L53.0837 4.1182L53.0879 4.12001L53.0896 4.12072C53.0899 4.12085 53.0909 4.12128 52.5 5.5L53.0909 4.12128C53.6424 4.35765 54 4.89996 54 5.5V17.5C54 17.9844 53.7661 18.439 53.3719 18.7206L47 23.2719V47.8787L51.5607 52.4393C51.842 52.7206 52 53.1022 52 53.5V60H53.5C54.3284 60 55 60.6716 55 61.5V69.5C55 70.3284 54.3284 71 53.5 71H1.5C0.671573 71 0 70.3284 0 69.5V61.5C0 60.6716 0.671573 60 1.5 60H3V53.5C3 53.1022 3.15804 52.7206 3.43934 52.4393L8 47.8787V23.2719L1.62814 18.7206C1.23395 18.439 1 17.9844 1 17.5V5.5C1 4.90722 1.3491 4.37003 1.89079 4.12928L2.5 5.5C1.89079 4.12928 1.89052 4.12941 1.89079 4.12928L1.89355 4.12806L1.89797 4.12611L1.91172 4.12007L1.95863 4.09972C1.99843 4.08258 2.05514 4.05844 2.1279 4.02817C2.27339 3.96764 2.48325 3.88249 2.75059 3.77967C3.28495 3.57415 4.05083 3.29727 4.9929 3.0049C6.87142 2.42192 9.4787 1.76848 12.3642 1.50616C12.7839 1.468 13.2003 1.60817 13.5115 1.89237C13.8227 2.17656 14 2.57856 14 3V6.31318L19.5 5.66613V2C19.5 1.28498 20.0047 0.669356 20.7058 0.529129L21 2C20.7058 0.529129 20.7056 0.529177 20.7058 0.529129L20.7081 0.528685L20.7112 0.528061L20.7202 0.526287L20.7492 0.520714C20.7734 0.516129 20.8071 0.509845 20.8502 0.502109C20.9364 0.486638 21.0601 0.465353 21.2192 0.440231C21.5374 0.389992 21.9977 0.324362 22.5844 0.259174C23.7573 0.128844 25.438 0 27.5 0C29.562 0 31.2427 0.128844 32.4156 0.259174C33.0023 0.324362 33.4626 0.389992 33.7808 0.440231C33.9399 0.465353 34.0636 0.486638 34.1498 0.502109C34.1929 0.509845 34.2266 0.516129 34.2508 0.520714L34.2798 0.526287L34.2888 0.528061L34.2919 0.528685L34.2942 0.529129C34.2944 0.529177 34.2942 0.529129 34 2ZM11 23.6911V47H44V23.6911C43.3657 23.5639 42.4373 23.4013 41.181 23.2374C38.3775 22.8717 33.9428 22.5 27.5 22.5C21.0572 22.5 16.6225 22.8717 13.819 23.2374C12.5627 23.4013 11.6343 23.5639 11 23.6911ZM45.191 20.8774L49.3133 17.9329C48.5614 17.7096 47.6293 17.463 46.5025 17.2149C42.645 16.3658 36.5041 15.5 27.5 15.5C18.4959 15.5 12.355 16.3658 8.49747 17.2149C7.37072 17.463 6.43863 17.7096 5.68674 17.9329L9.809 20.8774C9.91892 20.8526 10.0415 20.8258 10.1771 20.7974C10.8885 20.6485 11.9576 20.4548 13.431 20.2626C16.3775 19.8783 20.9428 19.5 27.5 19.5C34.0572 19.5 38.6225 19.8783 41.569 20.2626C43.0424 20.4548 44.1115 20.6485 44.8229 20.7974C44.9585 20.8258 45.0811 20.8526 45.191 20.8774ZM3.18378 18.8351L3.18203 18.836L3.1801 18.837C3.17965 18.8372 3.18087 18.8366 3.18378 18.8351ZM51.8162 18.8351L51.818 18.836L51.8198 18.8369C51.8194 18.8367 51.8182 18.8361 51.8162 18.8351ZM44.8787 50H10.1213L8.12132 52H46.8787L44.8787 50ZM49 55H6V60H49V55ZM52 63H3V68H52V63Z" fill="#42210B"/>
</svg>
