<svg width="48" height="70" viewBox="0 0 48 70" fill="none" xmlns="http://www.w3.org/2000/svg">
<path d="M3.0312 68.478C2.06242 65.9849 1.53125 63.2757 1.53125 60.4432C1.53125 51.492 6.83599 43.7715 14.493 40.2147C12.0342 37.7194 10.5185 34.3035 10.5185 30.536C10.5185 24.3683 14.5805 19.1431 20.1921 17.3562C17.6333 15.8916 15.9108 13.1469 15.9108 10.0026C15.9108 5.31863 19.7334 1.52148 24.4487 1.52148C29.164 1.52148 32.9866 5.31863 32.9866 10.0026C32.9866 13.1469 31.2641 15.8916 28.7053 17.3562C34.3169 19.1431 38.3789 24.3683 38.3789 30.536C38.3789 34.4523 36.7411 37.9885 34.1088 40.5059C41.4398 44.1812 46.4674 51.729 46.4674 60.4432C46.4674 63.2757 45.9363 65.9849 44.9675 68.478H3.0312Z" fill="#6D645C"/>
<path d="M26.042 2.68768C28.3712 4.39293 29.5 7.63163 29.5 10.0658C29.5 12.5 28.5 15.5 27.4273 16.74L28.0334 17.7545C28.0334 17.7545 32.7377 14.4889 32.1124 9.5388C31.9322 8.09856 31.416 6.71812 30.6036 5.50409C29.7913 4.29006 28.7045 3.27493 27.4273 2.53711L26.042 2.68768Z" fill="#54463A"/>
<path d="M22.9785 2.68768C20.269 4.38798 19.5 7.5 19.5 10C19.5 12.5 19.7742 14.7887 21.3623 16.74L20.6552 17.7545C20.6552 17.7545 15.1668 14.4889 15.8964 9.5388C16.1066 8.09856 16.7089 6.71812 17.6566 5.50409C18.6044 4.29006 19.8722 3.27493 21.3623 2.53711L22.9785 2.68768Z" fill="white"/>
<path d="M27.5741 18.2612C29.5218 19.573 30.5839 21.0068 31.6517 22.974C32.7196 24.9413 33.2518 27.1089 33.2044 29.2979C33.3592 31.499 32.8744 33.6984 31.7976 35.6796C30.7208 37.6608 29.0892 39.3554 27.0635 40.5966L34.6662 41.5945C34.6662 41.5945 38.223 36.08 37.1808 28.4898C36.8805 26.2815 36.0201 24.1648 34.6662 22.3033C33.3123 20.4418 31.501 18.8852 29.3724 17.7539L27.5741 18.2612Z" fill="#54463A"/>
<path d="M21.4464 18.2612C19.4987 19.573 18.4366 21.0068 17.3688 22.974C16.3009 24.9413 15.7687 27.1089 15.8161 29.2979C15.6613 31.499 16.1461 33.6984 17.2229 35.6796C18.2997 37.6608 19.9313 39.3554 21.957 40.5966L14.8081 41.0872C14.8081 41.0872 10.7975 36.08 11.8397 28.4898C12.14 26.2815 13.0004 24.1648 14.3543 22.3033C15.7083 20.4418 17.5195 18.8852 19.6482 17.7539L21.4464 18.2612Z" fill="white"/>
<path d="M27.5752 40.5801C32.6816 42.1018 37.0996 45.0474 38.5945 47.4423C40.0895 49.8371 40.8346 52.4761 40.7683 55.1409C40.985 57.8205 40.3062 60.4981 38.7987 62.9099C37.2912 65.3218 35.0069 67.3848 32.1709 68.8958L44.9369 67.9714C44.9369 67.9714 47.7943 63.3974 46.3353 54.1572C45.9147 51.4687 44.7102 48.8919 42.8147 46.6257C40.9192 44.3595 38.3835 42.4646 35.4034 41.0873L27.5752 40.5801Z" fill="#54463A"/>
<path d="M21.957 40.5801C18.8932 41.5946 13.7868 42.1018 9.86462 47.4423C8.47644 49.8371 7.78453 52.4761 7.84611 55.1409C7.64489 57.8205 8.27523 60.4981 9.67506 62.9099C11.0749 65.3218 13.1959 67.3848 15.8294 68.8958L2.6768 67.9714C2.6768 67.9714 1.32194 63.3974 2.6768 54.1572C3.06728 51.4687 4.18576 48.8919 5.94586 46.6257C7.70596 44.3595 10.0606 42.4646 12.8278 41.0873L21.957 40.5801Z" fill="white"/>
<path fill-rule="evenodd" clip-rule="evenodd" d="M24.4494 3.04348C20.5801 3.04348 17.4434 6.15932 17.4434 10.0029C17.4434 12.5811 18.8539 14.8338 20.9576 16.038C21.483 16.3387 21.7803 16.919 21.716 17.5179C21.6517 18.1168 21.2378 18.6217 20.6604 18.8056C15.6644 20.3965 12.0511 25.0492 12.0511 30.5362C12.0511 33.89 13.3985 36.9281 15.5884 39.1505C15.9358 39.503 16.0896 40.001 16.001 40.4864C15.9124 40.9718 15.5924 41.3844 15.1426 41.5934C8.00414 44.9094 3.06383 52.1049 3.06383 60.4435C3.06383 62.7204 3.43164 64.9094 4.11058 66.9565H43.8894C44.5684 64.9094 44.9362 62.7204 44.9362 60.4435C44.9362 52.3256 40.2542 45.2913 33.4193 41.8647C32.976 41.6424 32.6686 41.2205 32.5947 40.7328C32.5207 40.2451 32.6893 39.752 33.047 39.4099C35.3918 37.1675 36.8477 34.0221 36.8477 30.5362C36.8477 25.0492 33.2343 20.3965 28.2383 18.8056C27.6609 18.6217 27.247 18.1168 27.1827 17.5179C27.1184 16.919 27.4158 16.3387 27.9411 16.038C30.0448 14.8338 31.4553 12.5811 31.4553 10.0029C31.4553 6.15932 28.3186 3.04348 24.4494 3.04348ZM14.3796 10.0029C14.3796 4.47845 18.888 0 24.4494 0C30.0108 0 34.5191 4.47845 34.5191 10.0029C34.5191 12.7074 33.4383 15.1601 31.685 16.9594C36.5774 19.5375 39.9115 24.6486 39.9115 30.5362C39.9115 34.1571 38.6488 37.4868 36.5393 40.112C43.412 44.3033 48 51.84 48 60.4435C48 63.4663 47.4329 66.3611 46.3973 69.0263C46.1693 69.613 45.6013 70 44.9681 70H3.03186C2.39868 70 1.83074 69.613 1.60273 69.0263C0.567087 66.3611 0 63.4663 0 60.4435C0 51.5856 4.86309 43.8587 12.0765 39.7489C10.1375 37.1829 8.98723 33.9919 8.98723 30.5362C8.98723 24.6486 12.3213 19.5375 17.2137 16.9594C15.4605 15.1601 14.3796 12.7074 14.3796 10.0029Z" fill="#42210B"/>
</svg>
