<svg width="41" height="41" viewBox="0 0 41 41" fill="none" xmlns="http://www.w3.org/2000/svg">
  <path d="M28.5384 31.6281V28.3742H27.0713C26.0967 27.2553 25.2665 26.0248 24.5992 24.7102C23.9762 23.4737 23.7484 21.3781 23.6747 19.8162C24.7945 19.1491 25.6594 18.145 26.1379 16.9566C26.6164 15.7682 26.6822 14.4605 26.3254 13.2324C25.9687 12.0043 25.2088 10.923 24.1614 10.1529C23.1139 9.3828 21.8363 8.96606 20.5227 8.96606C19.2091 8.96606 17.9314 9.3828 16.884 10.1529C15.8366 10.923 15.0767 12.0043 14.7199 13.2324C14.3631 14.4605 14.429 15.7682 14.9075 16.9566C15.3859 18.145 16.2508 19.1491 17.3706 19.8162C17.1337 21.4917 16.7664 23.1473 16.2719 24.7688C15.6181 26.0728 14.7866 27.2855 13.7999 28.3742H12.46V31.6281H9.78027V34.8821H31.2182V31.6281H28.5384Z" fill="#6D645C"/>
  <path d="M28.2907 28.3746H25.3162V31.6677H28.2907V28.3746Z" fill="#54463A"/>
  <path d="M15.6027 28.3546H12.6282V31.6476H15.6027V28.3546Z" fill="white"/>
  <path d="M31.0712 31.59H27.8689V34.883H31.0712V31.59Z" fill="#54463A"/>
  <path d="M12.9826 31.609H9.78027V34.902H12.9826V31.609Z" fill="white"/>
  <path d="M18.5839 20.4936C18.471 22.075 18.1904 23.6409 17.7465 25.1663C17.1905 26.6761 17.4718 27.5417 18.0614 27.7304C18.6509 27.9192 15.1405 28.1795 15.1405 28.2641C15.1405 28.3487 14.2227 27.8801 14.2227 27.8801C14.2227 27.8801 16.2325 25.5828 16.6143 23.6434C16.9962 21.7041 17.3647 19.8363 17.3647 19.8363L18.5839 20.4936Z" fill="white"/>
  <path d="M18.7582 9.78796C17.9534 10.3463 17.2993 11.0852 16.8514 11.9418C16.4035 12.7983 16.1751 13.7473 16.1857 14.708C16.1295 15.6749 16.3372 16.6391 16.7878 17.503C17.2383 18.367 17.9157 19.1 18.7515 19.628L17.3648 19.8427C17.3648 19.8427 14.0888 17.6626 14.5242 14.3565C14.6635 13.3829 15.0337 12.454 15.6057 11.6431C16.1777 10.8322 16.9359 10.1615 17.8203 9.68384L18.7582 9.78796Z" fill="white"/>
  <path d="M21.6318 9.60486C22.4456 10.1965 23.1028 10.9678 23.5489 11.855C23.9951 12.7422 24.2175 13.7199 24.1977 14.7071C24.2624 15.6998 24.0598 16.6917 23.6099 17.5852C23.1599 18.4787 22.4782 19.243 21.6318 19.8028L23.0186 20.0241C23.0186 20.0241 26.2946 17.7658 25.8591 14.3426C25.7336 13.3467 25.3741 12.392 24.8084 11.5525C24.2427 10.713 23.486 10.011 22.5965 9.50073L21.6318 9.60486Z" fill="#54463A"/>
  <path d="M25.3165 28.277C24.254 27.1339 23.4809 25.7657 23.0588 24.2811C22.4693 22.2376 22.5296 21.2289 21.384 21.1638C20.6336 21.1183 23.1794 19.9143 23.1794 19.9143L24.392 22.8949L26.6564 27.8605L25.3165 28.277Z" fill="#54463A"/>
  <path d="M31.2189 30.9777H29.2091V28.3746C29.2091 28.202 29.1385 28.0364 29.0129 27.9144C28.8873 27.7923 28.7169 27.7238 28.5392 27.7238H27.4539C26.784 27.125 24.5196 24.6846 24.5196 19.9142C25.6444 19.0947 26.4753 17.9521 26.8946 16.6483C27.3138 15.3446 27.3002 13.9457 26.8555 12.6499C26.4109 11.3541 25.5578 10.227 24.4172 9.42838C23.2765 8.62972 21.906 8.19995 20.5 8.19995C19.0939 8.19995 17.7235 8.62972 16.5828 9.42838C15.4421 10.227 14.5891 11.3541 14.1444 12.6499C13.6998 13.9457 13.6861 15.3446 14.1054 16.6483C14.5246 17.9521 15.3555 19.0947 16.4804 19.9142C16.4804 24.6846 14.1959 27.125 13.5461 27.7238H12.4608C12.2831 27.7238 12.1127 27.7923 11.987 27.9144C11.8614 28.0364 11.7908 28.202 11.7908 28.3746V30.9777H9.78102C9.60334 30.9777 9.43294 31.0463 9.3073 31.1683C9.18167 31.2904 9.11108 31.4559 9.11108 31.6285V34.8825C9.11108 35.0551 9.18167 35.2206 9.3073 35.3427C9.43294 35.4647 9.60334 35.5333 9.78102 35.5333H31.2189C31.3966 35.5333 31.567 35.4647 31.6926 35.3427C31.8183 35.2206 31.8889 35.0551 31.8889 34.8825V31.6285C31.8889 31.4559 31.8183 31.2904 31.6926 31.1683C31.567 31.0463 31.3966 30.9777 31.2189 30.9777ZM15.1405 14.7079C15.1405 13.6782 15.4548 12.6716 16.0437 11.8154C16.6326 10.9592 17.4697 10.2919 18.449 9.89785C19.4283 9.50379 20.5059 9.40069 21.5456 9.60158C22.5852 9.80247 23.5402 10.2983 24.2897 11.0264C25.0392 11.7546 25.5497 12.6822 25.7565 13.6922C25.9633 14.7021 25.8571 15.7489 25.4515 16.7003C25.0458 17.6516 24.3589 18.4647 23.4775 19.0368C22.5962 19.6089 21.56 19.9142 20.5 19.9142C19.0786 19.9142 17.7153 19.3657 16.7103 18.3893C15.7052 17.413 15.1405 16.0887 15.1405 14.7079ZM17.8202 20.6561C18.672 21.0251 19.5942 21.2158 20.5268 21.2158C21.4594 21.2158 22.3815 21.0251 23.2333 20.6561C23.2784 23.1996 24.13 25.6676 25.6719 27.7238H15.3281C16.8891 25.6739 17.7595 23.2053 17.8202 20.6561ZM13.1307 29.0253H27.8693V30.9777H13.1307V29.0253ZM30.549 34.2317H10.451V32.2793H30.549V34.2317Z" fill="#42210B"/>
</svg>
