<svg width="41" height="41" viewBox="0 0 41 41" fill="none" xmlns="http://www.w3.org/2000/svg">
  <path d="M32.7437 12.0867C32.4106 12.0862 32.0859 12.1898 31.8154 12.3827C31.5449 12.5755 31.3424 12.848 31.2366 13.1614C31.1309 13.4748 31.1271 13.8133 31.226 14.1289C31.3249 14.4445 31.5213 14.7213 31.7875 14.92L26.016 21.1316L27.074 11.8579H27.2097C27.6053 11.8582 27.9869 11.7126 28.2803 11.4492C28.5736 11.1858 28.7578 10.8236 28.797 10.4329C28.8361 10.0423 28.7274 9.65113 28.4921 9.33557C28.2567 9.02002 27.9115 8.8026 27.5236 8.72561C27.1356 8.64862 26.7327 8.71756 26.3932 8.91901C26.0536 9.12047 25.8017 9.44005 25.6864 9.81559C25.5712 10.1911 25.6008 10.5958 25.7695 10.9509C25.9382 11.306 26.234 11.5861 26.5993 11.7368L22.4827 19.8125L20.699 9.71783C21.1062 9.66649 21.4783 9.46316 21.7398 9.1492C22.0013 8.83524 22.1324 8.43424 22.1064 8.02776C22.0805 7.62129 21.8995 7.23988 21.6003 6.96113C21.301 6.68238 20.906 6.52722 20.4956 6.52722C20.0851 6.52722 19.6901 6.68238 19.3908 6.96113C19.0916 7.23988 18.9106 7.62129 18.8847 8.02776C18.8588 8.43424 18.9899 8.83524 19.2513 9.1492C19.5128 9.46316 19.8849 9.66649 20.2921 9.71783L18.4067 19.9067L14.3376 11.7973C14.7344 11.6059 15.0433 11.2723 15.202 10.8638C15.3607 10.4552 15.3573 10.0022 15.1926 9.59599C15.0278 9.18981 14.714 8.86076 14.3143 8.6752C13.9147 8.48965 13.459 8.46142 13.0391 8.59619C12.6193 8.73097 12.2667 9.01873 12.0523 9.40141C11.8379 9.7841 11.7777 10.2332 11.884 10.6582C11.9902 11.0831 12.2549 11.4523 12.6247 11.6912C12.9945 11.9301 13.4418 12.0209 13.8764 11.9454L14.9479 21.1383L9.10868 14.8257C9.45975 14.5852 9.7056 14.2213 9.79645 13.8077C9.8873 13.3941 9.81637 12.9617 9.59802 12.598C9.37966 12.2344 9.0302 11.9666 8.6204 11.849C8.21059 11.7314 7.77105 11.7727 7.39079 11.9646C7.01052 12.1564 6.71793 12.4845 6.57227 12.8824C6.42661 13.2803 6.43876 13.7182 6.60625 14.1076C6.77374 14.4969 7.08407 14.8085 7.4744 14.9794C7.86472 15.1502 8.30588 15.1674 8.70855 15.0276L13.7204 28.0498L12.364 28.0902L12.3233 31.4147L9.65124 31.4955V34.8604H31.272L31.3534 31.4955H28.6407V28.1306H27.2843L32.208 15.142C32.4257 15.2203 32.658 15.2504 32.8887 15.2301C33.1193 15.2098 33.3427 15.1397 33.5432 15.0247C33.7436 14.9096 33.9163 14.7525 34.049 14.5642C34.1817 14.3759 34.2713 14.1611 34.3115 13.9348C34.3517 13.7085 34.3415 13.4762 34.2816 13.2542C34.2217 13.0323 34.1136 12.826 33.9649 12.6499C33.8161 12.4738 33.6303 12.3321 33.4206 12.2348C33.2108 12.1375 32.9821 12.087 32.7505 12.0867H32.7437Z" fill="#6D645C"/>
  <path d="M8.39659 12.6517C8.22027 12.7659 8.07773 12.9245 7.98357 13.1114C7.88942 13.2982 7.84705 13.5066 7.86081 13.715C7.87932 13.9245 7.95129 14.1259 8.06995 14.3002C8.1886 14.4744 8.35003 14.6158 8.53901 14.711C8.53901 14.711 7.62345 14.9466 7.3386 14.7985C7.05376 14.6505 6.26028 13.5333 6.4027 13.3247C6.8017 12.8745 7.24218 12.4622 7.71839 12.0931C7.95609 12.265 8.18261 12.4515 8.39659 12.6517V12.6517Z" fill="white"/>
  <path d="M13.8231 9.28715C13.6468 9.40131 13.5042 9.55995 13.4101 9.7468C13.3159 9.93366 13.2736 10.142 13.2873 10.3505C13.3058 10.56 13.3778 10.7613 13.4965 10.9356C13.6151 11.1099 13.7765 11.2513 13.9655 11.3465C13.9655 11.3465 13.05 11.582 12.7651 11.434C12.4803 11.2859 11.6868 10.1688 11.8292 9.96013C12.2269 9.50054 12.6675 9.07918 13.1449 8.70166C13.3834 8.88216 13.6099 9.07773 13.8231 9.28715V9.28715Z" fill="white"/>
  <path d="M31.2049 31.4553H27.9631V34.8606H31.2049V31.4553Z" fill="#54463A"/>
  <path d="M9.65112 31.4752H12.8929V34.8805H9.65112" fill="white"/>
  <path d="M14.7239 25.1966L11.6178 17.5852L9.48828 15.6268L9.7053 17.4708L13.7202 27.7135V27.8818L12.3638 28.1308V31.4957H15.7548V28.1308H17.1112L17.2807 27.4578C16.6989 27.3212 16.1605 27.0429 15.7141 26.6481C15.2677 26.2534 14.9274 25.7545 14.7239 25.1966V25.1966Z" fill="white"/>
  <path d="M26.3632 25.1966L29.4761 17.5852L31.6057 15.6268L31.3547 17.4708L27.2856 27.7135V27.8818L28.642 28.1308V31.4957H25.251V28.1308H23.9828L23.8132 27.4578C24.3938 27.3202 24.9309 27.0414 25.376 26.6467C25.8211 26.252 26.1604 25.7537 26.3632 25.1966V25.1966Z" fill="#54463A"/>
  <path d="M32.5543 12.6517C32.7306 12.7659 32.8731 12.9245 32.9673 13.1114C33.0614 13.2982 33.1038 13.5066 33.0901 13.715C33.0716 13.9245 32.9996 14.1259 32.8809 14.3002C32.7623 14.4744 32.6008 14.6158 32.4119 14.711C32.4119 14.711 33.3274 14.9466 33.6123 14.7985C33.8971 14.6505 34.6567 13.54 34.5143 13.3516C34.1165 12.892 33.676 12.4707 33.1986 12.0931C32.9725 12.2661 32.7573 12.4526 32.5543 12.6517V12.6517Z" fill="#54463A"/>
  <path d="M27.1287 9.28715C27.3051 9.40131 27.4476 9.55995 27.5418 9.7468C27.6359 9.93366 27.6783 10.142 27.6645 10.3505C27.646 10.56 27.574 10.7613 27.4554 10.9356C27.3367 11.1099 27.1753 11.2513 26.9863 11.3465C26.9863 11.3465 27.9019 11.582 28.1867 11.434C28.4716 11.2859 29.2651 10.1688 29.1226 9.96013C28.7249 9.50054 28.2844 9.07918 27.8069 8.70166C27.5684 8.88216 27.3419 9.07773 27.1287 9.28715V9.28715Z" fill="#54463A"/>
  <path d="M32.7108 11.3061C32.0812 11.3061 31.4775 11.5542 31.0323 11.996C30.5872 12.4377 30.3371 13.0368 30.3371 13.6615C30.339 14.0114 30.4201 14.3564 30.5745 14.671V14.671C30.6426 14.7967 30.7221 14.9161 30.8118 15.0277L26.8647 19.3818L27.7193 12.6049C28.0847 12.5354 28.4285 12.3817 28.723 12.1561C29.0176 11.9304 29.2545 11.6393 29.4147 11.3061V11.3061C29.5714 10.992 29.6549 10.647 29.6589 10.2966C29.6589 9.67191 29.4088 9.0728 28.9637 8.63107C28.5185 8.18934 27.9148 7.94118 27.2852 7.94118C26.6557 7.94118 26.0519 8.18934 25.6068 8.63107C25.1616 9.0728 24.9115 9.67191 24.9115 10.2966C24.9135 10.6465 24.9946 10.9915 25.1489 11.3061V11.3061C25.2998 11.6027 25.5125 11.8642 25.7728 12.0733L22.8363 17.8946L21.4799 10.3572C21.9766 10.1424 22.3837 9.76457 22.6328 9.28714V9.28714C22.7895 8.97309 22.8729 8.62808 22.877 8.27767C22.877 7.65297 22.6269 7.05386 22.1817 6.61213C21.7366 6.1704 21.1328 5.92224 20.5033 5.92224C19.8737 5.92224 19.27 6.1704 18.8248 6.61213C18.3797 7.05386 18.1296 7.65297 18.1296 8.27767C18.1315 8.62756 18.2126 8.97255 18.367 9.28714C18.6072 9.76083 19.0015 10.1402 19.486 10.3639L18.1296 17.8946L15.2202 12.1069C15.4809 11.8983 15.6937 11.6367 15.8441 11.3397V11.3397V11.3061C16.0031 10.9926 16.0889 10.6475 16.095 10.2966C16.095 9.67191 15.8449 9.0728 15.3998 8.63107C14.9546 8.18934 14.3509 7.94118 13.7213 7.94118C13.0918 7.94118 12.4881 8.18934 12.0429 8.63107C11.5978 9.0728 11.3477 9.67191 11.3477 10.2966C11.3496 10.6465 11.4307 10.9915 11.585 11.3061C11.7494 11.633 11.9882 11.9175 12.2824 12.1371C12.5767 12.3567 12.9184 12.5053 13.2805 12.5713L14.1418 19.3818L10.1812 15.0613C10.2706 14.9519 10.3501 14.8348 10.4185 14.7114C10.5836 14.3856 10.6696 14.0261 10.6695 13.6615C10.6695 13.0368 10.4194 12.4377 9.97424 11.996C9.52909 11.5542 8.92534 11.3061 8.2958 11.3061C7.66626 11.3061 7.0625 11.5542 6.61735 11.996C6.1722 12.4377 5.92212 13.0368 5.92212 13.6615C5.92403 14.0114 6.00515 14.3564 6.15949 14.671V14.671C6.35204 15.0719 6.65461 15.4109 7.03248 15.649C7.41035 15.887 7.8482 16.0146 8.2958 16.0169H8.34327L12.738 27.4576H12.365C12.1851 27.4576 12.0126 27.5285 11.8854 27.6547C11.7582 27.7809 11.6868 27.9521 11.6868 28.1306V30.8225H9.65218C9.47232 30.8225 9.29981 30.8934 9.17263 31.0196C9.04544 31.1458 8.97399 31.317 8.97399 31.4955V34.8604C8.97399 35.0389 9.04544 35.21 9.17263 35.3362C9.29981 35.4624 9.47232 35.5334 9.65218 35.5334H31.3544C31.5342 35.5334 31.7067 35.4624 31.8339 35.3362C31.9611 35.21 32.0326 35.0389 32.0326 34.8604V31.4955C32.0326 31.317 31.9611 31.1458 31.8339 31.0196C31.7067 30.8934 31.5342 30.8225 31.3544 30.8225H29.3198V28.1306C29.3198 27.9521 29.2483 27.7809 29.1212 27.6547C28.994 27.5285 28.8215 27.4576 28.6416 27.4576H28.2686L32.6633 16.0169H32.7108C33.1572 16.0133 33.5936 15.8852 33.9702 15.6472C34.3467 15.4092 34.6482 15.0709 34.8403 14.671V14.671C34.9976 14.3503 35.0788 13.998 35.0777 13.6413C35.0723 13.0213 34.8208 12.4284 34.3777 11.9912C33.9346 11.554 33.3356 11.3078 32.7108 11.3061ZM27.2852 9.28714C27.555 9.31034 27.8045 9.43895 27.9787 9.64467C28.153 9.85039 28.2377 10.1164 28.2143 10.3841C28.191 10.6518 28.0614 10.8994 27.854 11.0723C27.6467 11.2452 27.3787 11.3293 27.1089 11.3061C26.9504 11.2764 26.8011 11.2104 26.6727 11.1135C26.5444 11.0165 26.4406 10.8912 26.3697 10.7475C26.292 10.5932 26.2555 10.4217 26.2636 10.2494C26.2718 10.0771 26.3242 9.9098 26.416 9.76335C26.5079 9.61691 26.6359 9.49625 26.7881 9.41288C26.9403 9.32951 27.1114 9.28622 27.2852 9.28714V9.28714ZM20.5033 7.2682C20.6752 7.26841 20.8444 7.31188 20.9948 7.39454C21.1452 7.47719 21.2721 7.59635 21.3636 7.74087C21.455 7.88538 21.508 8.05054 21.5177 8.22092C21.5274 8.39129 21.4934 8.56132 21.4188 8.71511V8.71511C21.3453 8.86997 21.2332 9.00373 21.0932 9.1038C20.9532 9.20387 20.7899 9.26696 20.6186 9.28714C20.5337 9.30555 20.4458 9.30555 20.3609 9.28714C20.1991 9.26447 20.0454 9.20297 19.913 9.10798C19.7806 9.01298 19.6736 8.88736 19.6013 8.74203V8.74203C19.521 8.58825 19.4819 8.41656 19.4878 8.24347C19.4938 8.07037 19.5445 7.9017 19.6351 7.75367C19.7256 7.60564 19.8531 7.48323 20.0052 7.39821C20.1572 7.31319 20.3287 7.26842 20.5033 7.2682ZM12.8126 10.7475C12.7375 10.5936 12.703 10.4233 12.7123 10.2526C12.7217 10.0818 12.7746 9.91626 12.8662 9.77137C12.9577 9.62649 13.0848 9.50704 13.2355 9.42425C13.3863 9.34145 13.5558 9.29802 13.7281 9.29802C13.9004 9.29802 14.0699 9.34145 14.2207 9.42425C14.3715 9.50704 14.4986 9.62649 14.5901 9.77137C14.6816 9.91626 14.7345 10.0818 14.7439 10.2526C14.7533 10.4233 14.7188 10.5936 14.6437 10.7475V10.7475C14.5246 10.9794 14.3208 11.1575 14.074 11.2455C14.0006 11.2758 13.9227 11.2939 13.8434 11.2993L13.7213 11.3061C13.5326 11.3058 13.3476 11.2534 13.1871 11.1548C13.0266 11.0561 12.8969 10.9151 12.8126 10.7475V10.7475ZM7.38702 14.1124C7.31795 13.9762 7.28089 13.8262 7.27862 13.6737C7.27635 13.5212 7.30893 13.3702 7.3739 13.232C7.43888 13.0938 7.53457 12.972 7.65378 12.8757C7.773 12.7795 7.91264 12.7113 8.06222 12.6763C8.2118 12.6412 8.36743 12.6403 8.51743 12.6735C8.66742 12.7068 8.80788 12.7733 8.92826 12.8681C9.04863 12.9629 9.14579 13.0836 9.21244 13.221C9.2791 13.3584 9.31351 13.509 9.31309 13.6615C9.30788 13.9276 9.19903 14.1814 9.00937 14.3696C8.8197 14.5578 8.56397 14.6658 8.2958 14.671C8.10459 14.67 7.91748 14.6158 7.75567 14.5147C7.59386 14.4136 7.46381 14.2696 7.38024 14.0989L7.38702 14.1124ZM30.6762 34.1874H10.3304V32.1685H30.6762V34.1874ZM13.0432 30.8225V28.8036H27.9634V30.8225H13.0432ZM14.1893 27.4576L10.2083 17.087L14.5827 21.8517C14.6798 21.9571 14.8083 22.0291 14.9494 22.0572C15.0905 22.0854 15.237 22.0682 15.3677 22.0083C15.4984 21.9483 15.6064 21.8486 15.6762 21.7237C15.746 21.5988 15.7739 21.455 15.7559 21.3133L14.8946 14.4489L17.8719 20.3509C17.9268 20.4622 18.0116 20.5562 18.1169 20.6227C18.2222 20.6892 18.3439 20.7256 18.4687 20.7278H18.5636C18.7051 20.7071 18.8364 20.6427 18.9387 20.5436C19.041 20.4444 19.1091 20.3158 19.1333 20.176L20.5033 12.4771L21.8597 20.1692C21.8839 20.3091 21.952 20.4377 22.0543 20.5368C22.1566 20.6359 22.2879 20.7004 22.4294 20.7211H22.5379C22.6631 20.7207 22.7858 20.6859 22.8923 20.6206C22.9989 20.5552 23.0851 20.4619 23.1415 20.3509L26.1187 14.4489L25.2506 21.32C25.2326 21.4617 25.2606 21.6055 25.3303 21.7304C25.4001 21.8554 25.5082 21.955 25.6389 22.015C25.7695 22.075 25.916 22.0921 26.0572 22.0639C26.1983 22.0358 26.3267 21.9638 26.4239 21.8584L30.7983 17.0937L26.8173 27.4576H14.1893ZM33.6195 14.1124C33.5352 14.28 33.4055 14.421 33.2451 14.5197C33.0846 14.6183 32.8996 14.6707 32.7108 14.671C32.5502 14.6859 32.3889 14.6506 32.2496 14.57C32.0775 14.4664 31.9405 14.314 31.8562 14.1326C31.7377 13.8794 31.7184 13.5916 31.802 13.325C31.8676 13.1191 31.9984 12.9397 32.175 12.8136C32.3339 12.709 32.5201 12.6528 32.7108 12.652C32.8437 12.652 32.9754 12.6782 33.098 12.7291C33.2207 12.78 33.332 12.8546 33.4253 12.9485C33.5187 13.0424 33.5924 13.1538 33.642 13.2762C33.6917 13.3986 33.7163 13.5296 33.7145 13.6615C33.7171 13.817 33.6847 13.971 33.6195 14.1124V14.1124Z" fill="#42210B"/>
</svg>
