<svg width="41" height="41" viewBox="0 0 41 41" fill="none" xmlns="http://www.w3.org/2000/svg">
  <path d="M28.4112 31.5859V28.0352L27.1316 28.0755C26.3543 26.052 25.7054 23.981 25.1888 21.8752C24.9038 19.9402 24.7561 17.9873 24.7466 16.0313H28.5384V7.96143H25.1888V11.3239H22.509V7.96143H18.4894V11.3239H15.8097V7.96143H12.46V16.0313H16.3992C16.3992 15.9775 16.3992 16.0313 16.3992 16.0313C16.3992 16.0313 16.3992 16.0313 16.3992 16.0783C16.359 16.7508 16.0576 21.5524 15.4546 23.2941C14.8115 25.1569 13.887 28.136 13.7999 28.136C13.7128 28.136 12.46 28.089 12.46 28.089V31.4985H9.78027V34.8609H31.2182V31.4985L28.4112 31.5859Z" fill="#6D645C"/>
  <path d="M28.6864 7.77332H26.7168V16.0113H28.6864V7.77332Z" fill="#54463A"/>
  <path d="M14.1149 7.77332H12.1453V16.0113H14.1149V7.77332Z" fill="white"/>
  <path d="M27.1992 28.1362H25.5243C23.7356 25.796 22.9652 20.8397 22.6637 18.0489C22.5144 17.7038 22.283 17.4006 21.9899 17.1662C21.6967 16.9317 21.3507 16.773 20.9822 16.704L22.0474 15.823L22.5029 16.287C22.5029 16.1189 22.5029 16.0315 22.5029 16.0315H24.6132C24.6132 16.0315 24.6735 18.9433 24.8544 20.6246C25.0353 22.3058 27.1992 28.1362 27.1992 28.1362Z" fill="#54463A"/>
  <path d="M28.2907 28.1357H25.3162V31.5385H28.2907V28.1357Z" fill="#54463A"/>
  <path d="M15.6027 28.1158H12.6282V31.5186H15.6027V28.1158Z" fill="white"/>
  <path d="M31.0712 31.4578H27.8689V34.8606H31.0712V31.4578Z" fill="#54463A"/>
  <path d="M12.9826 31.4783H9.78027V34.8811H12.9826V31.4783Z" fill="white"/>
  <path d="M18.4902 16.0309C18.4902 16.0309 18.0212 24.7732 15.4554 28.1356H13.7805C13.7805 28.1356 15.9511 22.3052 16.1387 20.624C16.3263 18.9428 16.3799 16.0309 16.3799 16.0309H18.4902Z" fill="white"/>
  <path d="M18.4897 27.4631C18.4897 27.4631 16.433 27.2882 16.7814 25.5196C17.1298 23.751 15.81 26.4006 15.7497 26.488C15.6894 26.5754 15.2673 27.9876 15.2673 27.9876L18.4897 27.4631Z" fill="white"/>
  <path d="M31.2189 30.826H29.2091V28.136C29.2091 27.9577 29.1385 27.7866 29.0129 27.6605C28.8873 27.5344 28.7169 27.4635 28.5392 27.4635H27.6482C26.2534 24.0343 25.423 20.4004 25.1895 16.7038H28.5392C28.7169 16.7038 28.8873 16.6329 29.0129 16.5068C29.1385 16.3807 29.2091 16.2096 29.2091 16.0313V7.96143C29.2091 7.78307 29.1385 7.61202 29.0129 7.48591C28.8873 7.35979 28.7169 7.28894 28.5392 7.28894H25.1895C25.0118 7.28894 24.8414 7.35979 24.7158 7.48591C24.5902 7.61202 24.5196 7.78307 24.5196 7.96143V10.6514H23.1797V7.96143C23.1797 7.78307 23.1091 7.61202 22.9835 7.48591C22.8579 7.35979 22.6875 7.28894 22.5098 7.28894H18.4902C18.3125 7.28894 18.1421 7.35979 18.0165 7.48591C17.8908 7.61202 17.8202 7.78307 17.8202 7.96143V10.6514H16.4804V7.96143C16.4804 7.78307 16.4098 7.61202 16.2841 7.48591C16.1585 7.35979 15.9881 7.28894 15.8104 7.28894H12.4608C12.2831 7.28894 12.1127 7.35979 11.987 7.48591C11.8614 7.61202 11.7908 7.78307 11.7908 7.96143V16.0313C11.7908 16.2096 11.8614 16.3807 11.987 16.5068C12.1127 16.6329 12.2831 16.7038 12.4608 16.7038H15.8104C15.5822 20.3991 14.7586 24.0328 13.3719 27.4635H12.4608C12.2831 27.4635 12.1127 27.5344 11.987 27.6605C11.8614 27.7866 11.7908 27.9577 11.7908 28.136V30.826H9.78102C9.60334 30.826 9.43294 30.8968 9.3073 31.0229C9.18167 31.1491 9.11108 31.3201 9.11108 31.4985V34.8609C9.11108 35.0393 9.18167 35.2103 9.3073 35.3364C9.43294 35.4625 9.60334 35.5334 9.78102 35.5334H31.2189C31.3966 35.5334 31.567 35.4625 31.6926 35.3364C31.8183 35.2103 31.8889 35.0393 31.8889 34.8609V31.4985C31.8889 31.3201 31.8183 31.1491 31.6926 31.0229C31.567 30.8968 31.3966 30.826 31.2189 30.826ZM13.1307 8.63391H15.1405V11.3239C15.1405 11.5022 15.2111 11.6733 15.3367 11.7994C15.4624 11.9255 15.6328 11.9963 15.8104 11.9963H18.4902C18.6678 11.9963 18.8382 11.9255 18.9639 11.7994C19.0895 11.6733 19.1601 11.5022 19.1601 11.3239V8.63391H21.8398V11.3239C21.8398 11.5022 21.9104 11.6733 22.0361 11.7994C22.1617 11.9255 22.3321 11.9963 22.5098 11.9963H25.1895C25.3672 11.9963 25.5376 11.9255 25.6632 11.7994C25.7889 11.6733 25.8595 11.5022 25.8595 11.3239V8.63391H27.8693V15.3588H13.1307V8.63391ZM17.1503 16.7038H23.8496C24.0518 20.3926 24.8412 24.0252 26.1877 27.4635H14.7988C16.1499 24.026 16.9438 20.3934 17.1503 16.7038V16.7038ZM13.1307 28.8085H27.8693V30.826H13.1307V28.8085ZM30.549 34.1884H10.451V32.171H30.549V34.1884Z" fill="#42210B"/>
</svg>
