<svg width="41" height="41" viewBox="0 0 41 41" fill="none" xmlns="http://www.w3.org/2000/svg">
  <path d="M22.2813 9.18026C22.2813 9.18026 29.9319 16.3895 29.8783 21.1014C29.8866 22.4272 29.6151 23.7396 29.0816 24.9521C28.548 26.1646 27.7647 27.2497 26.7832 28.1357H28.5384L28.5786 31.5013H31.2182V34.867H9.78027V31.5013H12.46V28.1357H14.4698C13.245 27.1881 12.2986 25.9247 11.7312 24.4799C11.1638 23.0351 10.9966 21.4628 11.2474 19.9302C12.0848 14.5451 18.7842 9.28796 18.7842 9.28796C18.7842 9.28796 18.5765 6.50792 20.4992 6.72333C22.4219 6.93873 22.2813 9.18026 22.2813 9.18026Z" fill="#EFD5BB"/>
  <path d="M28.2907 28.1357H25.3162V31.5418H28.2907V28.1357Z" fill="#DCA898"/>
  <path d="M15.7962 28.115H12.6274V31.521H15.7962V28.115Z" fill="white"/>
  <path d="M31.0712 31.4612H27.8689V34.8672H31.0712V31.4612Z" fill="#DCA898"/>
  <path d="M12.9826 31.4813H9.78027V34.8874H12.9826V31.4813Z" fill="white"/>
  <path d="M19.5212 10.1155L19.6351 10.2366L19.5212 10.1155Z" fill="white"/>
  <path d="M14.959 25.6251C14.269 24.7654 13.7709 23.7668 13.4985 22.6969C12.7616 19.5871 14.5168 16.9349 15.2805 15.9656C15.7964 15.2925 16.2787 14.6193 16.7678 13.9462L19.5212 10.1026L18.7843 9.31506L12.9357 16.1608C12.9357 16.1608 11.147 19.2774 11.0666 22.219C10.9862 25.1606 13.8 28.1359 13.8 28.1359C13.8 28.809 17.0692 28.1359 17.0692 28.1359V27.732L17.8196 27.4627C16.6949 27.1734 15.6923 26.5293 14.959 25.6251V25.6251Z" fill="white"/>
  <path d="M21.363 10.2366L21.4769 10.1155L21.363 10.2366Z" fill="#DCA898"/>
  <path d="M28.063 16.1609L22.2144 9.32861L21.4775 10.1162L24.231 13.9598L24.5123 14.3502L20.9617 19.1631C20.9617 19.1227 23.8893 16.5648 25.2225 15.3128C25.4167 15.5753 25.5172 15.7099 25.7249 15.9859C26.4886 16.9552 28.2439 19.6074 27.5069 22.7172C27.228 23.8068 26.7159 24.8222 26.0063 25.6925C25.1822 26.6149 24.0774 27.2374 22.8643 27.4628L23.9094 27.8734V28.1561C23.9094 28.1561 27.1988 28.8091 27.1988 28.1359C27.1988 28.1359 30.0192 25.2213 29.9321 22.246C29.845 19.2708 28.063 16.1609 28.063 16.1609Z" fill="#DCA898"/>
  <path d="M20.5991 7.26873C20.425 7.38291 20.2842 7.54159 20.1912 7.72849C20.0982 7.91538 20.0563 8.12377 20.0699 8.33228C20.0882 8.54184 20.1593 8.74326 20.2765 8.91756C20.3937 9.09186 20.5532 9.23329 20.7398 9.32852C20.7398 9.32852 19.8354 9.56412 19.5541 9.41603C19.2727 9.26794 18.4889 8.15054 18.6295 7.94186C19.0224 7.48217 19.4576 7.06071 19.9292 6.68311C20.1648 6.86364 20.3886 7.05926 20.5991 7.26873V7.26873Z" fill="white"/>
  <path d="M31.2189 30.8282H29.2091V28.1356C29.2091 27.9571 29.1385 27.7859 29.0129 27.6596C28.8873 27.5334 28.7169 27.4625 28.5392 27.4625H28.03L28.2846 27.1798C29.7091 25.5844 30.5087 23.5236 30.5345 21.3804C30.5604 19.2372 29.8109 17.1575 28.4253 15.5278L22.7577 8.87729C22.8124 8.68224 22.8417 8.48085 22.8447 8.27821C22.8447 7.65337 22.5977 7.05412 22.158 6.61229C21.7182 6.17046 21.1218 5.92224 20.5 5.92224C19.8781 5.92224 19.2817 6.17046 18.842 6.61229C18.4022 7.05412 18.1552 7.65337 18.1552 8.27821C18.1583 8.48085 18.1876 8.68222 18.2423 8.87729L12.5746 15.5211C11.1868 17.1493 10.4352 19.2288 10.4599 21.3724C10.4845 23.516 11.2837 25.5775 12.7086 27.173L12.9632 27.4558H12.4608C12.2831 27.4558 12.1127 27.5267 11.987 27.6529C11.8614 27.7792 11.7908 27.9504 11.7908 28.1289V30.8214H9.78102C9.60334 30.8214 9.43294 30.8923 9.3073 31.0186C9.18167 31.1448 9.11108 31.316 9.11108 31.4946V34.8602C9.11108 35.0387 9.18167 35.21 9.3073 35.3362C9.43294 35.4624 9.60334 35.5334 9.78102 35.5334H31.2189C31.3966 35.5334 31.567 35.4624 31.6926 35.3362C31.8183 35.21 31.8889 35.0387 31.8889 34.8602V31.5013C31.8889 31.3228 31.8183 31.1515 31.6926 31.0253C31.567 30.8991 31.3966 30.8282 31.2189 30.8282ZM20.5 7.26851C20.6698 7.26872 20.8369 7.31219 20.9855 7.39487C21.1341 7.47755 21.2594 7.59673 21.3498 7.74128C21.4401 7.88583 21.4925 8.05103 21.502 8.22144C21.5116 8.39185 21.478 8.56192 21.4044 8.71574V8.71574C21.3207 8.88288 21.1925 9.02337 21.0339 9.12154C20.8754 9.2197 20.6929 9.27169 20.5067 9.27169C20.3205 9.27169 20.1379 9.2197 19.9794 9.12154C19.8209 9.02337 19.6926 8.88288 19.609 8.71574V8.71574C19.5428 8.57948 19.5084 8.42983 19.5085 8.27821C19.5084 8.01273 19.6125 7.75793 19.798 7.56896C19.9836 7.37999 20.2358 7.27205 20.5 7.26851V7.26851ZM13.7068 26.2778C12.4995 24.9255 11.8224 23.1784 11.8014 21.3619C11.7805 19.5453 12.4171 17.783 13.5929 16.4029L18.9524 10.0755C19.3742 10.4328 19.9081 10.6289 20.4598 10.6289C21.0115 10.6289 21.5454 10.4328 21.9671 10.0755L24.2315 12.7343L19.9238 18.3012C19.8697 18.371 19.8298 18.4508 19.8064 18.5362C19.7831 18.6215 19.7766 18.7106 19.7875 18.7984C19.7984 18.8862 19.8264 18.9711 19.8699 19.048C19.9134 19.125 19.9716 19.1925 20.0411 19.2469C20.1106 19.3013 20.19 19.3413 20.275 19.3648C20.3599 19.3883 20.4486 19.3948 20.536 19.3839C20.6234 19.3729 20.7078 19.3448 20.7844 19.3011C20.861 19.2574 20.9282 19.1989 20.9823 19.1291L25.1895 13.7777L27.4271 16.4029C28.6029 17.783 29.2396 19.5453 29.2186 21.3619C29.1977 23.1784 28.5205 24.9255 27.3132 26.2778L26.2279 27.4625H14.772L13.7068 26.2778ZM13.1307 28.8088H27.8693V30.8282H13.1307V28.8088ZM30.549 34.1938H10.451V32.1744H30.549V34.1938Z" fill="#42210B"/>
</svg>
