<svg width="56" height="71" viewBox="0 0 56 71" fill="none" xmlns="http://www.w3.org/2000/svg">
<path d="M10 22.5C10 22.5 15 21 28 21C41 21 46 22.5 46 22.5V48.5H10V22.5Z" fill="#EFD5BB"/>
<path d="M10 48.5H46L51 53.5H5L10 48.5Z" fill="#EFD5BB"/>
<path d="M10 22.5C10 22.5 15 21 28 21C41 21 46 22.5 46 22.5L53 17.5C53 17.5 46.2 14 28 14C9.8 14 3 17.5 3 17.5L10 22.5Z" fill="#EFD5BB"/>
<path d="M3 5.5C3 5.5 7.5 3.5 13 3V8L21.5 7V2C21.5 2 24 1.5 28 1.5C32 1.5 34.5 2 34.5 2V7L43 8V3C49.5 4 53 5.5 53 5.5V17.5C53 17.5 46.2 14 28 14C9.8 14 3 17.5 3 17.5V5.5Z" fill="#EFD5BB"/>
<path d="M51 53.5H5V61.5H51V53.5Z" fill="#EFD5BB"/>
<path d="M54 69.5V61.5H51H5H2V69.5H54Z" fill="#EFD5BB"/>
<rect x="4" y="4.5" width="4" height="11" fill="white"/>
<rect x="6" y="53.5" width="8" height="8" fill="white"/>
<rect x="42" y="53.5" width="8" height="8" fill="#DCA898"/>
<rect x="3" y="61.5" width="8" height="8" fill="white"/>
<rect x="45" y="61.5" width="8" height="8" fill="#DCA898"/>
<path d="M4 16.5H9L16 21.5L11.0002 21.4996L4 16.5Z" fill="white"/>
<path d="M37 48.5H45L50 53.5H42L37 48.5Z" fill="#DCA898"/>
<path d="M52 16.5H47L40 21.5H45L52 16.5Z" fill="#DCA898"/>
<path d="M19 48.5H11L6 53.5H14L19 48.5Z" fill="white"/>
<rect x="48" y="4.5" width="4" height="11" fill="#DCA898"/>
<path d="M33 22.5H46V47.5H41C41 47.5 41 36 41 30C41 24 33 22.5 33 22.5Z" fill="#DCA898"/>
<path d="M23 47.5L10 47.5L10 22.5L15 22.5C15 22.5 15 33.5 15 40C15 46.5 23 47.5 23 47.5Z" fill="white"/>
<path fill-rule="evenodd" clip-rule="evenodd" d="M23 3.28974V7C23 7.76063 22.4307 8.40085 21.6753 8.48973L13.1753 9.48973C12.7498 9.53977 12.3233 9.40556 12.0032 9.12091C11.6831 8.83627 11.5 8.42835 11.5 8V4.69048C9.53167 4.98309 7.75672 5.44349 6.3821 5.8701C5.61053 6.10955 4.97061 6.33662 4.5 6.51404V15.3163C5.44691 15.0068 6.71903 14.6446 8.35253 14.2851C12.445 13.3842 18.8041 12.5 28 12.5C37.1959 12.5 43.555 13.3842 47.6475 14.2851C49.281 14.6446 50.5531 15.0068 51.5 15.3163V6.53934C51.1199 6.40738 50.6225 6.24429 50.0114 6.0632C48.6929 5.67255 46.8448 5.19824 44.5 4.77217V8C44.5 8.42835 44.3169 8.83627 43.9968 9.12091C43.6767 9.40556 43.2502 9.53977 42.8247 9.48973L34.3247 8.48973C33.5693 8.40085 33 7.76063 33 7V3.28974C32.871 3.27368 32.7324 3.25727 32.5844 3.24083C31.5073 3.12116 29.938 3 28 3C26.062 3 24.4927 3.12116 23.4156 3.24083C23.2676 3.25727 23.129 3.27368 23 3.28974ZM34.5 2L34.7942 0.529129C35.4953 0.669356 36 1.28498 36 2V5.66613L41.5 6.31318V3C41.5 2.56235 41.6911 2.14652 42.0233 1.86155C42.3555 1.57658 42.7955 1.45089 43.2281 1.51744C46.5495 2.02843 49.1157 2.6689 50.8636 3.1868C51.7376 3.44576 52.4071 3.67409 52.8642 3.84031C53.0927 3.92342 53.2682 3.99102 53.3897 4.03915C53.4504 4.06322 53.4976 4.08243 53.5312 4.09628L53.5713 4.11298L53.5837 4.1182L53.5879 4.12001L53.5896 4.12072C53.5899 4.12085 53.5909 4.12128 53 5.5L53.5909 4.12128C54.1424 4.35765 54.5 4.89996 54.5 5.5V17.5C54.5 17.9844 54.2661 18.439 53.8719 18.7206L47.5 23.2719V47.8787L52.0607 52.4393C52.342 52.7206 52.5 53.1022 52.5 53.5V60H54C54.8284 60 55.5 60.6716 55.5 61.5V69.5C55.5 70.3284 54.8284 71 54 71H2C1.17157 71 0.5 70.3284 0.5 69.5V61.5C0.5 60.6716 1.17157 60 2 60H3.5V53.5C3.5 53.1022 3.65804 52.7206 3.93934 52.4393L8.5 47.8787V23.2719L2.12814 18.7206C1.73395 18.439 1.5 17.9844 1.5 17.5V5.5C1.5 4.90722 1.8491 4.37003 2.39079 4.12928L3 5.5C2.39079 4.12928 2.39052 4.12941 2.39079 4.12928L2.39355 4.12806L2.39797 4.12611L2.41172 4.12007L2.45863 4.09972C2.49843 4.08258 2.55514 4.05844 2.6279 4.02817C2.77339 3.96764 2.98325 3.88249 3.25059 3.77967C3.78495 3.57415 4.55083 3.29727 5.4929 3.0049C7.37142 2.42192 9.9787 1.76848 12.8642 1.50616C13.2839 1.468 13.7003 1.60817 14.0115 1.89237C14.3227 2.17656 14.5 2.57856 14.5 3V6.31318L20 5.66613V2C20 1.28498 20.5047 0.669356 21.2058 0.529129L21.5 2C21.2058 0.529129 21.2056 0.529177 21.2058 0.529129L21.2081 0.528685L21.2112 0.528061L21.2202 0.526287L21.2492 0.520714C21.2734 0.516129 21.3071 0.509845 21.3502 0.502109C21.4364 0.486638 21.5601 0.465353 21.7192 0.440231C22.0374 0.389992 22.4977 0.324362 23.0844 0.259174C24.2573 0.128844 25.938 0 28 0C30.062 0 31.7427 0.128844 32.9156 0.259174C33.5023 0.324362 33.9626 0.389992 34.2808 0.440231C34.4399 0.465353 34.5636 0.486638 34.6498 0.502109C34.6929 0.509845 34.7266 0.516129 34.7508 0.520714L34.7798 0.526287L34.7888 0.528061L34.7919 0.528685L34.7942 0.529129C34.7944 0.529177 34.7942 0.529129 34.5 2ZM11.5 23.6911V47H44.5V23.6911C43.8657 23.5639 42.9373 23.4013 41.681 23.2374C38.8775 22.8717 34.4428 22.5 28 22.5C21.5572 22.5 17.1225 22.8717 14.319 23.2374C13.0627 23.4013 12.1343 23.5639 11.5 23.6911ZM45.691 20.8774L49.8133 17.9329C49.0614 17.7096 48.1293 17.463 47.0025 17.2149C43.145 16.3658 37.0041 15.5 28 15.5C18.9959 15.5 12.855 16.3658 8.99747 17.2149C7.87072 17.463 6.93863 17.7096 6.18674 17.9329L10.309 20.8774C10.4189 20.8526 10.5415 20.8258 10.6771 20.7974C11.3885 20.6485 12.4576 20.4548 13.931 20.2626C16.8775 19.8783 21.4428 19.5 28 19.5C34.5572 19.5 39.1225 19.8783 42.069 20.2626C43.5424 20.4548 44.6115 20.6485 45.3229 20.7974C45.4585 20.8258 45.5811 20.8526 45.691 20.8774ZM3.68378 18.8351L3.68203 18.836L3.6801 18.837C3.67965 18.8372 3.68087 18.8366 3.68378 18.8351ZM52.3162 18.8351L52.318 18.836L52.3198 18.8369C52.3194 18.8367 52.3182 18.8361 52.3162 18.8351ZM45.3787 50H10.6213L8.62132 52H47.3787L45.3787 50ZM49.5 55H6.5V60H49.5V55ZM52.5 63H3.5V68H52.5V63Z" fill="#42210B"/>
</svg>
