<svg width="72" height="72" viewBox="0 0 72 72" fill="none" xmlns="http://www.w3.org/2000/svg">
<path d="M44 21.6667C44 31.0756 36 41 36 41C36 41 28 31.0756 28 21.6667C28 16.3279 31.5817 12 36 12C40.4183 12 44 16.3279 44 21.6667Z" fill="#EFD5BB"/>
<path d="M33.5 23C33.1 18.6 35 15.8333 36 15C34.0001 15 29.9002 16.5 29.5002 22.5C29.1002 28.5 33.6668 34.6667 36 37C35.3334 34.1667 33.9 27.4 33.5 23Z" fill="white"/>
<path fill-rule="evenodd" clip-rule="evenodd" d="M37.3679 33.4223C39.2867 29.9135 41 25.6157 41 21.6667C41 17.4285 38.2551 15 36 15C33.7449 15 31 17.4285 31 21.6667C31 25.6157 32.7133 29.9135 34.6321 33.4223C35.0972 34.2727 35.5629 35.0563 36 35.7534C36.4371 35.0563 36.9028 34.2727 37.3679 33.4223ZM37.8292 38.4507C40.1906 34.8975 44 28.1593 44 21.6667C44 16.3279 40.4183 12 36 12C31.5817 12 28 16.3279 28 21.6667C28 28.1593 31.8094 34.8975 34.1708 38.4507C35.2315 40.0466 36 41 36 41C36 41 36.7685 40.0466 37.8292 38.4507Z" fill="#42210B"/>
<path d="M5.64906 24.9878C-2.74534 32.8023 4.65343 46.8864 14.6051 53L36 45.8698C36 24.9865 16.5944 14.7987 5.64906 24.9878Z" fill="#EFD5BB"/>
<path d="M6.91283 34.5265C4.97889 25.291 12.7147 23.241 16.0991 22.2148C13.1982 21.1871 3.04494 23.7517 2.07796 31.9635C1.17197 39.6574 8.36329 48.0402 13.1982 53L19 48.8953C14.9709 46.843 8.34171 41.3501 6.91283 34.5265Z" fill="white"/>
<path fill-rule="evenodd" clip-rule="evenodd" d="M24.1344 25.0484C18.3783 21.4541 11.5569 21.5368 6.67097 26.0851C3.07823 29.4297 2.73526 34.1715 4.64533 39.088C6.48359 43.8195 10.3369 48.4258 14.8065 51.3511L34.4817 44.794C34.1629 35.3835 29.6748 28.508 24.1344 25.0484ZM25.7234 22.5037C32.4132 26.6811 37.4998 34.9483 37.4998 45.8692V46.9504L14.4157 54.6436L13.8197 54.2775C8.58406 51.0611 4.01985 45.7621 1.84896 40.1744C-0.329655 34.5667 -0.174813 28.3593 4.62685 23.8893C10.6863 18.2485 19.0403 18.3306 25.7234 22.5037Z" fill="#42210B"/>
<path d="M66.3509 24.9878C74.7453 32.8023 67.3466 46.8864 57.3949 53L36 45.8698C36 24.9865 55.4056 14.7987 66.3509 24.9878Z" fill="#EFD5BB"/>
<path d="M65.0872 34.5265C67.0211 25.291 59.2853 23.241 55.9009 22.2148C58.8018 21.1871 68.9551 23.7517 69.922 31.9635C70.828 39.6574 63.6367 48.0402 58.8018 53L53 48.8953C57.0291 46.843 63.6583 41.3501 65.0872 34.5265Z" fill="#DCA898"/>
<path fill-rule="evenodd" clip-rule="evenodd" d="M47.8656 25.0484C53.6217 21.4541 60.4431 21.5368 65.329 26.0851C68.9218 29.4297 69.2647 34.1715 67.3547 39.088C65.5164 43.8195 61.6631 48.4258 57.1935 51.3511L37.5183 44.794C37.8371 35.3835 42.3252 28.508 47.8656 25.0484ZM46.2766 22.5037C39.5868 26.6811 34.5002 34.9483 34.5002 45.8692V46.9504L57.5843 54.6436L58.1803 54.2775C63.4159 51.0611 67.9802 45.7621 70.151 40.1744C72.3297 34.5667 72.1748 28.3593 67.3731 23.8893C61.3137 18.2485 52.9597 18.3306 46.2766 22.5037Z" fill="#42210B"/>
<path d="M15 58.5C15 55.1863 24.6259 52.5 36.5 52.5C48.3741 52.5 58 55.1863 58 58.5V52.5C58 49.1863 48.3741 46.5 36.5 46.5C24.6259 46.5 15 49.1863 15 52.5V58.5Z" fill="#EFD5BB"/>
<path d="M15 64.5C15 61.1863 24.6259 58.5 36.5 58.5C48.3741 58.5 58 61.1863 58 64.5V58.5C58 55.1863 48.3741 52.5 36.5 52.5C24.6259 52.5 15 55.1863 15 58.5V64.5Z" fill="#EFD5BB"/>
<path d="M36.5 70.5C48.3741 70.5 58 67.8137 58 64.5C58 61.1863 48.3741 58.5 36.5 58.5C24.6259 58.5 15 61.1863 15 64.5C15 67.8137 24.6259 70.5 36.5 70.5Z" fill="#EFD5BB"/>
<path d="M57 65C57 67.7614 47.598 70 36 70C24.402 70 15 67.7614 15 65C15 62.2386 24.402 60 36 60C47.598 60 57 62.2386 57 65Z" fill="#DCA898"/>
<path d="M16 50L22 49V61H16V50Z" fill="white"/>
<path d="M57 50L51 49V61H57V50Z" fill="#DCA898"/>
<path fill-rule="evenodd" clip-rule="evenodd" d="M17.5157 51.4166C16.552 52.0524 16.5 52.4495 16.5 52.5V54.5257C17.6919 53.8564 19.195 53.2867 20.894 52.8126C24.9497 51.6807 30.4667 51 36.5 51C42.5333 51 48.0503 51.6807 52.106 52.8126C53.805 53.2867 55.3081 53.8564 56.5 54.5257V52.5C56.5 52.4495 56.448 52.0524 55.4843 51.4166C54.5803 50.8201 53.173 50.225 51.2996 49.7022C47.5738 48.6624 42.3408 48 36.5 48C30.6592 48 25.4262 48.6624 21.7004 49.7022C19.827 50.225 18.4197 50.8201 17.5157 51.4166ZM56.5 58.5C56.5 58.4495 56.448 58.0524 55.4843 57.4166C54.5803 56.8201 53.173 56.225 51.2996 55.7022C47.5738 54.6624 42.3408 54 36.5 54C30.6592 54 25.4262 54.6624 21.7004 55.7022C19.827 56.225 18.4197 56.8201 17.5157 57.4166C16.552 58.0524 16.5 58.4495 16.5 58.5V60.5257C17.6919 59.8564 19.195 59.2867 20.894 58.8126C24.9497 57.6807 30.4667 57 36.5 57C42.5333 57 48.0503 57.6807 52.106 58.8126C53.805 59.2867 55.3081 59.8564 56.5 60.5257V58.5ZM56.5 64.5C56.5 64.4495 56.448 64.0524 55.4843 63.4166C54.5803 62.8201 53.173 62.225 51.2996 61.7022C47.5738 60.6624 42.3408 60 36.5 60C30.6592 60 25.4262 60.6624 21.7004 61.7022C19.827 62.225 18.4197 62.8201 17.5157 63.4166C16.552 64.0524 16.5 64.4495 16.5 64.5C16.5 64.5505 16.552 64.9476 17.5157 65.5834C18.4197 66.1799 19.827 66.775 21.7004 67.2978C25.4262 68.3376 30.6592 69 36.5 69C42.3408 69 47.5738 68.3376 51.2996 67.2978C53.173 66.775 54.5803 66.1799 55.4843 65.5834C56.448 64.9476 56.5 64.5505 56.5 64.5ZM13.5 64.5C13.5 66.1064 14.6512 67.2877 15.8635 68.0875C17.1353 68.9267 18.8767 69.6245 20.894 70.1874C24.9497 71.3193 30.4667 72 36.5 72C42.5333 72 48.0503 71.3193 52.106 70.1874C54.1233 69.6245 55.8647 68.9267 57.1365 68.0875C58.3488 67.2877 59.5 66.1064 59.5 64.5V52.5C59.5 50.8936 58.3488 49.7123 57.1365 48.9125C55.8647 48.0733 54.1233 47.3755 52.106 46.8126C48.0503 45.6807 42.5333 45 36.5 45C30.4667 45 24.9497 45.6807 20.894 46.8126C18.8767 47.3755 17.1353 48.0733 15.8635 48.9125C14.6512 49.7123 13.5 50.8936 13.5 52.5V64.5Z" fill="#42210B"/>
<path d="M34 0H38V14H34V0Z" fill="#42210B"/>
<path d="M29 8L29 4L43 4L43 8L29 8Z" fill="#42210B"/>
</svg>
