<svg width="78" height="74" viewBox="0 0 78 74" fill="none" xmlns="http://www.w3.org/2000/svg">
<path d="M32.5 39.191C34.4313 39.0659 36.4392 39 38.5 39C40.919 39 43.265 39.0909 45.5 39.2615L38.5 5.5L32.5 39.191Z" fill="#EFD5BB"/>
<path d="M20.5 9.5V40.9517C23.8795 40.0998 27.9802 39.4836 32.5 39.191L20.5 9.5Z" fill="#EFD5BB"/>
<path d="M5.5 17.5L11 47C11 44.5842 14.6808 42.4185 20.5 40.9517L5.5 17.5Z" fill="#EFD5BB"/>
<path d="M56.5 9.5L45.5 39.2615C49.8471 39.5934 53.7739 40.227 57 41.0808L56.5 9.5Z" fill="#EFD5BB"/>
<path d="M57 41.0808C62.5292 42.5441 66 44.6542 66 47L72.5 17.5L57 41.0808Z" fill="#EFD5BB"/>
<path d="M17 55C17 51.6863 26.6259 49 38.5 49C50.3741 49 60 51.6863 60 55C62.7687 53.6157 66 50.3692 66 47C66 44.6542 62.5292 42.5441 57 41.0808C53.7739 40.227 49.8471 39.5934 45.5 39.2615C43.265 39.0909 40.919 39 38.5 39C36.4392 39 34.4313 39.0659 32.5 39.191C27.9802 39.4836 23.8795 40.0998 20.5 40.9517C14.6808 42.4185 11 44.5842 11 47C11 49.7848 14.5 53.5 17 55Z" fill="#EFD5BB"/>
<path d="M17 61C17 57.6863 26.6259 55 38.5 55C50.3741 55 60 57.6863 60 61V55C60 51.6863 50.3741 49 38.5 49C26.6259 49 17 51.6863 17 55V61Z" fill="#EFD5BB"/>
<path d="M17 67C17 63.6863 26.6259 61 38.5 61C50.3741 61 60 63.6863 60 67V61C60 57.6863 50.3741 55 38.5 55C26.6259 55 17 57.6863 17 61V67Z" fill="#EFD5BB"/>
<path d="M38.5 73C50.3741 73 60 70.3137 60 67C60 63.6863 50.3741 61 38.5 61C26.6259 61 17 63.6863 17 67C17 70.3137 26.6259 73 38.5 73Z" fill="#EFD5BB"/>
<path d="M59 67C59 69.7614 49.598 72 38 72C26.402 72 17 69.7614 17 67C17 64.2386 26.402 62 38 62C49.598 62 59 64.2386 59 67Z" fill="#DCA898"/>
<path d="M14.6744 54L27 48.5C27 48.5 18 48.5 16 44L9.5 25L7 23L10.267 44.8065L14.6744 54Z" fill="white"/>
<path d="M62.3256 54L50 48.5C50 48.5 59 48.5 61 44L67.5 25L70 23L66.733 44.8065L62.3256 54Z" fill="#DCA898"/>
<path d="M18 52L24 51V63H18V52Z" fill="white"/>
<path d="M59 52L53 51V63H59V52Z" fill="#DCA898"/>
<path fill-rule="evenodd" clip-rule="evenodd" d="M38.4788 4.00015C39.1978 3.99008 39.8228 4.48796 39.9687 5.18699L45.9066 33.6229L55.0929 8.94466C55.3433 8.27218 56.0406 7.87222 56.7523 7.99288C57.4641 8.11353 57.9883 8.72057 57.9997 9.43742L58.4226 35.9573L71.2464 16.5862C71.6438 15.9859 72.4162 15.7528 73.0828 16.032C73.7495 16.3112 74.1204 17.0232 73.9647 17.7247L67.4977 46.8671C67.4447 48.9419 66.4421 50.8452 65.1976 52.3507C64.134 53.6372 62.8126 54.7346 61.4999 55.5173V66.5532C61.4999 68.1481 60.3486 69.3211 59.1364 70.1152C57.8646 70.9484 56.1232 71.6413 54.1059 72.2003C50.0503 73.3241 44.5333 74 38.5 74C32.4667 74 26.9497 73.3241 22.8941 72.2003C20.8767 71.6413 19.1354 70.9484 17.8636 70.1152C16.6513 69.3211 15.5001 68.1481 15.5001 66.5532V55.4444C14.274 54.5917 12.9661 53.3915 11.8975 52.0831C10.6912 50.606 9.56068 48.713 9.50247 46.8452L4.02555 17.6772C3.89398 16.9765 4.28085 16.2815 4.94838 16.0193C5.61591 15.7571 6.37696 16.0013 6.76376 16.6018L19.0001 35.597V9.46099C19.0001 8.74805 19.5089 8.13509 20.2138 7.99901C20.9186 7.86294 21.6217 8.24191 21.8908 8.90291L31.9373 33.5843L37.0232 5.22823C37.1493 4.52539 37.7599 4.01022 38.4788 4.00015ZM30.341 37.6119L22.0001 17.1207V38.8164C24.5134 38.2868 27.3256 37.8773 30.341 37.6119ZM18.1427 39.7941L8.38627 24.6487L11.7868 42.7587C12.1007 42.5141 12.4331 42.2863 12.7746 42.075C14.185 41.2023 16.015 40.4396 18.1427 39.7941ZM34.3086 37.3526L38.6118 13.3607L43.6312 37.3982C41.9667 37.309 40.2517 37.2624 38.5 37.2624C37.0761 37.2624 35.6765 37.2932 34.3086 37.3526ZM47.5877 37.6988C50.4381 37.9817 53.0936 38.3949 55.4694 38.9174L55.127 17.4451L47.5877 37.6988ZM59.3675 39.953C61.3536 40.5877 63.063 41.3302 64.3853 42.1756C64.7084 42.3821 65.0224 42.6042 65.3189 42.8422L69.2843 24.9731L59.3675 39.953ZM16.3789 52.3637C16.7979 51.8571 17.3247 51.4293 17.8636 51.0762C19.1354 50.243 20.8767 49.5502 22.8941 48.9912C26.9497 47.8674 32.4667 47.1915 38.5 47.1915C44.5333 47.1915 50.0503 47.8674 54.1059 48.9912C56.1232 49.5502 57.8646 50.243 59.1364 51.0762C59.713 51.454 60.2758 51.9174 60.7075 52.4712C61.4807 51.9193 62.2411 51.2321 62.8787 50.4608C63.9077 49.2161 64.4999 47.8988 64.4999 46.695C64.4999 46.3165 64.1997 45.5996 62.7613 44.6801C61.3882 43.8023 59.3065 42.9646 56.6161 42.2576C53.4963 41.4378 49.6624 40.8206 45.3858 40.4964C43.1896 40.33 40.8817 40.2411 38.5 40.2411C36.471 40.2411 34.4955 40.3056 32.5969 40.4276C28.1488 40.7136 24.1407 41.3143 20.8667 42.1338C18.031 42.8435 15.8232 43.6984 14.3612 44.603C12.824 45.5542 12.5001 46.3032 12.5001 46.695C12.5001 47.544 13.0914 48.8157 14.2277 50.207C14.8847 51.0115 15.6431 51.757 16.3789 52.3637ZM18.5001 56.6497V54.6383C18.5001 54.5882 18.5521 54.1939 19.5157 53.5625C20.4198 52.9703 21.8271 52.3794 23.7005 51.8603C27.4262 50.8279 32.6592 50.1702 38.5 50.1702C44.3408 50.1702 49.5737 50.8279 53.2995 51.8603C55.1729 52.3794 56.5802 52.9703 57.4842 53.5625C58.4479 54.1939 58.4999 54.5882 58.4999 54.6383V56.6496C57.308 55.9851 55.8049 55.4194 54.1059 54.9486C50.0503 53.8249 44.5333 53.1489 38.5 53.1489C32.4667 53.1489 26.9497 53.8249 22.8941 54.9486C21.1951 55.4194 19.6919 55.9851 18.5001 56.6497ZM58.4999 60.5957C58.4999 60.5456 58.4479 60.1513 57.4842 59.52C56.5802 58.9277 55.1729 58.3368 53.2995 57.8177C49.5737 56.7854 44.3408 56.1277 38.5 56.1277C32.6592 56.1277 27.4262 56.7854 23.7005 57.8177C21.8271 58.3368 20.4198 58.9277 19.5157 59.52C18.5521 60.1513 18.5001 60.5456 18.5001 60.5957V62.6071C19.6919 61.9426 21.1951 61.3769 22.8941 60.9061C26.9497 59.7823 32.4667 59.1064 38.5 59.1064C44.5333 59.1064 50.0503 59.7823 54.1059 60.9061C55.8049 61.3769 57.308 61.9426 58.4999 62.6071V60.5957ZM58.4999 66.5532C58.4999 66.503 58.4479 66.1087 57.4842 65.4774C56.5802 64.8852 55.1729 64.2943 53.2995 63.7752C49.5737 62.7428 44.3408 62.0851 38.5 62.0851C32.6592 62.0851 27.4262 62.7428 23.7005 63.7752C21.8271 64.2943 20.4198 64.8852 19.5157 65.4774C18.5521 66.1087 18.5001 66.503 18.5001 66.5532C18.5001 66.6033 18.5521 66.9976 19.5157 67.629C20.4198 68.2212 21.8271 68.8121 23.7005 69.3312C27.4262 70.3636 32.6592 71.0213 38.5 71.0213C44.3408 71.0213 49.5737 70.3636 53.2995 69.3312C55.1729 68.8121 56.5802 68.2212 57.4842 67.629C58.4479 66.9976 58.4999 66.6033 58.4999 66.5532Z" fill="#42210B"/>
<path d="M11 17.5C11 20.5376 8.53757 23 5.5 23C2.46243 23 0 20.5376 0 17.5C0 14.4624 2.46243 12 5.5 12C8.53757 12 11 14.4624 11 17.5Z" fill="#EFD5BB"/>
<path d="M5.5 20C4.11929 20 3 18.8807 3 17.5C3 16.1193 4.11929 15 5.5 15C5.5 15 4.5 15.7143 4.5 17.5C4.5 19.2857 5.5 20 5.5 20Z" fill="white"/>
<path fill-rule="evenodd" clip-rule="evenodd" d="M5.5 20C6.88071 20 8 18.8807 8 17.5C8 16.1193 6.88071 15 5.5 15C4.11929 15 3 16.1193 3 17.5C3 18.8807 4.11929 20 5.5 20ZM5.5 23C8.53757 23 11 20.5376 11 17.5C11 14.4624 8.53757 12 5.5 12C2.46243 12 0 14.4624 0 17.5C0 20.5376 2.46243 23 5.5 23Z" fill="#42210B"/>
<path d="M26 9.5C26 12.5376 23.5376 15 20.5 15C17.4624 15 15 12.5376 15 9.5C15 6.46243 17.4624 4 20.5 4C23.5376 4 26 6.46243 26 9.5Z" fill="#EFD5BB"/>
<path d="M20.5 12C19.1193 12 18 10.8807 18 9.5C18 8.11929 19.1193 7 20.5 7C20.5 7 19.5 7.71429 19.5 9.5C19.5 11.2857 20.5 12 20.5 12Z" fill="white"/>
<path fill-rule="evenodd" clip-rule="evenodd" d="M20.5 12C21.8807 12 23 10.8807 23 9.5C23 8.11929 21.8807 7 20.5 7C19.1193 7 18 8.11929 18 9.5C18 10.8807 19.1193 12 20.5 12ZM20.5 15C23.5376 15 26 12.5376 26 9.5C26 6.46243 23.5376 4 20.5 4C17.4624 4 15 6.46243 15 9.5C15 12.5376 17.4624 15 20.5 15Z" fill="#42210B"/>
<path d="M44 5.5C44 8.53757 41.5376 11 38.5 11C35.4624 11 33 8.53757 33 5.5C33 2.46243 35.4624 0 38.5 0C41.5376 0 44 2.46243 44 5.5Z" fill="#EFD5BB"/>
<path fill-rule="evenodd" clip-rule="evenodd" d="M38.5 8C39.8807 8 41 6.88071 41 5.5C41 4.11929 39.8807 3 38.5 3C37.1193 3 36 4.11929 36 5.5C36 6.88071 37.1193 8 38.5 8ZM38.5 11C41.5376 11 44 8.53757 44 5.5C44 2.46243 41.5376 0 38.5 0C35.4624 0 33 2.46243 33 5.5C33 8.53757 35.4624 11 38.5 11Z" fill="#42210B"/>
<path d="M62 9.5C62 12.5376 59.5376 15 56.5 15C53.4624 15 51 12.5376 51 9.5C51 6.46243 53.4624 4 56.5 4C59.5376 4 62 6.46243 62 9.5Z" fill="#EFD5BB"/>
<path d="M56.5 7C57.8807 7 59 8.11929 59 9.5C59 10.8807 57.8807 12 56.5 12C56.5 12 57.5 11.2857 57.5 9.5C57.5 7.71429 56.5 7 56.5 7Z" fill="#DCA898"/>
<path fill-rule="evenodd" clip-rule="evenodd" d="M56.5 12C57.8807 12 59 10.8807 59 9.5C59 8.11929 57.8807 7 56.5 7C55.1193 7 54 8.11929 54 9.5C54 10.8807 55.1193 12 56.5 12ZM56.5 15C59.5376 15 62 12.5376 62 9.5C62 6.46243 59.5376 4 56.5 4C53.4624 4 51 6.46243 51 9.5C51 12.5376 53.4624 15 56.5 15Z" fill="#42210B"/>
<path d="M78 17.5C78 20.5376 75.5376 23 72.5 23C69.4624 23 67 20.5376 67 17.5C67 14.4624 69.4624 12 72.5 12C75.5376 12 78 14.4624 78 17.5Z" fill="#EFD5BB"/>
<path d="M72.5 15C73.8807 15 75 16.1193 75 17.5C75 18.8807 73.8807 20 72.5 20C72.5 20 73.5 19.2857 73.5 17.5C73.5 15.7143 72.5 15 72.5 15Z" fill="#DCA898"/>
<path fill-rule="evenodd" clip-rule="evenodd" d="M72.5 20C73.8807 20 75 18.8807 75 17.5C75 16.1193 73.8807 15 72.5 15C71.1193 15 70 16.1193 70 17.5C70 18.8807 71.1193 20 72.5 20ZM72.5 23C75.5376 23 78 20.5376 78 17.5C78 14.4624 75.5376 12 72.5 12C69.4624 12 67 14.4624 67 17.5C67 20.5376 69.4624 23 72.5 23Z" fill="#42210B"/>
</svg>
