<svg width="70" height="73" viewBox="0 0 70 73" fill="none" xmlns="http://www.w3.org/2000/svg">
<path fill-rule="evenodd" clip-rule="evenodd" d="M27.9759 0.347685C27.3624 -0.163601 26.4558 -0.104487 25.9139 0.482146L25.9129 0.483177L25.9117 0.48451L25.9084 0.488076L25.8986 0.498785L25.8665 0.534295C25.8396 0.564145 25.8021 0.606273 25.7551 0.660002C25.6613 0.767411 25.5295 0.921486 25.3698 1.1168C25.0508 1.50676 24.6175 2.06485 24.151 2.74742C23.5083 3.68778 22.7766 4.90217 22.2021 6.2662C21.9311 6.10849 21.633 5.93712 21.3138 5.75667C19.8577 4.93368 17.9279 3.90294 16.1041 3.1213C15.3639 2.8041 14.5054 3.12787 14.159 3.8548L15.5132 4.50002C14.159 3.8548 14.1583 3.85624 14.1583 3.85624L14.1576 3.85787L14.1558 3.86167L14.1512 3.87148L14.1381 3.89985C14.1277 3.92265 14.1139 3.9532 14.0973 3.99139C14.0639 4.06778 14.0187 4.17478 13.9645 4.31155C13.8562 4.58505 13.712 4.97784 13.5549 5.48315C13.2407 6.49367 12.8746 7.95539 12.6418 9.81354C12.4075 11.6837 12.4083 13.4102 12.4662 14.6646C12.4859 15.0922 12.5124 15.4675 12.5389 15.7778C10.3239 17.3298 7.11003 20.7774 7.11003 25.8321C7.11003 30.5772 5.40403 33.236 3.47197 36.247C3.06325 36.884 2.64442 37.5367 2.22948 38.2283C0.590799 40.9595 -0.125202 43.8794 0.0178234 46.4581C0.159504 49.0126 1.16905 51.4054 3.18215 52.748C5.02326 53.9758 7.34638 54.9301 9.7179 54.5852C10.5589 55.0811 11.7661 55.6415 13.0803 55.7223C13.9313 55.7747 14.8601 55.6275 15.7392 55.1057C16.6162 54.5851 17.3277 53.7607 17.8636 52.6535C19.4613 49.3525 20.9344 47.6782 23.0963 46.1037C24.2195 45.2857 25.5392 44.488 27.2141 43.5041C27.4887 43.3428 27.7722 43.1768 28.0649 43.0055C28.9295 42.4994 29.8743 41.9463 30.9073 41.3269C30.7291 43.8189 30.1551 45.6994 29.3812 47.2648C28.3968 49.2562 27.0638 50.8048 25.5496 52.5641C25.4501 52.6797 25.3498 52.7962 25.2488 52.9138C23.6343 54.7934 21.8885 56.8968 20.5731 59.8249C19.2524 62.765 18.4016 66.4488 18.4016 71.5C18.4016 71.8978 18.5596 72.2794 18.8409 72.5607C19.1222 72.842 19.5037 73 19.9016 73H67.326C68.0519 73 68.6736 72.4802 68.8022 71.7657C69.5787 67.4523 70.1499 60.1758 69.3836 52.211C68.6183 44.2557 66.5059 35.479 61.8074 28.2747C52.9968 14.7651 41.2491 10.1251 35.4485 9.36976C33.4305 5.27726 30.8809 2.76848 27.9759 0.347685ZM33.0893 11.3969C31.5233 7.9482 29.5845 5.74058 27.205 3.63665C27.1196 3.72618 27.0362 3.81757 26.9547 3.91072C23.9737 7.31694 23.5 13.0665 23.5 15.5C23.5 17.5 20.5 17.5 20.5 15.5C20.5 15.5 20.5 13.1927 21.0275 10.4028C21.1015 10.0114 21.1859 9.61059 21.2821 9.20529C21.2821 9.20529 20.3988 8.68556 19.8376 8.36836C18.8206 7.79352 17.5974 7.13274 16.3688 6.54002C16.1124 7.39503 15.8142 8.62486 15.6185 10.1865C15.4113 11.8403 15.4105 13.3878 15.463 14.5264C15.4891 15.0935 15.5283 15.5538 15.5603 15.8684C15.5763 16.0256 15.5905 16.146 15.6004 16.2249C15.6053 16.2643 15.6092 16.2933 15.6116 16.3112L15.6145 16.3317C15.7049 16.9526 15.3993 17.5643 14.8484 17.8648C13.2763 18.7224 10.11 21.5694 10.11 25.8321C10.11 31.5217 7.89042 34.954 5.91194 38.0134C5.52676 38.609 5.15073 39.1905 4.80198 39.7717C3.44077 42.0405 2.90666 44.3707 3.01322 46.292C3.12113 48.2375 3.86087 49.5946 4.84667 50.2521C6.55576 51.3919 8.2462 51.8956 9.64951 51.5448C10.0595 51.4423 10.4937 51.5175 10.8454 51.7519C11.5386 52.2141 12.4533 52.6781 13.2645 52.728C13.6332 52.7507 13.9393 52.6854 14.2079 52.5259C14.4787 52.3652 14.8279 52.0395 15.1633 51.3465C16.9537 47.6475 18.7306 45.5719 21.3302 43.6786C22.5878 42.7628 24.0267 41.8972 25.6946 40.9174C25.9721 40.7544 26.2566 40.5878 26.5489 40.4167C26.5512 40.4154 26.5535 40.414 26.5559 40.4126L26.5569 40.412C28.0083 39.5623 29.6493 38.6017 31.5551 37.4178C32.8369 36.2953 33.6486 35.0337 34.0604 33.552C34.4874 32.0158 34.5125 30.1412 34.0431 27.7942C33.8806 26.9819 34.4074 26.1916 35.2197 26.0291C36.0321 25.8667 36.8223 26.3935 36.9848 27.2058C37.5154 29.8588 37.5404 32.2342 36.9508 34.3554C36.4189 36.2692 35.4091 37.8938 33.9632 39.2794C34.0111 43.2299 33.2733 46.1613 32.0706 48.5943C30.9111 50.9397 29.3415 52.7604 27.8682 54.4694C27.753 54.603 27.6384 54.736 27.5245 54.8685C25.9319 56.7228 24.4351 58.5488 23.3097 61.0542C22.313 63.2731 21.5791 66.0942 21.4296 70H66.0522C66.6732 65.8453 67.0664 59.4515 66.3974 52.4983C65.6572 44.8044 63.6293 36.5601 59.2946 29.9135C50.5178 16.4557 38.8168 12.5759 34.3536 12.2733C33.803 12.236 33.3174 11.8994 33.0893 11.3969Z" fill="#42210B"/>
<path fill-rule="evenodd" clip-rule="evenodd" d="M25.9139 0.482146C26.4558 -0.104487 27.3624 -0.163601 27.9759 0.347685C30.8809 2.76848 33.4305 5.27726 35.4485 9.36976C41.2491 10.1251 52.9968 14.7651 61.8074 28.2747C66.5059 35.479 68.6183 44.2557 69.3836 52.211C70.1499 60.1758 69.5787 67.4523 68.8022 71.7657C68.6736 72.4802 68.0519 73 67.326 73H19.9016C19.5037 73 19.1222 72.842 18.8409 72.5607C18.5596 72.2794 18.4016 71.8978 18.4016 71.5C18.4016 66.4488 19.2524 62.765 20.5731 59.8249C21.8885 56.8968 23.6343 54.7934 25.2488 52.9138C25.3498 52.7962 25.4501 52.6797 25.5496 52.5641C27.0638 50.8048 28.3968 49.2562 29.3812 47.2648C30.1551 45.6994 30.7291 43.8189 30.9073 41.3269C29.8743 41.9463 28.9295 42.4994 28.0649 43.0055C27.7722 43.1768 27.4887 43.3428 27.2141 43.5041C25.5392 44.488 24.2195 45.2857 23.0963 46.1037C20.9344 47.6782 19.4613 49.3525 17.8636 52.6535C17.3277 53.7607 16.6162 54.5851 15.7392 55.1057C14.8601 55.6275 13.9313 55.7747 13.0803 55.7223C11.7661 55.6415 10.5589 55.0811 9.7179 54.5852C7.34638 54.9301 5.02326 53.9758 3.18215 52.748C1.16905 51.4054 0.159504 49.0126 0.0178234 46.4581C-0.125202 43.8794 0.590799 40.9595 2.22948 38.2283C2.64442 37.5367 3.06325 36.884 3.47197 36.247C5.40403 33.236 7.11003 30.5772 7.11003 25.8321C7.11003 20.7774 10.3239 17.3298 12.5389 15.7778C12.5124 15.4675 12.4859 15.0922 12.4662 14.6646C12.4083 13.4102 12.4075 11.6837 12.6418 9.81354C12.8746 7.95539 13.2407 6.49367 13.5549 5.48315C13.712 4.97784 13.8562 4.58505 13.9645 4.31155C14.0187 4.17478 14.0639 4.06778 14.0973 3.99139C14.1139 3.9532 14.1277 3.92265 14.1381 3.89985L14.1512 3.87148L14.1558 3.86167L14.1576 3.85787L14.1583 3.85624C14.1583 3.85624 14.159 3.8548 15.5132 4.50002L14.159 3.8548C14.5054 3.12787 15.3639 2.8041 16.1041 3.1213C17.9279 3.90294 19.8577 4.93368 21.3138 5.75667C21.633 5.93712 21.9311 6.10849 22.2021 6.2662C22.7766 4.90217 23.5083 3.68778 24.151 2.74742C24.6175 2.06485 25.0508 1.50676 25.3698 1.1168C25.5295 0.921486 25.6613 0.767411 25.7551 0.660002C25.8021 0.606273 25.8396 0.564145 25.8665 0.534295L25.8986 0.498785L25.9084 0.488076L25.9117 0.48451L25.9129 0.483177L25.9139 0.482146ZM33.0893 11.3969C31.5233 7.9482 29.5845 5.74058 27.205 3.63665C27.1196 3.72618 27.0362 3.81757 26.9547 3.91072C23.9737 7.31694 23.5 13.0665 23.5 15.5C23.5 17.5 20.5 17.5 20.5 15.5C20.5 15.5 20.5 13.1927 21.0275 10.4028C21.1015 10.0114 21.1859 9.61059 21.2821 9.20529C21.2821 9.20529 20.3988 8.68556 19.8376 8.36836C18.8206 7.79352 17.5974 7.13274 16.3688 6.54002C16.1124 7.39503 15.8142 8.62486 15.6185 10.1865C15.4113 11.8403 15.4105 13.3878 15.463 14.5264C15.4891 15.0935 15.5283 15.5538 15.5603 15.8684C15.5763 16.0256 15.5905 16.146 15.6004 16.2249C15.6053 16.2643 15.6092 16.2933 15.6116 16.3112L15.6145 16.3317C15.7049 16.9526 15.3993 17.5643 14.8484 17.8648C13.2763 18.7224 10.11 21.5694 10.11 25.8321C10.11 31.5217 7.89042 34.954 5.91194 38.0134C5.52676 38.609 5.15073 39.1905 4.80198 39.7717C3.44077 42.0405 2.90666 44.3707 3.01322 46.292C3.12113 48.2375 3.86087 49.5946 4.84667 50.2521C6.55576 51.3919 8.2462 51.8956 9.64951 51.5448C10.0595 51.4423 10.4937 51.5175 10.8454 51.7519C11.5386 52.2141 12.4533 52.6781 13.2645 52.728C13.6332 52.7507 13.9393 52.6854 14.2079 52.5259C14.4787 52.3652 14.8279 52.0395 15.1633 51.3465C16.9537 47.6475 18.7306 45.5719 21.3302 43.6786C22.5878 42.7628 24.0267 41.8972 25.6946 40.9174C25.9721 40.7544 26.2566 40.5878 26.5489 40.4167L26.5559 40.4126L26.5569 40.412C28.0083 39.5623 29.6493 38.6017 31.5551 37.4178C32.8369 36.2953 33.6486 35.0337 34.0604 33.552C34.4874 32.0158 34.5125 30.1412 34.0431 27.7942C33.8806 26.9819 34.4074 26.1916 35.2197 26.0291C36.0321 25.8667 36.8223 26.3935 36.9848 27.2058C37.5154 29.8588 37.5404 32.2342 36.9508 34.3554C36.4189 36.2692 35.4091 37.8938 33.9632 39.2794C34.0111 43.2299 33.2733 46.1613 32.0706 48.5943C30.9111 50.9397 29.3415 52.7604 27.8682 54.4694C27.753 54.603 27.6384 54.736 27.5245 54.8685C25.9319 56.7228 24.4351 58.5488 23.3097 61.0542C22.313 63.2731 21.5791 66.0942 21.4296 70H66.0522C66.6732 65.8453 67.0664 59.4515 66.3974 52.4983C65.6572 44.8044 63.6293 36.5601 59.2946 29.9135C50.5178 16.4557 38.8168 12.5759 34.3536 12.2733C33.803 12.236 33.3174 11.8994 33.0893 11.3969Z" fill="#42210B"/>
<path d="M27.205 3.63665C29.5845 5.74058 31.5233 7.9482 33.0893 11.3969C33.3174 11.8994 33.803 12.236 34.3536 12.2733C38.8168 12.5759 50.5178 16.4557 59.2946 29.9135C63.6293 36.5601 65.6572 44.8044 66.3974 52.4983C67.0664 59.4515 66.6732 65.8453 66.0522 70H21.4296C21.5791 66.0942 22.313 63.2731 23.3097 61.0542C24.4351 58.5488 25.9319 56.7228 27.5245 54.8685C27.6384 54.736 27.753 54.603 27.8682 54.4694C29.3415 52.7604 30.9111 50.9397 32.0706 48.5943C33.2733 46.1613 34.0111 43.2299 33.9632 39.2794C35.4091 37.8938 36.4189 36.2692 36.9508 34.3554C37.5404 32.2342 37.5154 29.8588 36.9848 27.2058C36.8223 26.3935 36.0321 25.8667 35.2197 26.0291C34.4074 26.1916 33.8806 26.9819 34.0431 27.7942C34.5125 30.1412 34.4874 32.0158 34.0604 33.552C33.6486 35.0337 32.8369 36.2953 31.5551 37.4178C29.6493 38.6017 28.0083 39.5623 26.5569 40.412L26.5559 40.4126L26.5489 40.4167C26.2566 40.5878 25.9721 40.7544 25.6946 40.9174C24.0267 41.8972 22.5878 42.7628 21.3302 43.6786C18.7306 45.5719 16.9537 47.6475 15.1633 51.3465C14.8279 52.0395 14.4787 52.3652 14.2079 52.5259C13.9393 52.6854 13.6332 52.7507 13.2645 52.728C12.4533 52.6781 11.5386 52.2141 10.8454 51.7519C10.4937 51.5175 10.0595 51.4423 9.64951 51.5448C8.2462 51.8956 6.55576 51.3919 4.84667 50.2521C3.86087 49.5946 3.12113 48.2375 3.01322 46.292C2.90666 44.3707 3.44077 42.0405 4.80198 39.7717C5.15073 39.1905 5.52676 38.609 5.91194 38.0134C7.89042 34.954 10.11 31.5217 10.11 25.8321C10.11 21.5694 13.2763 18.7224 14.8484 17.8648C15.3993 17.5643 15.7049 16.9526 15.6145 16.3317L15.6116 16.3112C15.6092 16.2933 15.6053 16.2643 15.6004 16.2249C15.5905 16.146 15.5763 16.0256 15.5603 15.8684C15.5283 15.5538 15.4891 15.0935 15.463 14.5264C15.4105 13.3878 15.4113 11.8403 15.6185 10.1865C15.8142 8.62486 16.1124 7.39503 16.3688 6.54002C17.5974 7.13274 18.8206 7.79352 19.8376 8.36836C20.3988 8.68556 21.2821 9.20529 21.2821 9.20529C21.1859 9.61059 21.1015 10.0114 21.0275 10.4028C20.5 13.1927 20.5 15.5 20.5 15.5C20.5 17.5 23.5 17.5 23.5 15.5C23.5 13.0665 23.9737 7.31694 26.9547 3.91072C27.0362 3.81757 27.1196 3.72618 27.205 3.63665Z" fill="#EFD5BB"/>
<path d="M66.5156 70.5H56.5156C56.5156 70.5 63.5156 60 58.0156 39C52.5156 18 33.5156 12 33.5156 12C33.5156 12 56.0156 15.5 63.5156 36.5C71.0156 57.5 66.5156 70.5 66.5156 70.5Z" fill="#DCA898"/>
<path d="M25.5161 55C31.5161 49.4 32.5152 44.4999 33.5156 38C38.0152 51.5 27.5156 59 28.5156 71.5H20.0161C19.3494 68.3333 19.5161 60.6 25.5161 55Z" fill="white"/>
<path d="M33.5162 23C29.0156 28 34.0162 36 21.5137 43.5C21.5137 43.5 24.6465 42.5642 32.5162 39C35.0162 36.5 41.0162 28.5 33.5162 23Z" fill="#DCA898"/>
<path d="M20.5156 15.5C20.5156 10.5 16.0156 5.5 16.0156 5.5L22.5156 8L23.0156 15.5H20.5156Z" fill="#DCA898"/>
<path d="M16.5156 11.5C16.5156 9.5 16.849 6.66667 17.0156 5.5L15.5156 6L15.0156 11L15.5156 17.5L17.5156 16.5C17.1823 15.6667 16.5156 13.5 16.5156 11.5Z" fill="white"/>
<path d="M25.5156 9C25.924 6.94163 26.7259 4.62465 27.2186 3.49173L26.5161 3.00095L23.7272 8.50302L23.0183 15.4938L25.0285 15.4938C24.945 14.5617 25.0028 11.5849 25.5156 9Z" fill="white"/>
<path d="M30.5156 12.5C30.5156 7.5 26.0156 2.5 26.0156 2.5L32.0156 6L35.5156 12L30.5156 12.5Z" fill="#DCA898"/>
<path d="M3.5185 39C6.7185 33.4 9.18517 26.3333 10.0185 23.5C16.0161 36.5 -0.984375 44.5 9.51569 52C3.01508 52 0.318503 44.6 3.5185 39Z" fill="white"/>
<path d="M15.431 27.7323C15.431 27.7323 15.651 25.8557 16.7481 24.8429C17.8452 23.8301 19.1759 23.6056 19.1759 23.6056" stroke="#42210B" stroke-width="3" stroke-linecap="round" stroke-linejoin="round"/>
<circle cx="17.2097" cy="26.7517" r="2.52917" transform="rotate(6.68608 17.2097 26.7517)" fill="#42210B"/>
<path fill-rule="evenodd" clip-rule="evenodd" d="M27.9759 0.347685C27.3624 -0.163601 26.4558 -0.104487 25.9139 0.482146L25.9129 0.483177L25.9117 0.48451L25.9084 0.488076L25.8986 0.498785L25.8665 0.534295C25.8396 0.564145 25.8021 0.606273 25.7551 0.660002C25.6613 0.767411 25.5295 0.921486 25.3698 1.1168C25.0508 1.50676 24.6175 2.06485 24.151 2.74742C23.5083 3.68778 22.7766 4.90217 22.2021 6.2662C21.9311 6.10849 21.633 5.93712 21.3138 5.75667C19.8577 4.93368 17.9279 3.90294 16.1041 3.1213C15.3639 2.8041 14.5054 3.12787 14.159 3.8548L15.5132 4.50002C14.159 3.8548 14.1583 3.85624 14.1583 3.85624L14.1576 3.85787L14.1558 3.86167L14.1512 3.87148L14.1381 3.89985C14.1277 3.92265 14.1139 3.9532 14.0973 3.99139C14.0639 4.06778 14.0187 4.17478 13.9645 4.31155C13.8562 4.58505 13.712 4.97784 13.5549 5.48315C13.2407 6.49367 12.8746 7.95539 12.6418 9.81354C12.4075 11.6837 12.4083 13.4102 12.4662 14.6646C12.4859 15.0922 12.5124 15.4675 12.5389 15.7778C10.3239 17.3298 7.11003 20.7774 7.11003 25.8321C7.11003 30.5772 5.40403 33.236 3.47197 36.247C3.06325 36.884 2.64442 37.5367 2.22948 38.2283C0.590799 40.9595 -0.125202 43.8794 0.0178234 46.4581C0.159504 49.0126 1.16905 51.4054 3.18215 52.748C5.02326 53.9758 7.34638 54.9301 9.7179 54.5852C10.5589 55.0811 11.7661 55.6415 13.0803 55.7223C13.9313 55.7747 14.8601 55.6275 15.7392 55.1057C16.6162 54.5851 17.3277 53.7607 17.8636 52.6535C19.4613 49.3525 20.9344 47.6782 23.0963 46.1037C24.2195 45.2857 25.5392 44.488 27.2141 43.5041C27.4887 43.3428 27.7722 43.1768 28.0649 43.0055C28.9295 42.4994 29.8743 41.9463 30.9073 41.3269C30.7291 43.8189 30.1551 45.6994 29.3812 47.2648C28.3968 49.2562 27.0638 50.8048 25.5496 52.5641C25.4501 52.6797 25.3498 52.7962 25.2488 52.9138C23.6343 54.7934 21.8885 56.8968 20.5731 59.8249C19.2524 62.765 18.4016 66.4488 18.4016 71.5C18.4016 71.8978 18.5596 72.2794 18.8409 72.5607C19.1222 72.842 19.5037 73 19.9016 73H67.326C68.0519 73 68.6736 72.4802 68.8022 71.7657C69.5787 67.4523 70.1499 60.1758 69.3836 52.211C68.6183 44.2557 66.5059 35.479 61.8074 28.2747C52.9968 14.7651 41.2491 10.1251 35.4485 9.36976C33.4305 5.27726 30.8809 2.76848 27.9759 0.347685ZM33.0893 11.3969C31.5233 7.9482 29.5845 5.74058 27.205 3.63665C27.1196 3.72618 27.0362 3.81757 26.9547 3.91072C23.9737 7.31694 23.5 13.0665 23.5 15.5C23.5 17.5 20.5 17.5 20.5 15.5C20.5 15.5 20.5 13.1927 21.0275 10.4028C21.1015 10.0114 21.1859 9.61059 21.2821 9.20529C21.2821 9.20529 20.3988 8.68556 19.8376 8.36836C18.8206 7.79352 17.5974 7.13274 16.3688 6.54002C16.1124 7.39503 15.8142 8.62486 15.6185 10.1865C15.4113 11.8403 15.4105 13.3878 15.463 14.5264C15.4891 15.0935 15.5283 15.5538 15.5603 15.8684C15.5763 16.0256 15.5905 16.146 15.6004 16.2249C15.6053 16.2643 15.6092 16.2933 15.6116 16.3112L15.6145 16.3317C15.7049 16.9526 15.3993 17.5643 14.8484 17.8648C13.2763 18.7224 10.11 21.5694 10.11 25.8321C10.11 31.5217 7.89042 34.954 5.91194 38.0134C5.52676 38.609 5.15073 39.1905 4.80198 39.7717C3.44077 42.0405 2.90666 44.3707 3.01322 46.292C3.12113 48.2375 3.86087 49.5946 4.84667 50.2521C6.55576 51.3919 8.2462 51.8956 9.64951 51.5448C10.0595 51.4423 10.4937 51.5175 10.8454 51.7519C11.5386 52.2141 12.4533 52.6781 13.2645 52.728C13.6332 52.7507 13.9393 52.6854 14.2079 52.5259C14.4787 52.3652 14.8279 52.0395 15.1633 51.3465C16.9537 47.6475 18.7306 45.5719 21.3302 43.6786C22.5878 42.7628 24.0267 41.8972 25.6946 40.9174C25.9721 40.7544 26.2566 40.5878 26.5489 40.4167C26.5512 40.4154 26.5535 40.414 26.5559 40.4126L26.5569 40.412C28.0083 39.5623 29.6493 38.6017 31.5551 37.4178C32.8369 36.2953 33.6486 35.0337 34.0604 33.552C34.4874 32.0158 34.5125 30.1412 34.0431 27.7942C33.8806 26.9819 34.4074 26.1916 35.2197 26.0291C36.0321 25.8667 36.8223 26.3935 36.9848 27.2058C37.5154 29.8588 37.5404 32.2342 36.9508 34.3554C36.4189 36.2692 35.4091 37.8938 33.9632 39.2794C34.0111 43.2299 33.2733 46.1613 32.0706 48.5943C30.9111 50.9397 29.3415 52.7604 27.8682 54.4694C27.753 54.603 27.6384 54.736 27.5245 54.8685C25.9319 56.7228 24.4351 58.5488 23.3097 61.0542C22.313 63.2731 21.5791 66.0942 21.4296 70H66.0522C66.6732 65.8453 67.0664 59.4515 66.3974 52.4983C65.6572 44.8044 63.6293 36.5601 59.2946 29.9135C50.5178 16.4557 38.8168 12.5759 34.3536 12.2733C33.803 12.236 33.3174 11.8994 33.0893 11.3969Z" fill="#42210B"/>
<path fill-rule="evenodd" clip-rule="evenodd" d="M25.9139 0.482146C26.4558 -0.104487 27.3624 -0.163601 27.9759 0.347685C30.8809 2.76848 33.4305 5.27726 35.4485 9.36976C41.2491 10.1251 52.9968 14.7651 61.8074 28.2747C66.5059 35.479 68.6183 44.2557 69.3836 52.211C70.1499 60.1758 69.5787 67.4523 68.8022 71.7657C68.6736 72.4802 68.0519 73 67.326 73H19.9016C19.5037 73 19.1222 72.842 18.8409 72.5607C18.5596 72.2794 18.4016 71.8978 18.4016 71.5C18.4016 66.4488 19.2524 62.765 20.5731 59.8249C21.8885 56.8968 23.6343 54.7934 25.2488 52.9138C25.3498 52.7962 25.4501 52.6797 25.5496 52.5641C27.0638 50.8048 28.3968 49.2562 29.3812 47.2648C30.1551 45.6994 30.7291 43.8189 30.9073 41.3269C29.8743 41.9463 28.9295 42.4994 28.0649 43.0055C27.7722 43.1768 27.4887 43.3428 27.2141 43.5041C25.5392 44.488 24.2195 45.2857 23.0963 46.1037C20.9344 47.6782 19.4613 49.3525 17.8636 52.6535C17.3277 53.7607 16.6162 54.5851 15.7392 55.1057C14.8601 55.6275 13.9313 55.7747 13.0803 55.7223C11.7661 55.6415 10.5589 55.0811 9.7179 54.5852C7.34638 54.9301 5.02326 53.9758 3.18215 52.748C1.16905 51.4054 0.159504 49.0126 0.0178234 46.4581C-0.125202 43.8794 0.590799 40.9595 2.22948 38.2283C2.64442 37.5367 3.06325 36.884 3.47197 36.247C5.40403 33.236 7.11003 30.5772 7.11003 25.8321C7.11003 20.7774 10.3239 17.3298 12.5389 15.7778C12.5124 15.4675 12.4859 15.0922 12.4662 14.6646C12.4083 13.4102 12.4075 11.6837 12.6418 9.81354C12.8746 7.95539 13.2407 6.49367 13.5549 5.48315C13.712 4.97784 13.8562 4.58505 13.9645 4.31155C14.0187 4.17478 14.0639 4.06778 14.0973 3.99139C14.1139 3.9532 14.1277 3.92265 14.1381 3.89985L14.1512 3.87148L14.1558 3.86167L14.1576 3.85787L14.1583 3.85624C14.1583 3.85624 14.159 3.8548 15.5132 4.50002L14.159 3.8548C14.5054 3.12787 15.3639 2.8041 16.1041 3.1213C17.9279 3.90294 19.8577 4.93368 21.3138 5.75667C21.633 5.93712 21.9311 6.10849 22.2021 6.2662C22.7766 4.90217 23.5083 3.68778 24.151 2.74742C24.6175 2.06485 25.0508 1.50676 25.3698 1.1168C25.5295 0.921486 25.6613 0.767411 25.7551 0.660002C25.8021 0.606273 25.8396 0.564145 25.8665 0.534295L25.8986 0.498785L25.9084 0.488076L25.9117 0.48451L25.9129 0.483177L25.9139 0.482146ZM33.0893 11.3969C31.5233 7.9482 29.5845 5.74058 27.205 3.63665C27.1196 3.72618 27.0362 3.81757 26.9547 3.91072C23.9737 7.31694 23.5 13.0665 23.5 15.5C23.5 17.5 20.5 17.5 20.5 15.5C20.5 15.5 20.5 13.1927 21.0275 10.4028C21.1015 10.0114 21.1859 9.61059 21.2821 9.20529C21.2821 9.20529 20.3988 8.68556 19.8376 8.36836C18.8206 7.79352 17.5974 7.13274 16.3688 6.54002C16.1124 7.39503 15.8142 8.62486 15.6185 10.1865C15.4113 11.8403 15.4105 13.3878 15.463 14.5264C15.4891 15.0935 15.5283 15.5538 15.5603 15.8684C15.5763 16.0256 15.5905 16.146 15.6004 16.2249C15.6053 16.2643 15.6092 16.2933 15.6116 16.3112L15.6145 16.3317C15.7049 16.9526 15.3993 17.5643 14.8484 17.8648C13.2763 18.7224 10.11 21.5694 10.11 25.8321C10.11 31.5217 7.89042 34.954 5.91194 38.0134C5.52676 38.609 5.15073 39.1905 4.80198 39.7717C3.44077 42.0405 2.90666 44.3707 3.01322 46.292C3.12113 48.2375 3.86087 49.5946 4.84667 50.2521C6.55576 51.3919 8.2462 51.8956 9.64951 51.5448C10.0595 51.4423 10.4937 51.5175 10.8454 51.7519C11.5386 52.2141 12.4533 52.6781 13.2645 52.728C13.6332 52.7507 13.9393 52.6854 14.2079 52.5259C14.4787 52.3652 14.8279 52.0395 15.1633 51.3465C16.9537 47.6475 18.7306 45.5719 21.3302 43.6786C22.5878 42.7628 24.0267 41.8972 25.6946 40.9174C25.9721 40.7544 26.2566 40.5878 26.5489 40.4167L26.5559 40.4126L26.5569 40.412C28.0083 39.5623 29.6493 38.6017 31.5551 37.4178C32.8369 36.2953 33.6486 35.0337 34.0604 33.552C34.4874 32.0158 34.5125 30.1412 34.0431 27.7942C33.8806 26.9819 34.4074 26.1916 35.2197 26.0291C36.0321 25.8667 36.8223 26.3935 36.9848 27.2058C37.5154 29.8588 37.5404 32.2342 36.9508 34.3554C36.4189 36.2692 35.4091 37.8938 33.9632 39.2794C34.0111 43.2299 33.2733 46.1613 32.0706 48.5943C30.9111 50.9397 29.3415 52.7604 27.8682 54.4694C27.753 54.603 27.6384 54.736 27.5245 54.8685C25.9319 56.7228 24.4351 58.5488 23.3097 61.0542C22.313 63.2731 21.5791 66.0942 21.4296 70H66.0522C66.6732 65.8453 67.0664 59.4515 66.3974 52.4983C65.6572 44.8044 63.6293 36.5601 59.2946 29.9135C50.5178 16.4557 38.8168 12.5759 34.3536 12.2733C33.803 12.236 33.3174 11.8994 33.0893 11.3969Z" fill="#42210B"/>
</svg>
