<svg width="41" height="41" viewBox="0 0 41 41" fill="none" xmlns="http://www.w3.org/2000/svg">
  <path d="M31.875 22.2215C34.9187 17.5914 32.4125 12.894 28.2737 11.9384C24.1349 10.9828 20.4462 13.3247 20.4462 13.3247H20.3589C20.3589 13.3247 16.6769 10.9828 12.5381 11.9384C8.39928 12.894 5.88642 17.6453 8.93007 22.2754C11.9737 26.9055 14.3388 28.1303 14.3388 28.1303H12.4373L12.2694 31.4952H9.74978L9.60868 34.8601H31.1964L31.0553 31.4952H28.5626L28.3947 28.1303H26.4663C26.4663 28.1303 28.8314 26.8516 31.875 22.2215Z" fill="#EFD5BB"/>
  <path d="M28.3128 28.1306V31.5359H25.3296V28.1306" fill="#DCA898"/>
  <path d="M15.7837 28.1101V31.5154H12.6057V28.1101" fill="white"/>
  <path d="M31.1027 31.4552H27.8911V34.8605H31.1027V31.4552Z" fill="#DCA898"/>
  <path d="M9.75098 31.4761H12.9626V34.8814H9.75098" fill="white"/>
  <path d="M27.0903 11.7095C26.5519 11.7008 26.0166 11.792 25.5113 11.9786H24.5304L20.6402 13.5803L20.3916 13.9909L18.8059 15.3368C18.8059 15.3368 26.5461 11.3864 29.4553 13.6476C30.016 14.1092 30.4624 14.6945 30.7596 15.3576C31.0569 16.0207 31.1969 16.7438 31.1686 17.4702C31.1686 20.6399 28.0847 24.0788 26.0623 25.9968C25.0784 26.8454 23.8496 27.3571 22.555 27.4572L24.5707 27.8879L24.6849 28.1032H27.1642C27.1642 28.1032 33.5538 22.679 33.359 18.1768C33.1641 13.6746 30.0936 11.4605 27.0903 11.7095Z" fill="#DCA898"/>
  <path d="M14.8567 26.0042C12.841 24.0862 9.75036 20.6203 9.75036 17.4775C9.72374 16.4017 10.0505 15.3469 10.6805 14.4752C11.3105 13.6034 12.2088 12.963 13.2375 12.6523C14.2345 12.4476 15.2587 12.4112 16.2677 12.5446L15.3808 11.8716C15.3808 11.8716 13.5936 11.5015 13.3651 11.5015C13.2581 11.5314 13.1623 11.5922 13.0896 11.6764C10.3416 11.8514 7.7347 14.0722 7.58689 18.2043C7.39204 22.7066 13.7817 28.1308 13.7817 28.1308H16.261L16.3752 27.9154L18.3908 27.4847C17.0845 27.3846 15.8452 26.8654 14.8567 26.0042Z" fill="white"/>
  <path d="M31.2501 30.8225H29.2345V28.1306C29.2345 27.9521 29.1637 27.7809 29.0377 27.6547C28.9117 27.5285 28.7408 27.4576 28.5626 27.4576H28.4685C30.5312 25.654 33.9377 22.0738 33.9377 18.0359C33.9587 16.849 33.6871 15.6752 33.1468 14.6187C32.6065 13.5621 31.8142 12.6555 30.8403 11.9791C28.4954 10.4649 25.2434 10.5793 21.1718 12.2954V9.28714H23.1875C23.3657 9.28714 23.5366 9.21624 23.6626 9.09003C23.7886 8.96382 23.8594 8.79265 23.8594 8.61416C23.8594 8.43567 23.7886 8.2645 23.6626 8.13829C23.5366 8.01208 23.3657 7.94118 23.1875 7.94118H21.1718V6.59522C21.1718 6.41674 21.101 6.24556 20.975 6.11935C20.849 5.99314 20.6781 5.92224 20.4999 5.92224C20.3217 5.92224 20.1508 5.99314 20.0248 6.11935C19.8988 6.24556 19.828 6.41674 19.828 6.59522V7.94118H17.8124C17.6342 7.94118 17.4633 8.01208 17.3373 8.13829C17.2113 8.2645 17.1405 8.43567 17.1405 8.61416C17.1405 8.79265 17.2113 8.96382 17.3373 9.09003C17.4633 9.21624 17.6342 9.28714 17.8124 9.28714H19.828V12.2954C15.7564 10.5793 12.5045 10.4649 10.1596 11.9791C9.18564 12.6555 8.39339 13.5621 7.85308 14.6187C7.31278 15.6752 7.04111 16.849 7.06217 18.0359C7.06217 22.0738 10.4686 25.654 12.5313 27.4576H12.4373C12.2591 27.4576 12.0882 27.5285 11.9622 27.6547C11.8362 27.7809 11.7654 27.9521 11.7654 28.1306V30.8225H9.74972C9.57153 30.8225 9.40063 30.8934 9.27463 31.0196C9.14862 31.1458 9.07784 31.317 9.07784 31.4955V34.8604C9.07784 35.0389 9.14862 35.21 9.27463 35.3362C9.40063 35.4624 9.57153 35.5334 9.74972 35.5334H31.2501C31.4283 35.5334 31.5992 35.4624 31.7252 35.3362C31.8512 35.21 31.922 35.0389 31.922 34.8604V31.4955C31.922 31.317 31.8512 31.1458 31.7252 31.0196C31.5992 30.8934 31.4283 30.8225 31.2501 30.8225ZM8.40595 18.0359C8.38843 17.0736 8.60425 16.1214 9.03491 15.2611C9.46556 14.4007 10.0982 13.6578 10.8785 13.0962C12.9681 11.7502 16.1931 12.0531 20.211 13.9307C20.3004 13.9727 20.3979 13.9945 20.4966 13.9945C20.5953 13.9945 20.6928 13.9727 20.7821 13.9307C24.8134 12.0531 28.0318 11.7637 30.1146 13.0962C30.8962 13.6571 31.5301 14.3996 31.962 15.26C32.3938 16.1205 32.6107 17.073 32.5939 18.0359C32.5939 22.5718 27.2994 26.7308 26.3252 27.4576H14.6747C13.7004 26.7375 8.40595 22.5785 8.40595 18.0359ZM13.1092 28.8036H27.8907V30.8225H13.1092V28.8036ZM30.5782 34.1874H10.4216V32.1685H30.5782V34.1874Z" fill="#42210B"/>
</svg>
