<svg width="41" height="41" viewBox="0 0 41 41" fill="none" xmlns="http://www.w3.org/2000/svg">
  <path d="M21.5443 7.33716L28.4781 15.8318L26.7296 23.9889L27.2857 28.2561H28.5384V31.5639H31.2182V34.8718H9.78027V31.5639L12.5337 31.65L12.7548 28.2164L13.7597 28.1304L13.8401 23.0032L19.2866 17.6312L12.7146 18.2399L11.7097 13.6618L20.8744 10.3142L21.5443 7.33716Z" fill="#EFD5BB"/>
  <path d="M28.2907 28.2568H25.3162V31.6044H28.2907V28.2568Z" fill="#DCA898"/>
  <path d="M15.797 28.2365H12.6282V31.584H15.797V28.2365Z" fill="white"/>
  <path d="M31.0712 31.5237H27.8689V34.8712H31.0712V31.5237Z" fill="#DCA898"/>
  <path d="M12.9826 31.5446H9.78027V34.8921H12.9826V31.5446Z" fill="white"/>
  <path d="M26.5285 24.2866C26.5821 24.366 27.2587 28.1238 27.2587 28.1238L25.0479 28.2627L25.001 28.0576C24.378 28.0576 22.8304 27.8988 22.8304 27.8988L22.9108 27.5945C22.9449 27.5773 22.9809 27.564 23.018 27.5548L23.2994 27.4291C23.5758 27.2926 23.8271 27.1115 24.043 26.8932C24.2676 26.6625 24.4149 26.3692 24.4651 26.053C24.4845 25.7374 24.4551 25.4206 24.378 25.1136L24.3244 24.8556C24.2335 24.4386 24.2543 24.0053 24.3847 23.5986L26.6223 16.5992C26.6785 16.4208 26.6927 16.232 26.6637 16.0474C26.6346 15.8628 26.5632 15.6872 26.4548 15.534L21.7653 8.91832L21.4236 7.87965L21.5442 7.33716L28.2837 15.6002C28.2837 15.6002 26.4749 24.1742 26.5285 24.2866Z" fill="#DCA898"/>
  <path d="M24.4787 25.6101L24.405 25.2793L24.4452 25.4315C24.4596 25.4904 24.4708 25.55 24.4787 25.6101V25.6101Z" fill="#DCA898"/>
  <path d="M17.2428 27.5947L17.0619 27.5153C16.6776 27.3207 16.3564 27.0234 16.1349 26.6573C15.9133 26.2912 15.8005 25.871 15.8091 25.4446V25.041C15.8072 24.243 16.0399 23.4616 16.4791 22.7916L19.5206 18.1606L19.1186 17.7571L13.8328 22.9769L13.7993 28.2562H15.8091V27.9916L17.2964 27.8924L17.2428 27.5947Z" fill="white"/>
  <path d="M12.3606 17.2016L12.6085 18.3262L19.7031 18.0616L20.2055 17.5787C20.3868 17.4041 20.4924 17.167 20.5003 16.9171V16.9171C20.5009 16.7776 20.471 16.6396 20.4125 16.5126C20.3539 16.3856 20.2682 16.2726 20.1613 16.1815C20.0543 16.0903 19.9286 16.0231 19.7929 15.9845C19.6571 15.9459 19.5145 15.9368 19.3748 15.9578L12.3606 17.2016Z" fill="#DCA898"/>
  <path d="M14.8524 12.7886L11.9784 13.5626V13.642L12.0454 14.0125L12.0923 14.33C11.6032 14.4028 11.8109 15.243 11.8109 15.243L12.3066 15.3885L12.3602 15.6796H12.4607L12.7287 15.6069C12.7287 15.6069 12.5277 14.6079 18.249 12.6827L20.5937 11.9021C20.9278 11.7981 21.2237 11.5999 21.4451 11.3318C21.6666 11.0638 21.8037 10.7377 21.8398 10.3937V10.3937L14.8524 12.7886Z" fill="white"/>
  <path d="M31.2189 30.9024H29.2091V28.2561C29.2091 28.0806 29.1385 27.9123 29.0129 27.7883C28.8873 27.6642 28.7169 27.5945 28.5392 27.5945H27.7688L27.1993 24.2866L29.2091 15.8119C29.2326 15.7117 29.232 15.6076 29.2076 15.5077C29.1832 15.4078 29.1356 15.3149 29.0684 15.2363L21.6992 6.63587C21.6114 6.52325 21.4892 6.44154 21.3508 6.40283C21.2123 6.36411 21.0649 6.37046 20.9304 6.42093C20.7958 6.4714 20.6813 6.5633 20.6038 6.68304C20.5263 6.80277 20.4899 6.94398 20.5 7.08574V9.9305L11.563 13.0796C11.4172 13.1301 11.2935 13.2288 11.2129 13.359C11.1323 13.4892 11.0998 13.6429 11.1209 13.7941L11.7908 18.4251C11.8142 18.5961 11.9044 18.7513 12.0421 18.8576C12.1798 18.9639 12.354 19.0129 12.5278 18.994L17.358 18.5177L13.3384 22.4872C13.2731 22.5486 13.221 22.6225 13.1853 22.7044C13.1496 22.7862 13.131 22.8744 13.1307 22.9635V27.5945H12.4608C12.2831 27.5945 12.1127 27.6642 11.987 27.7883C11.8614 27.9123 11.7908 28.0806 11.7908 28.2561V30.9024H9.78102C9.60334 30.9024 9.43294 30.9721 9.3073 31.0961C9.18167 31.2202 9.11108 31.3885 9.11108 31.5639V34.8718C9.11108 35.0473 9.18167 35.2155 9.3073 35.3396C9.43294 35.4637 9.60334 35.5334 9.78102 35.5334H31.2189C31.3966 35.5334 31.567 35.4637 31.6926 35.3396C31.8183 35.2155 31.8889 35.0473 31.8889 34.8718V31.5639C31.8889 31.3885 31.8183 31.2202 31.6926 31.0961C31.567 30.9721 31.3966 30.9024 31.2189 30.9024ZM14.4706 23.2347L19.6358 18.134C19.7331 18.0373 19.7979 17.9132 19.8211 17.7788C19.8443 17.6443 19.8249 17.5061 19.7655 17.383C19.7061 17.2598 19.6096 17.1578 19.4892 17.091C19.3689 17.0241 19.2305 16.9956 19.0931 17.0093L13.0637 17.6047L12.5612 14.1381L21.3977 11.0155C21.5272 10.9693 21.6391 10.8848 21.7182 10.7735C21.7973 10.6622 21.8398 10.5296 21.8398 10.3936V8.89183L27.809 15.8582L25.8595 24.1345C25.8423 24.2196 25.8423 24.3073 25.8595 24.3925L26.4088 27.5945H19.83V25.107L21.0962 22.5996C21.1386 22.5215 21.1647 22.4359 21.1729 22.3476C21.1812 22.2594 21.1714 22.1705 21.1441 22.086C21.1169 22.0016 21.0727 21.9235 21.0143 21.8562C20.9559 21.789 20.8844 21.734 20.8041 21.6946C20.7237 21.6551 20.6362 21.632 20.5467 21.6266C20.4571 21.6212 20.3674 21.6336 20.2828 21.6631C20.1982 21.6926 20.1204 21.7386 20.0542 21.7983C19.9879 21.858 19.9345 21.9303 19.897 22.0108L18.5572 24.6571C18.5127 24.7478 18.4898 24.8474 18.4902 24.9482V27.5945H14.4706V23.2347ZM13.1307 28.9176H27.8693V30.9024H13.1307V28.9176ZM30.549 34.2102H10.451V32.2255H30.549V34.2102Z" fill="#42210B"/>
</svg>
