<svg width="41" height="41" viewBox="0 0 41 41" fill="none" xmlns="http://www.w3.org/2000/svg">
  <path d="M28.5392 31.6282V28.3742H27.072C26.0974 27.2553 25.2672 26.0248 24.6 24.7102C23.9769 23.4737 23.7491 21.3781 23.6754 19.8162C24.7953 19.1491 25.6602 18.145 26.1386 16.9566C26.6171 15.7682 26.6829 14.4605 26.3262 13.2324C25.9694 12.0043 25.2095 10.923 24.1621 10.1529C23.1147 9.3828 21.837 8.96606 20.5234 8.96606C19.2098 8.96606 17.9321 9.3828 16.8847 10.1529C15.8373 10.923 15.0774 12.0043 14.7206 13.2324C14.3639 14.4605 14.4297 15.7682 14.9082 16.9566C15.3867 18.145 16.2516 19.1491 17.3714 19.8162C17.1345 21.4917 16.7672 23.1473 16.2727 24.7688C15.6188 26.0728 14.7873 27.2855 13.8006 28.3742H12.4607V31.6282H9.78101V34.8821H31.2189V31.6282H28.5392Z" fill="#EFD5BB"/>
  <path d="M28.2907 28.3755H25.3162V31.6685H28.2907V28.3755Z" fill="#DCA898"/>
  <path d="M15.6027 28.3555H12.6282V31.6485H15.6027V28.3555Z" fill="white"/>
  <path d="M31.0729 31.589H27.8706V34.882H31.0729V31.589Z" fill="#DCA898"/>
  <path d="M12.9833 31.6086H9.78101V34.9017H12.9833V31.6086Z" fill="white"/>
  <path d="M18.5849 20.4941C18.4719 22.0755 18.1913 23.6414 17.7475 25.1668C17.1914 26.6766 17.4728 27.5422 18.0624 27.7309C18.6519 27.9197 15.1414 28.18 15.1414 28.2646C15.1414 28.3492 14.2236 27.8806 14.2236 27.8806C14.2236 27.8806 16.2334 25.5833 16.6153 23.6439C16.9972 21.7046 17.3656 19.8368 17.3656 19.8368L18.5849 20.4941Z" fill="white"/>
  <path d="M18.7582 9.78845C17.9534 10.3468 17.2993 11.0857 16.8514 11.9423C16.4035 12.7988 16.1751 13.7478 16.1857 14.7085C16.1295 15.6754 16.3372 16.6396 16.7878 17.5035C17.2383 18.3675 17.9157 19.1005 18.7515 19.6284L17.3648 19.8432C17.3648 19.8432 14.0888 17.6631 14.5242 14.357C14.6635 13.3834 15.0337 12.4545 15.6057 11.6436C16.1777 10.8327 16.9359 10.1619 17.8203 9.68433L18.7582 9.78845Z" fill="white"/>
  <path d="M21.6326 9.60584C22.4464 10.1975 23.1035 10.9688 23.5497 11.856C23.9958 12.7432 24.2182 13.7208 24.1984 14.7081C24.2631 15.7008 24.0605 16.6927 23.6106 17.5862C23.1607 18.4797 22.479 19.244 21.6326 19.8038L23.0193 20.025C23.0193 20.025 26.2953 17.7668 25.8599 14.3436C25.7344 13.3476 25.3749 12.393 24.8092 11.5535C24.2435 10.7139 23.4867 10.0119 22.5973 9.50171L21.6326 9.60584Z" fill="#DCA898"/>
  <path d="M25.3175 28.2775C24.255 27.1344 23.4819 25.7661 23.0598 24.2816C22.4702 22.2381 22.5305 21.2294 21.385 21.1643C20.6346 21.1188 23.1804 19.9148 23.1804 19.9148L24.393 22.8954L26.6573 27.861L25.3175 28.2775Z" fill="#DCA898"/>
  <path d="M31.2189 30.9777H29.2091V28.3746C29.2091 28.202 29.1385 28.0364 29.0129 27.9144C28.8873 27.7923 28.7169 27.7238 28.5392 27.7238H27.4539C26.784 27.125 24.5196 24.6846 24.5196 19.9142C25.6444 19.0947 26.4753 17.9521 26.8946 16.6483C27.3138 15.3446 27.3002 13.9457 26.8555 12.6499C26.4109 11.3541 25.5578 10.227 24.4172 9.42838C23.2765 8.62972 21.906 8.19995 20.5 8.19995C19.0939 8.19995 17.7235 8.62972 16.5828 9.42838C15.4421 10.227 14.5891 11.3541 14.1444 12.6499C13.6998 13.9457 13.6861 15.3446 14.1054 16.6483C14.5246 17.9521 15.3555 19.0947 16.4804 19.9142C16.4804 24.6846 14.1959 27.125 13.5461 27.7238H12.4608C12.2831 27.7238 12.1127 27.7923 11.987 27.9144C11.8614 28.0364 11.7908 28.202 11.7908 28.3746V30.9777H9.78102C9.60334 30.9777 9.43294 31.0463 9.3073 31.1683C9.18167 31.2904 9.11108 31.4559 9.11108 31.6285V34.8825C9.11108 35.0551 9.18167 35.2206 9.3073 35.3427C9.43294 35.4647 9.60334 35.5333 9.78102 35.5333H31.2189C31.3966 35.5333 31.567 35.4647 31.6926 35.3427C31.8183 35.2206 31.8889 35.0551 31.8889 34.8825V31.6285C31.8889 31.4559 31.8183 31.2904 31.6926 31.1683C31.567 31.0463 31.3966 30.9777 31.2189 30.9777ZM15.1405 14.7079C15.1405 13.6782 15.4548 12.6716 16.0437 11.8154C16.6326 10.9592 17.4697 10.2919 18.449 9.89785C19.4283 9.50379 20.5059 9.40069 21.5456 9.60158C22.5852 9.80247 23.5402 10.2983 24.2897 11.0264C25.0392 11.7546 25.5497 12.6822 25.7565 13.6922C25.9633 14.7021 25.8571 15.7489 25.4515 16.7003C25.0458 17.6516 24.3589 18.4647 23.4775 19.0368C22.5962 19.6089 21.56 19.9142 20.5 19.9142C19.0786 19.9142 17.7153 19.3657 16.7103 18.3893C15.7052 17.413 15.1405 16.0887 15.1405 14.7079V14.7079ZM17.8202 20.6561C18.672 21.0251 19.5942 21.2158 20.5268 21.2158C21.4594 21.2158 22.3815 21.0251 23.2333 20.6561C23.2784 23.1996 24.13 25.6676 25.6719 27.7238H15.3281C16.8891 25.6739 17.7595 23.2053 17.8202 20.6561V20.6561ZM13.1307 29.0253H27.8693V30.9777H13.1307V29.0253ZM30.549 34.2317H10.451V32.2793H30.549V34.2317Z" fill="#42210B"/>
</svg>
