<svg width="41" height="41" viewBox="0 0 41 41" fill="none" xmlns="http://www.w3.org/2000/svg">
  <path d="M32.7432 12.0864C32.4102 12.0859 32.0854 12.1894 31.8149 12.3823C31.5444 12.5752 31.3419 12.8476 31.2362 13.161C31.1304 13.4744 31.1267 13.8129 31.2255 14.1285C31.3244 14.4442 31.5208 14.7209 31.787 14.9196L26.0156 21.1312L27.0735 11.8575H27.2092C27.6048 11.8579 27.9864 11.7122 28.2798 11.4488C28.5731 11.1854 28.7573 10.8232 28.7965 10.4325C28.8356 10.0419 28.7269 9.65076 28.4916 9.3352C28.2562 9.01965 27.911 8.80224 27.5231 8.72525C27.1352 8.64826 26.7322 8.71719 26.3927 8.91865C26.0531 9.1201 25.8012 9.43968 25.6859 9.81522C25.5707 10.1908 25.6003 10.5954 25.769 10.9505C25.9377 11.3056 26.2335 11.5857 26.5988 11.7364L22.4822 19.8122L20.6985 9.71746C21.1057 9.66613 21.4779 9.46279 21.7393 9.14883C22.0008 8.83488 22.1319 8.43387 22.1059 8.0274C22.08 7.62093 21.899 7.23952 21.5998 6.96077C21.3005 6.68201 20.9055 6.52686 20.4951 6.52686C20.0846 6.52686 19.6896 6.68201 19.3903 6.96077C19.0911 7.23952 18.9101 7.62093 18.8842 8.0274C18.8583 8.43387 18.9894 8.83488 19.2508 9.14883C19.5123 9.46279 19.8844 9.66613 20.2916 9.71746L18.4062 19.9064L14.3371 11.797C14.7339 11.6056 15.0428 11.272 15.2015 10.8634C15.3602 10.4549 15.3568 10.0018 15.1921 9.59562C15.0273 9.18945 14.7135 8.86039 14.3138 8.67484C13.9142 8.48929 13.4585 8.46105 13.0387 8.59583C12.6188 8.7306 12.2662 9.01836 12.0518 9.40105C11.8374 9.78373 11.7773 10.2329 11.8835 10.6578C11.9897 11.0828 12.2544 11.4519 12.6242 11.6908C12.994 11.9297 13.4413 12.0206 13.8759 11.945L14.9474 21.1379L9.1082 14.8254C9.45926 14.5849 9.70511 14.221 9.79596 13.8074C9.88681 13.3937 9.81588 12.9613 9.59753 12.5977C9.37917 12.234 9.02972 11.9662 8.61991 11.8486C8.2101 11.731 7.77057 11.7723 7.3903 11.9642C7.01003 12.1561 6.71745 12.4842 6.57178 12.8821C6.42612 13.2799 6.43827 13.7179 6.60576 14.1072C6.77326 14.4965 7.08358 14.8082 7.47391 14.979C7.86423 15.1498 8.30539 15.1671 8.70806 15.0273L13.7199 28.0494L12.3635 28.0898L12.3228 31.4143L9.65075 31.4951V34.86H31.2716L31.3529 31.4951H28.6402V28.1302H27.2838L32.2075 15.1417C32.4252 15.22 32.6575 15.25 32.8882 15.2298C33.1188 15.2095 33.3422 15.1394 33.5427 15.0243C33.7431 14.9093 33.9158 14.7521 34.0485 14.5638C34.1813 14.3755 34.2709 14.1607 34.311 13.9344C34.3512 13.7081 34.341 13.4758 34.2811 13.2539C34.2212 13.0319 34.1131 12.8256 33.9644 12.6495C33.8156 12.4734 33.6298 12.3318 33.4201 12.2345C33.2103 12.1372 32.9816 12.0866 32.75 12.0864H32.7432Z" fill="#EFD5BB"/>
  <path d="M8.39683 12.6509C8.22051 12.765 8.07797 12.9237 7.98382 13.1105C7.88967 13.2974 7.8473 13.5057 7.86106 13.7142C7.87956 13.9237 7.95154 14.1251 8.07019 14.2993C8.18885 14.4736 8.35027 14.615 8.53925 14.7102C8.53925 14.7102 7.62369 14.9457 7.33885 14.7977C7.05401 14.6496 6.26052 13.5325 6.40294 13.3238C6.80194 12.8736 7.24242 12.4613 7.71864 12.0923C7.95634 12.2641 8.18285 12.4507 8.39683 12.6509V12.6509Z" fill="white"/>
  <path d="M13.8221 9.28642C13.6458 9.40057 13.5033 9.55921 13.4091 9.74607C13.315 9.93292 13.2726 10.1413 13.2863 10.3497C13.3049 10.5592 13.3768 10.7606 13.4955 10.9349C13.6141 11.1091 13.7756 11.2505 13.9645 11.3457C13.9645 11.3457 13.049 11.5813 12.7641 11.4332C12.4793 11.2852 11.6858 10.168 11.8282 9.9594C12.226 9.49981 12.6665 9.07845 13.1439 8.70093C13.3824 8.88143 13.609 9.077 13.8221 9.28642V9.28642Z" fill="white"/>
  <path d="M31.2049 31.4552H27.9631V34.8605H31.2049V31.4552Z" fill="#DCA898"/>
  <path d="M9.6499 31.4761H12.8917V34.8813H9.6499" fill="white"/>
  <path d="M14.7244 25.1961L11.6183 17.5847L9.48877 15.6263L9.70579 17.4703L13.7207 27.7131V27.8813L12.3643 28.1303V31.4952H15.7553V28.1303H17.1117L17.2812 27.4573C16.6994 27.3207 16.161 27.0424 15.7146 26.6476C15.2682 26.2529 14.9279 25.754 14.7244 25.1961V25.1961Z" fill="white"/>
  <path d="M26.3623 25.1961L29.4752 17.5847L31.6047 15.6263L31.3538 17.4703L27.2846 27.7131V27.8813L28.641 28.1303V31.4952H25.25V28.1303H23.9818L23.8123 27.4573C24.3929 27.3197 24.9299 27.041 25.375 26.6462C25.8201 26.2515 26.1594 25.7532 26.3623 25.1961V25.1961Z" fill="#DCA898"/>
  <path d="M32.5545 12.6509C32.7308 12.765 32.8734 12.9237 32.9675 13.1105C33.0617 13.2974 33.1041 13.5057 33.0903 13.7142C33.0718 13.9237 32.9998 14.1251 32.8812 14.2993C32.7625 14.4736 32.6011 14.615 32.4121 14.7102C32.4121 14.7102 33.3277 14.9457 33.6125 14.7977C33.8973 14.6496 34.6569 13.5392 34.5145 13.3508C34.1168 12.8912 33.6763 12.4698 33.1988 12.0923C32.9727 12.2652 32.7576 12.4518 32.5545 12.6509V12.6509Z" fill="#DCA898"/>
  <path d="M27.1285 9.28642C27.3048 9.40057 27.4474 9.55921 27.5415 9.74607C27.6357 9.93292 27.678 10.1413 27.6643 10.3497C27.6458 10.5592 27.5738 10.7606 27.4551 10.9349C27.3365 11.1091 27.1751 11.2505 26.9861 11.3457C26.9861 11.3457 27.9016 11.5813 28.1865 11.4332C28.4713 11.2852 29.2648 10.168 29.1224 9.9594C28.7247 9.49981 28.2841 9.07845 27.8067 8.70093C27.5682 8.88143 27.3417 9.077 27.1285 9.28642V9.28642Z" fill="#DCA898"/>
  <path d="M32.7108 11.3061C32.0812 11.3061 31.4775 11.5542 31.0323 11.996C30.5872 12.4377 30.3371 13.0368 30.3371 13.6615C30.339 14.0114 30.4201 14.3564 30.5745 14.671V14.671C30.6426 14.7967 30.7221 14.9161 30.8118 15.0277L26.8647 19.3818L27.7193 12.6049C28.0847 12.5354 28.4285 12.3817 28.723 12.1561C29.0176 11.9304 29.2545 11.6393 29.4147 11.3061V11.3061C29.5714 10.992 29.6549 10.647 29.6589 10.2966C29.6589 9.67191 29.4088 9.0728 28.9637 8.63107C28.5185 8.18934 27.9148 7.94118 27.2852 7.94118C26.6557 7.94118 26.0519 8.18934 25.6068 8.63107C25.1616 9.0728 24.9115 9.67191 24.9115 10.2966C24.9135 10.6465 24.9946 10.9915 25.1489 11.3061V11.3061C25.2998 11.6027 25.5125 11.8642 25.7728 12.0733L22.8363 17.8946L21.4799 10.3572C21.9766 10.1424 22.3837 9.76457 22.6328 9.28714V9.28714C22.7895 8.97309 22.8729 8.62808 22.877 8.27767C22.877 7.65297 22.6269 7.05386 22.1817 6.61213C21.7366 6.1704 21.1328 5.92224 20.5033 5.92224C19.8737 5.92224 19.27 6.1704 18.8248 6.61213C18.3797 7.05386 18.1296 7.65297 18.1296 8.27767C18.1315 8.62756 18.2126 8.97255 18.367 9.28714C18.6072 9.76083 19.0015 10.1402 19.486 10.3639L18.1296 17.8946L15.2202 12.1069C15.4809 11.8983 15.6937 11.6367 15.8441 11.3397V11.3397V11.3061C16.0031 10.9926 16.0889 10.6475 16.095 10.2966C16.095 9.67191 15.8449 9.0728 15.3998 8.63107C14.9546 8.18934 14.3509 7.94118 13.7213 7.94118C13.0918 7.94118 12.4881 8.18934 12.0429 8.63107C11.5978 9.0728 11.3477 9.67191 11.3477 10.2966C11.3496 10.6465 11.4307 10.9915 11.585 11.3061C11.7494 11.633 11.9882 11.9175 12.2824 12.1371C12.5767 12.3567 12.9184 12.5053 13.2805 12.5713L14.1418 19.3818L10.1812 15.0613C10.2706 14.9519 10.3501 14.8348 10.4185 14.7114C10.5836 14.3856 10.6696 14.0261 10.6695 13.6615C10.6695 13.0368 10.4194 12.4377 9.97424 11.996C9.52909 11.5542 8.92534 11.3061 8.2958 11.3061C7.66626 11.3061 7.0625 11.5542 6.61735 11.996C6.1722 12.4377 5.92212 13.0368 5.92212 13.6615C5.92403 14.0114 6.00515 14.3564 6.15949 14.671V14.671C6.35204 15.0719 6.65461 15.4109 7.03248 15.649C7.41035 15.887 7.8482 16.0146 8.2958 16.0169H8.34327L12.738 27.4576H12.365C12.1851 27.4576 12.0126 27.5285 11.8854 27.6547C11.7582 27.7809 11.6868 27.9521 11.6868 28.1306V30.8225H9.65218C9.47232 30.8225 9.29981 30.8934 9.17263 31.0196C9.04544 31.1458 8.97399 31.317 8.97399 31.4955V34.8604C8.97399 35.0389 9.04544 35.21 9.17263 35.3362C9.29981 35.4624 9.47232 35.5334 9.65218 35.5334H31.3544C31.5342 35.5334 31.7067 35.4624 31.8339 35.3362C31.9611 35.21 32.0326 35.0389 32.0326 34.8604V31.4955C32.0326 31.317 31.9611 31.1458 31.8339 31.0196C31.7067 30.8934 31.5342 30.8225 31.3544 30.8225H29.3198V28.1306C29.3198 27.9521 29.2483 27.7809 29.1212 27.6547C28.994 27.5285 28.8215 27.4576 28.6416 27.4576H28.2686L32.6633 16.0169H32.7108C33.1572 16.0133 33.5936 15.8852 33.9702 15.6472C34.3467 15.4092 34.6482 15.0709 34.8403 14.671V14.671C34.9976 14.3503 35.0788 13.998 35.0777 13.6413C35.0723 13.0213 34.8208 12.4284 34.3777 11.9912C33.9346 11.554 33.3356 11.3078 32.7108 11.3061ZM27.2852 9.28714C27.555 9.31034 27.8045 9.43895 27.9787 9.64467C28.153 9.85039 28.2377 10.1164 28.2143 10.3841C28.191 10.6518 28.0614 10.8994 27.854 11.0723C27.6467 11.2452 27.3787 11.3293 27.1089 11.3061C26.9504 11.2764 26.8011 11.2104 26.6727 11.1135C26.5444 11.0165 26.4406 10.8912 26.3697 10.7475C26.292 10.5932 26.2555 10.4217 26.2636 10.2494C26.2718 10.0771 26.3242 9.9098 26.416 9.76335C26.5079 9.61691 26.6359 9.49625 26.7881 9.41288C26.9403 9.32951 27.1114 9.28622 27.2852 9.28714V9.28714ZM20.5033 7.2682C20.6752 7.26841 20.8444 7.31188 20.9948 7.39454C21.1452 7.47719 21.2721 7.59635 21.3636 7.74087C21.455 7.88538 21.508 8.05054 21.5177 8.22092C21.5274 8.39129 21.4934 8.56132 21.4188 8.71511V8.71511C21.3453 8.86997 21.2332 9.00373 21.0932 9.1038C20.9532 9.20387 20.7899 9.26696 20.6186 9.28714C20.5337 9.30555 20.4458 9.30555 20.3609 9.28714C20.1991 9.26447 20.0454 9.20297 19.913 9.10798C19.7806 9.01298 19.6736 8.88736 19.6013 8.74203V8.74203C19.521 8.58825 19.4819 8.41656 19.4878 8.24347C19.4938 8.07037 19.5445 7.9017 19.6351 7.75367C19.7256 7.60564 19.8531 7.48323 20.0052 7.39821C20.1572 7.31319 20.3287 7.26842 20.5033 7.2682ZM12.8126 10.7475C12.7375 10.5936 12.703 10.4233 12.7123 10.2526C12.7217 10.0818 12.7746 9.91626 12.8662 9.77137C12.9577 9.62649 13.0848 9.50704 13.2355 9.42425C13.3863 9.34145 13.5558 9.29802 13.7281 9.29802C13.9004 9.29802 14.0699 9.34145 14.2207 9.42425C14.3715 9.50704 14.4986 9.62649 14.5901 9.77137C14.6816 9.91626 14.7345 10.0818 14.7439 10.2526C14.7533 10.4233 14.7188 10.5936 14.6437 10.7475V10.7475C14.5246 10.9794 14.3208 11.1575 14.074 11.2455C14.0006 11.2758 13.9227 11.2939 13.8434 11.2993L13.7213 11.3061C13.5326 11.3058 13.3476 11.2534 13.1871 11.1548C13.0266 11.0561 12.8969 10.9151 12.8126 10.7475V10.7475ZM7.38702 14.1124C7.31795 13.9762 7.28089 13.8262 7.27862 13.6737C7.27635 13.5212 7.30893 13.3702 7.3739 13.232C7.43888 13.0938 7.53457 12.972 7.65378 12.8757C7.773 12.7795 7.91264 12.7113 8.06222 12.6763C8.2118 12.6412 8.36743 12.6403 8.51743 12.6735C8.66742 12.7068 8.80788 12.7733 8.92826 12.8681C9.04863 12.9629 9.14579 13.0836 9.21244 13.221C9.2791 13.3584 9.31351 13.509 9.31309 13.6615C9.30788 13.9276 9.19903 14.1814 9.00937 14.3696C8.8197 14.5578 8.56397 14.6658 8.2958 14.671C8.10459 14.67 7.91748 14.6158 7.75567 14.5147C7.59386 14.4136 7.46381 14.2696 7.38024 14.0989L7.38702 14.1124ZM30.6762 34.1874H10.3304V32.1685H30.6762V34.1874ZM13.0432 30.8225V28.8036H27.9634V30.8225H13.0432ZM14.1893 27.4576L10.2083 17.087L14.5827 21.8517C14.6798 21.9571 14.8083 22.0291 14.9494 22.0572C15.0905 22.0854 15.237 22.0682 15.3677 22.0083C15.4984 21.9483 15.6064 21.8486 15.6762 21.7237C15.746 21.5988 15.7739 21.455 15.7559 21.3133L14.8946 14.4489L17.8719 20.3509C17.9268 20.4622 18.0116 20.5562 18.1169 20.6227C18.2222 20.6892 18.3439 20.7256 18.4687 20.7278H18.5636C18.7051 20.7071 18.8364 20.6427 18.9387 20.5436C19.041 20.4444 19.1091 20.3158 19.1333 20.176L20.5033 12.4771L21.8597 20.1692C21.8839 20.3091 21.952 20.4377 22.0543 20.5368C22.1566 20.6359 22.2879 20.7004 22.4294 20.7211H22.5379C22.6631 20.7207 22.7858 20.6859 22.8923 20.6206C22.9989 20.5552 23.0851 20.4619 23.1415 20.3509L26.1187 14.4489L25.2506 21.32C25.2326 21.4617 25.2606 21.6055 25.3303 21.7304C25.4001 21.8554 25.5082 21.955 25.6389 22.015C25.7695 22.075 25.916 22.0921 26.0572 22.0639C26.1983 22.0358 26.3267 21.9638 26.4239 21.8584L30.7983 17.0937L26.8173 27.4576H14.1893ZM33.6195 14.1124C33.5352 14.28 33.4055 14.421 33.2451 14.5197C33.0846 14.6183 32.8996 14.6707 32.7108 14.671C32.5502 14.6859 32.3889 14.6506 32.2496 14.57C32.0775 14.4664 31.9405 14.314 31.8562 14.1326C31.7377 13.8794 31.7184 13.5916 31.802 13.325C31.8676 13.1191 31.9984 12.9397 32.175 12.8136C32.3339 12.709 32.5201 12.6528 32.7108 12.652C32.8437 12.652 32.9754 12.6782 33.098 12.7291C33.2207 12.78 33.332 12.8546 33.4253 12.9485C33.5187 13.0424 33.5924 13.1538 33.642 13.2762C33.6917 13.3986 33.7163 13.5296 33.7145 13.6615C33.7171 13.817 33.6847 13.971 33.6195 14.1124V14.1124Z" fill="#42210B"/>
</svg>
