<?xml version="1.0" ?><svg id="icons" viewBox="0 0 48 48" xmlns="http://www.w3.org/2000/svg"><defs><style>.cls-1{fill:#efd5bb;}.cls-2{fill:#6d645c;}.cls-3{fill:#fff;}.cls-4{fill:#54463a;}.cls-5{fill:#dca898;}.cls-6{fill:#42210b;}</style></defs><title/><path class="cls-1" d="M8.17,17.25s8.63,0,8.71-4.42c0,0,4.56,3.58,13.31,3.67l8.81.08V29S37,43,22.83,43,7.75,27.5,7.75,27.5Z"/><rect class="cls-1" height="4.36" rx="2.18" ry="2.18" width="4.36" x="3.32" y="22.43"/><rect class="cls-1" height="4.36" rx="2.18" ry="2.18" width="4.36" x="39.32" y="22.43"/><path class="cls-2" d="M38.75,17.38s-8.29,0-13.1-1.26a35.34,35.34,0,0,1-8.77-3.74,6.56,6.56,0,0,1-5,4.47c-4.14.91-4.1.2-4.1.2S9.46,5.67,18.67,5.21s9.83,0,9.83,0S38.5,7,38.75,17.38Z"/><rect class="cls-2" height="7.5" rx="1.6" ry="1.6" width="8.88" x="11.92" y="22.25"/><rect class="cls-2" height="7.5" rx="1.6" ry="1.6" width="8.88" x="26.06" y="22.25"/><path class="cls-3" d="M11,17v9.87a17.93,17.93,0,0,0,2.74,9.75A12.35,12.35,0,0,0,18.41,41l-.25.59S9.63,40.12,7.89,28.72l.27-11.47Z"/><path class="cls-3" d="M18.84,5.89S11,9.66,11,16.25V17l-2.47.28S6.91,8.22,18.41,5.56Z"/><rect class="cls-3" height="7.5" width="1.17" x="12.75" y="22.25"/><rect class="cls-4" height="7.5" width="1.17" x="19.06" y="22.25"/><rect class="cls-4" height="7.5" width="1.17" x="33.01" y="22.25"/><rect class="cls-3" height="7.5" width="1.1" x="26.71" y="22.25"/><path class="cls-5" d="M36,17v9.65a18,18,0,0,1-2.87,9.95A12.74,12.74,0,0,1,28.41,41l.16.59S37,40.12,38.78,28.72l-.11-11.47Z"/><path class="cls-4" d="M28,5.89s8,3.77,8,10.36V17l2.28.28s1.63-9.06-9.87-11.72Z"/><rect class="cls-5" height="1.5" width="4" x="21.47" y="25.44"/><path class="cls-6" d="M44.6,23A3.48,3.48,0,0,0,40,21.46v-4A13.51,13.51,0,0,0,26.5,4h-6A13.52,13.52,0,0,0,7,17.5v4a3.46,3.46,0,0,0-1.5-.35,3.5,3.5,0,0,0,0,7A3.46,3.46,0,0,0,7,27.76a16.49,16.49,0,0,0,33,0,3.45,3.45,0,0,0,.47.2,3.48,3.48,0,0,0,2.67-.24A3.5,3.5,0,0,0,44.6,23ZM27,24a1,1,0,0,1,1-1h6v5a.89.89,0,0,1-.86,1H28a1,1,0,0,1-1-1Zm8.15-3H28a3,3,0,0,0-3,3H22a3,3,0,0,0-3-3H9V18h.4c2.46,0,6.79-.9,8-4,2.35,1.57,8,4,20.17,4H38v3ZM13,23h6a1,1,0,0,1,1,1v4a1,1,0,0,1-1,1H13.86A.89.89,0,0,1,13,28ZM20.5,6h6A12,12,0,0,1,37.93,16H37.6c-16.22,0-20-4.34-20-4.37a1,1,0,0,0-1.12-.28.88.88,0,0,0-.68.85C15.76,16,9.47,16,9.4,16H9.07A12,12,0,0,1,20.5,6ZM5.5,26.11A1.5,1.5,0,1,1,7,24.61,1.5,1.5,0,0,1,5.5,26.11ZM38,27.5a14.5,14.5,0,0,1-29,0V23h2v5a2.89,2.89,0,0,0,2.86,3H19a3,3,0,0,0,3-3V26h3v2a3,3,0,0,0,3,3h5.14A2.88,2.88,0,0,0,36,28V23h2Zm4.93-2.44a1.5,1.5,0,1,1-1-1.88A1.49,1.49,0,0,1,42.93,25.06Z"/></svg>