<?xml version="1.0" ?><svg id="icons" viewBox="0 0 48 48" xmlns="http://www.w3.org/2000/svg"><defs><style>.cls-1{fill:#54463a;}.cls-2{fill:#fff;}.cls-3{fill:#6d645c;}.cls-4{fill:#dca898;}.cls-5{fill:#efd5bb;}.cls-6{fill:#56514c;}.cls-7{fill:#42210b;}</style></defs><title/><path class="cls-1" d="M41.79,25A17.78,17.78,0,0,1,24,42.79c-.57,0-1.13,0-1.69-.08a17.79,17.79,0,0,1,0-35.42c.56,0,1.12-.08,1.69-.08A17.78,17.78,0,0,1,41.79,25Z"/><path class="cls-2" d="M22.31,42.71a17.79,17.79,0,0,1,0-35.42C22.82,7.34,22.82,42.66,22.31,42.71Z"/><path class="cls-3" d="M38.42,25A17.79,17.79,0,0,1,23.81,42.5,18.1,18.1,0,0,1,9,24.88,17.83,17.83,0,0,1,23.81,7.5,17.79,17.79,0,0,1,38.42,25Z"/><path class="cls-4" d="M38,25A14,14,0,0,1,24,39a13.15,13.15,0,0,1-1.89-.13,14,14,0,0,1,0-27.74A13.14,13.14,0,0,1,24,11,14,14,0,0,1,38,25Z"/><path class="cls-2" d="M34.21,25a14,14,0,0,1-10.6,13.58,14.71,14.71,0,0,1-1.5.29,14,14,0,0,1,0-27.74,14.72,14.72,0,0,1,1.5.29A14,14,0,0,1,34.21,25Z"/><path class="cls-5" d="M34.21,25a14,14,0,0,1-10.6,13.58,14,14,0,0,1,0-27.16A14,14,0,0,1,34.21,25Z"/><rect class="cls-5" height="3.56" width="6.38" x="20.63" y="3.19"/><rect class="cls-4" height="3.25" width="2.17" x="24.83" y="3.5"/><rect class="cls-2" height="3.25" width="1.9" x="21.08" y="3.5"/><rect class="cls-6" height="2.73" rx="1.36" ry="1.36" width="2.73" x="22.64" y="23.64"/><path class="cls-7" d="M37.61,11.77l.1-.06.79-.79.79.79a1,1,0,0,0,1.41-1.41l-3-3a1,1,0,0,0-1.41,1.41l.79.79-.79.79a1,1,0,0,0-.1.15,18.94,18.94,0,0,0-8.19-4V3a1,1,0,0,0-1-1H21a1,1,0,0,0-1,1V6.43a19,19,0,1,0,17.61,5.34ZM22,4h4V6.11a18.66,18.66,0,0,0-4,0Zm2,38A17,17,0,1,1,41,25,17,17,0,0,1,24,42Z"/><path class="cls-7" d="M24,10A15,15,0,1,0,39,25,15,15,0,0,0,24,10Zm0,28A13,13,0,1,1,37,25,13,13,0,0,1,24,38Z"/><path class="cls-7" d="M25,22.18V16a1,1,0,0,0-2,0v6.18a3,3,0,0,0-1.6,4.27l-5.15,5.88a1,1,0,0,0,1.5,1.32l5.14-5.87A3,3,0,1,0,25,22.18ZM24,26a1,1,0,0,1-.66-.26A1,1,0,0,1,23,25a1,1,0,1,1,1,1Z"/></svg>