<?xml version="1.0" ?><svg id="icons" viewBox="0 0 48 48" xmlns="http://www.w3.org/2000/svg"><defs><style>.cls-1{fill:#efd5bb;}.cls-2{fill:#dca898;}.cls-3{fill:#fff;}.cls-4{fill:#42210b;}</style></defs><title/><path class="cls-1" d="M36,38V33H33.81a27.64,27.64,0,0,1-3.69-5.63c-.93-1.9-1.27-5.12-1.38-7.52a9,9,0,1,0-9.41,0,51.43,51.43,0,0,1-1.64,7.61A24.85,24.85,0,0,1,14,33H12v5H8v5H40V38Z"/><rect class="cls-2" height="5.06" width="4.44" x="31.19" y="33"/><rect class="cls-3" height="5.06" width="4.44" x="12.25" y="32.97"/><rect class="cls-2" height="5.06" width="4.78" x="35" y="37.94"/><rect class="cls-3" height="5.06" width="4.78" x="8" y="37.97"/><path class="cls-3" d="M21.14,20.89a35.41,35.41,0,0,1-1.25,7.18c-.83,2.32-.41,3.65.47,3.94S16,32.7,16,32.83s-1.37-.59-1.37-.59,3-3.53,3.57-6.51,1.12-5.85,1.12-5.85Z"/><path class="cls-3" d="M21.4,4.44A9.17,9.17,0,0,0,17.56,12a8.45,8.45,0,0,0,3.83,7.56l-2.07.33s-4.89-3.35-4.24-8.43A9.75,9.75,0,0,1,20,4.28Z"/><path class="cls-2" d="M25.69,4.16A9.56,9.56,0,0,1,29.52,12a8.8,8.8,0,0,1-3.83,7.83l2.07.34S32.65,16.7,32,11.44A10.06,10.06,0,0,0,27.13,4Z"/><path class="cls-2" d="M31.19,32.85a15.2,15.2,0,0,1-3.37-6.14c-.88-3.14-.79-4.69-2.5-4.79C24.2,21.85,28,20,28,20l1.81,4.58,3.38,7.63Z"/><path class="cls-4" d="M40,37H37V33a1,1,0,0,0-1-1H34.38c-1-.92-4.38-4.67-4.38-12v0a10,10,0,1,0-12,0v0c0,7.33-3.41,11.08-4.38,12H12a1,1,0,0,0-1,1v4H8a1,1,0,0,0-1,1v5a1,1,0,0,0,1,1H40a1,1,0,0,0,1-1V38A1,1,0,0,0,40,37ZM16,12a8,8,0,1,1,8,8A8,8,0,0,1,16,12Zm4,9.14a9.92,9.92,0,0,0,8.08,0A19,19,0,0,0,31.72,32H16.28A19,19,0,0,0,20,21.14ZM13,34H35v3H13Zm26,8H9V39H39Z"/></svg>