<?xml version="1.0" ?><svg id="icons" viewBox="0 0 48 48" xmlns="http://www.w3.org/2000/svg"><defs><style>.cls-1{fill:#efd5bb;}.cls-2{fill:#6d645c;}.cls-3{fill:#fff;}.cls-4{fill:#54463a;}.cls-5{fill:#dca898;}.cls-6{fill:#42210b;}</style></defs><title/><rect class="cls-1" height="38" rx="3.94" ry="3.94" width="32.19" x="7.94" y="5"/><rect class="cls-2" height="4.75" width="13.17" x="17.92" y="3.25"/><rect class="cls-2" height="4.75" width="13.17" x="18.08" y="3.25"/><rect class="cls-3" height="4.75" width="1.83" x="18.08" y="3.25"/><rect class="cls-4" height="4.75" width="1.83" x="29.08" y="3.25"/><rect class="cls-3" height="38.27" rx="1.03" ry="1.03" width="2.06" x="8.5" y="4.83"/><rect class="cls-5" height="38.27" rx="1.03" ry="1.03" width="2.06" x="37.52" y="4.83"/><path class="cls-6" d="M37,4H32V3a1,1,0,0,0-1-1H18a1,1,0,0,0-1,1V4H11A4,4,0,0,0,7,8V40a4,4,0,0,0,4,4H37a4,4,0,0,0,4-4V8A4,4,0,0,0,37,4ZM19,4H30V7H19ZM39,40a2,2,0,0,1-2,2H11a2,2,0,0,1-2-2V8a2,2,0,0,1,2-2h6V8a1,1,0,0,0,1,1H31a1,1,0,0,0,1-1V6h5a2,2,0,0,1,2,2Z"/><path class="cls-6" d="M34,14H14a1,1,0,0,0,0,2H34a1,1,0,0,0,0-2Z"/><path class="cls-6" d="M34,20H14a1,1,0,0,0,0,2H34a1,1,0,0,0,0-2Z"/><path class="cls-6" d="M34,26H14a1,1,0,0,0,0,2H34a1,1,0,0,0,0-2Z"/><path class="cls-6" d="M24,32H14a1,1,0,0,0,0,2H24a1,1,0,0,0,0-2Z"/></svg>