<?xml version="1.0" ?><svg id="icons" viewBox="0 0 48 48" xmlns="http://www.w3.org/2000/svg"><defs><style>.cls-1{fill:#efd5bb;}.cls-2{fill:#fff;}.cls-3{fill:#dca898;}.cls-4{fill:#42210b;}</style></defs><title/><path class="cls-1" d="M42.05,9.16a2.34,2.34,0,0,0-1.41,4.21l-8.51,9.23L33.69,8.82l.2,0a2.35,2.35,0,1,0-.9-.18l-6.07,12-2.63-15a2.38,2.38,0,1,0-.6,0L20.91,20.78l-6-12.05a2.57,2.57,0,1,0-.68.22l1.58,13.66L7.2,13.23a2.48,2.48,0,1,0-.59.3L14,32.88l-2,.06-.06,4.94L8,38v5H39.88L40,38H36V33H34l7.26-19.3a2.34,2.34,0,1,0,.8-4.54Z"/><path class="cls-2" d="M6.15,10a1.75,1.75,0,0,0-.79,1.58,1.84,1.84,0,0,0,1,1.48s-1.35.35-1.77.13S3,11.31,3.21,11A14.32,14.32,0,0,1,5.15,9.17,10.29,10.29,0,0,1,6.15,10Z"/><path class="cls-2" d="M14.15,5a1.75,1.75,0,0,0-.79,1.58,1.84,1.84,0,0,0,1,1.48s-1.35.35-1.77.13S11,6.31,11.21,6a14.32,14.32,0,0,1,1.94-1.87A10.29,10.29,0,0,1,14.15,5Z"/><rect class="cls-3" height="5.06" width="4.78" x="35" y="37.94"/><polyline class="cls-2" points="8 37.97 12.78 37.97 12.78 43.03 8 43.03"/><path class="cls-2" d="M15.48,28.64h0L10.9,17.33,7.76,14.42l-.11,2.52L14,32.38v.25L12,33v5h5V33h2l.25-1A5.31,5.31,0,0,1,15.48,28.64Z"/><path class="cls-3" d="M32.64,28.64h0l4.59-11.31,3.14-2.91L40,17.16,34.24,32.35l-.24.28L36,33v5H31V33H29.13l-.25-1A5.31,5.31,0,0,0,32.64,28.64Z"/><path class="cls-3" d="M41.77,10a1.75,1.75,0,0,1,.79,1.58,1.84,1.84,0,0,1-1,1.48s1.35.35,1.77.13,1.54-1.87,1.33-2.15a14.32,14.32,0,0,0-1.94-1.87A10.29,10.29,0,0,0,41.77,10Z"/><path class="cls-3" d="M33.77,5a1.75,1.75,0,0,1,.79,1.58,1.84,1.84,0,0,1-1,1.48s1.35.35,1.77.13S36.92,6.31,36.71,6a14.32,14.32,0,0,0-1.94-1.87A10.29,10.29,0,0,0,33.77,5Z"/><path class="cls-4" d="M46.32,31,37,27.88,41.93,15H42a3.51,3.51,0,1,0-3.13-1.94,3,3,0,0,0,.35.52L33.4,20l1.25-10a3.6,3.6,0,0,0,1.12-.42,3.46,3.46,0,0,0,1.73-3A3.54,3.54,0,0,0,32,3.62a3.74,3.74,0,0,0-.48.41,3.43,3.43,0,0,0-1,2.47,3.42,3.42,0,0,0,1.28,2.69l-4.31,8.63-2-11.17.5-.29A3.56,3.56,0,0,0,27.15,5,3.53,3.53,0,0,0,27.5,3.5,3.47,3.47,0,0,0,25.26.25,3.42,3.42,0,0,0,21.54,1a3.43,3.43,0,0,0-1,2.47A3.55,3.55,0,0,0,20.86,5a3.53,3.53,0,0,0,1.66,1.6l-2,11.17L16.22,9.19a3.07,3.07,0,0,0,.26-.25,3.58,3.58,0,0,0,1-2.44,3.59,3.59,0,0,0-4.44-3.37A3.5,3.5,0,0,0,10.86,8a3.51,3.51,0,0,0,2.5,1.88l1.26,10L8.79,13.58a.25.25,0,0,0,0-.07A2.87,2.87,0,0,0,9.15,13,3.5,3.5,0,0,0,4.53,8.32a2.88,2.88,0,0,0-1,.71,3.43,3.43,0,0,0-1,2.47A3.55,3.55,0,0,0,2.86,13,3.49,3.49,0,0,0,5.55,15,2.28,2.28,0,0,0,6,15h.07l1,2.68L2.33,16A1,1,0,0,0,1.68,18L8,20.11l2.46.84,3.34,1.14L17,23.17l17.42,5.94,1.9.64L45.68,33A1.13,1.13,0,0,0,46,33a1,1,0,0,0,.32-2Zm-4.69-21A1.49,1.49,0,0,1,43.5,11.5a1.54,1.54,0,0,1-.92,1.38,1.42,1.42,0,0,1-1.84-.68A1.69,1.69,0,0,1,40.66,11a1.45,1.45,0,0,1,.94-1ZM6,13a1.43,1.43,0,0,1-.71-.17A1.5,1.5,0,1,1,7.5,11.5,1.53,1.53,0,0,1,6,13Zm3.56,5.54-.74-1.93L11,19ZM34,5a1.5,1.5,0,0,1,1.5,1.5,1.27,1.27,0,0,1,0,.34,1.56,1.56,0,0,1-1,1.07,1.52,1.52,0,0,1-2-1.41A1.5,1.5,0,0,1,34,5ZM24,2a1.5,1.5,0,0,1,1.5,1.5,1.47,1.47,0,0,1-.16.67,1.5,1.5,0,0,1-2.69,0,1.44,1.44,0,0,1-.15-.65A1.5,1.5,0,0,1,24,2ZM15.33,7.17a1.54,1.54,0,0,1-.72.69A1.49,1.49,0,1,1,15.5,6.5,1.45,1.45,0,0,1,15.33,7.17ZM35.12,27.24,16.75,21V20.9l-1-8.23,4.39,8.78A1,1,0,0,0,21,22h.14a1,1,0,0,0,.84-.82L24,9.74l2,11.43a1,1,0,0,0,.84.82H27a1,1,0,0,0,.89-.55l4.39-8.78L31,22.88a1,1,0,0,0,.57,1A1.06,1.06,0,0,0,32,24a1,1,0,0,0,.74-.33l6.44-7.08Z"/><path class="cls-4" d="M40,37H37V33a1,1,0,0,0-1-1H14.69L11.5,23.64a1,1,0,0,0-1.89.64.24.24,0,0,0,0,.08L12.55,32H12a1,1,0,0,0-1,1v4H8a1,1,0,0,0-1,1v5a1,1,0,0,0,1,1H40a1,1,0,0,0,1-1V38A1,1,0,0,0,40,37ZM13,34H35v3H13Zm26,8H9V39H39Z"/></svg>