<?xml version="1.0" ?><svg id="icons" viewBox="0 0 48 48" xmlns="http://www.w3.org/2000/svg"><defs><style>.cls-1{fill:#6d645c;}.cls-2{fill:#efd5bb;}.cls-3{fill:#fff;}.cls-4{fill:#dca898;}.cls-5{fill:#54463a;}.cls-6{fill:#42210b;}</style></defs><title/><rect class="cls-1" height="24" width="43.75" x="1.75" y="15"/><circle class="cls-2" cx="13" cy="27" r="7"/><path class="cls-3" d="M13,33.6a7,7,0,0,1-1.13.3,7,7,0,0,1,0-13.8,7,7,0,0,1,1.13.3,7,7,0,0,0,0,13.2Z"/><path class="cls-4" d="M20,27a7,7,0,0,1-5.87,6.9A7,7,0,0,1,13,33.6a7,7,0,0,0,0-13.2,7,7,0,0,1,1.13-.3A7,7,0,0,1,20,27Z"/><circle class="cls-2" cx="35" cy="27" r="7"/><path class="cls-3" d="M35,33.6a7,7,0,0,1-1.13.3,7,7,0,0,1,0-13.8,7,7,0,0,1,1.13.3,7,7,0,0,0,0,13.2Z"/><path class="cls-4" d="M42,27a7,7,0,0,1-5.87,6.9A7,7,0,0,1,35,33.6a7,7,0,0,0,0-13.2,7,7,0,0,1,1.13-.3A7,7,0,0,1,42,27Z"/><rect class="cls-3" height="23.87" width="2.67" x="2.33" y="15"/><rect class="cls-5" height="23.87" width="2.67" x="21" y="15"/><rect class="cls-3" height="23.87" width="2.67" x="24.33" y="15"/><rect class="cls-5" height="23.87" width="2.67" x="43" y="15"/><path class="cls-6" d="M46,14H36V12h1a1,1,0,0,0,0-2H33a1,1,0,0,0,0,2h1v2H14V12h1a1,1,0,0,0,0-2H11a1,1,0,0,0,0,2h1v2H2a1,1,0,0,0-1,1V39a1,1,0,0,0,1,1H46a1,1,0,0,0,1-1V15A1,1,0,0,0,46,14ZM3,16H23V38H3ZM45,38H25V16H45Z"/><path class="cls-6" d="M13,19a8,8,0,1,0,8,8A8,8,0,0,0,13,19Zm0,14a6,6,0,1,1,6-6A6,6,0,0,1,13,33Z"/><path class="cls-6" d="M27,27a8,8,0,1,0,8-8A8,8,0,0,0,27,27Zm14,0a6,6,0,1,1-6-6A6,6,0,0,1,41,27Z"/><path class="cls-6" d="M15.12,23.46l-2.83,2.83a1,1,0,1,0,1.41,1.41l2.83-2.83a1,1,0,0,0-1.41-1.41Z"/><path class="cls-6" d="M34.29,26.29l-2.83,2.83a1,1,0,1,0,1.41,1.41l2.83-2.83a1,1,0,0,0-1.41-1.41Z"/></svg>