<?xml version="1.0" ?><svg id="icons" viewBox="0 0 48 48" xmlns="http://www.w3.org/2000/svg"><defs><style>.cls-1{fill:#6d645c;}.cls-2{fill:#54463a;}.cls-3{fill:#fff;}.cls-4{fill:#42210b;}</style></defs><title/><path class="cls-1" d="M26.66,4.84S38.08,15.55,38,22.55A13.93,13.93,0,0,1,33.38,33H36l.06,5H40v5H8V38h4V33h3a12.77,12.77,0,0,1-4.81-12.19C11.44,12.81,21.44,5,21.44,5S21.13.87,24,1.19,26.66,4.84,26.66,4.84Z"/><rect class="cls-2" height="5.06" width="4.44" x="31.19" y="33"/><rect class="cls-3" height="5.06" width="4.73" x="12.25" y="32.97"/><rect class="cls-2" height="5.06" width="4.78" x="35" y="37.94"/><rect class="cls-3" height="5.06" width="4.78" x="8" y="37.97"/><polygon class="cls-3" points="22.54 6.23 22.54 6.23 22.71 6.41 22.54 6.23"/><path class="cls-3" d="M15.73,29.27a11.45,11.45,0,0,1-2.18-4.35c-1.1-4.62,1.52-8.56,2.66-10,.77-1,1.49-2,2.22-3l4.11-5.71-1.1-1.17L12.71,15.21s-2.67,4.63-2.79,9S14,33,14,33c0,1,4.88,0,4.88,0l0-.6L20,32A8.1,8.1,0,0,1,15.73,29.27Z"/><polygon class="cls-2" points="25.29 6.41 25.46 6.23 25.46 6.23 25.29 6.41"/><path class="cls-2" d="M35.29,15.21,26.56,5.06l-1.1,1.17,4.11,5.71.42.58-5.3,7.15c0-.06,4.37-3.86,6.36-5.72.29.39.44.59.75,1,1.14,1.44,3.76,5.38,2.66,10a11.49,11.49,0,0,1-2.24,4.42A8.34,8.34,0,0,1,27.53,32l1.56.61,0,.42S34,34,34,33c0,0,4.21-4.33,4.08-8.75S35.29,15.21,35.29,15.21Z"/><path class="cls-3" d="M24.15,2a1.75,1.75,0,0,0-.79,1.58,1.84,1.84,0,0,0,1,1.48s-1.35.35-1.77.13S21,3.31,21.21,3a14.32,14.32,0,0,1,1.94-1.87A10.29,10.29,0,0,1,24.15,2Z"/><path class="cls-4" d="M40,37H37V33a1,1,0,0,0-1-1h-.76l.38-.42a13.14,13.14,0,0,0,.21-17.31L27.37,4.39a3.47,3.47,0,0,0,.13-.89,3.5,3.5,0,0,0-7,0,3.48,3.48,0,0,0,.13.89l-8.46,9.87a13.13,13.13,0,0,0,.2,17.31l.38.42H12a1,1,0,0,0-1,1v4H8a1,1,0,0,0-1,1v5a1,1,0,0,0,1,1H40a1,1,0,0,0,1-1V38A1,1,0,0,0,40,37ZM24,2a1.5,1.5,0,0,1,1.35,2.15h0a1.5,1.5,0,0,1-2.68,0h0a1.48,1.48,0,0,1-.15-.65A1.5,1.5,0,0,1,24,2ZM13.86,30.24a11.13,11.13,0,0,1-.17-14.67l8-9.4h0a3.49,3.49,0,0,0,4.5,0h0l3.38,3.95-6.43,8.27a1,1,0,1,0,1.58,1.23L31,11.67l3.34,3.9a11.13,11.13,0,0,1-.17,14.67L32.55,32H15.45ZM13,34H35v3H13Zm26,8H9V39H39Z"/></svg>