<?xml version="1.0" ?><svg id="icons" viewBox="0 0 48 48" xmlns="http://www.w3.org/2000/svg"><defs><style>.cls-1{fill:#efd5bb;}.cls-2{fill:#6d645c;}.cls-3{fill:#dca898;}.cls-4{fill:#fff;}.cls-5{fill:#54463a;}.cls-6{fill:#42210b;}</style></defs><title/><rect class="cls-1" height="18.58" width="18.58" x="5.17" y="5.42"/><rect class="cls-1" height="18.58" width="18.58" x="24.21" y="24.21"/><rect class="cls-2" height="18.58" width="18.58" x="24.21" y="5.21"/><rect class="cls-2" height="18.58" width="18.58" x="5.21" y="24.21"/><rect class="cls-3" height="18.58" width="2.54" x="40.25" y="24.21"/><rect class="cls-3" height="18.58" width="2.54" x="21.46" y="5.42"/><rect class="cls-3" height="18.58" width="2.54" x="40.25" y="24.21"/><rect class="cls-3" height="18.58" width="2.54" x="21.46" y="5.42"/><rect class="cls-4" height="18.58" width="2.54" x="24" y="24.21"/><rect class="cls-4" height="18.58" width="2.54" x="5.21" y="5.42"/><rect class="cls-4" height="18.58" transform="translate(12.96 67) rotate(180)" width="2.54" x="5.21" y="24.21"/><rect class="cls-4" height="18.58" transform="translate(50.54 29.42) rotate(180)" width="2.54" x="24" y="5.42"/><rect class="cls-5" height="18.58" transform="translate(45.46 67) rotate(180)" width="2.54" x="21.46" y="24.21"/><rect class="cls-5" height="18.58" transform="translate(83.04 29.42) rotate(180)" width="2.54" x="40.25" y="5.42"/><path class="cls-6" d="M43.92,4.62A1,1,0,0,0,43,4H5A1,1,0,0,0,4,5V43a1,1,0,0,0,1,1H43a1,1,0,0,0,1-1V5A1,1,0,0,0,43.92,4.62ZM23,42H6V25H23Zm0-19H6V6H23ZM42,42H25V25H42Zm0-19H25V6H42Z"/></svg>