<?xml version="1.0" ?><svg id="icons" viewBox="0 0 48 48" xmlns="http://www.w3.org/2000/svg"><defs><style>.cls-1{fill:#efd5bb;}.cls-2{fill:#dca898;}.cls-3{fill:#42210b;}</style></defs><title/><path class="cls-1" d="M26.91,21.55s0,5.8,2.41,9.45H31v4l-14-.22V31l2-.06s2.63-6.16,2.28-9.39A6.16,6.16,0,0,1,19,17a4.53,4.53,0,0,1,5-4.84c2.81.13,5.13,2.09,4.84,4.84A8.56,8.56,0,0,1,26.91,21.55Z"/><path class="cls-2" d="M23.71,22.83l1.84,8.29,1.45,0V35h3.73l-.17-4L29,30.92l-2.23-9.08s1.88-2.81,2.06-4.76-2.4-4.94-4.56-4.93l-.1.85s2.49,1.74,2.46,4.17a4.24,4.24,0,0,1-2.71,3.77Z"/><path class="cls-3" d="M16.73,30c-.55,0-.73.45-.73,1v4c0,.55.18,1,.73,1H31.27c.55,0,.73-.45.73-1V31c0-.55-.18-1-.73-1H30.16A18.39,18.39,0,0,1,28,21.44a6,6,0,1,0-8,0A18.39,18.39,0,0,1,17.84,30ZM30,34H18V32H30ZM24,13a4,4,0,1,1-4,4A4,4,0,0,1,24,13Zm-2.06,9.62a5.82,5.82,0,0,0,4.12,0A20.4,20.4,0,0,0,27.91,30H20.09A20.4,20.4,0,0,0,21.94,22.62Z"/><path class="cls-3" d="M44.71,33.29a1,1,0,0,0-1.41,0L42,34.59V12a8,8,0,0,0-8-8H14a1,1,0,0,0,0,2H34a6,6,0,0,1,6,6V34.59l-1.29-1.29a1,1,0,0,0-1.41,1.41l3,3a1,1,0,0,0,1.41,0l3-3A1,1,0,0,0,44.71,33.29Z"/><path class="cls-3" d="M34,42H14a6,6,0,0,1-6-6V13.41l1.29,1.29a1,1,0,0,0,1.41-1.41l-3-3a1,1,0,0,0-1.41,0l-3,3a1,1,0,0,0,1.41,1.41L6,13.41V36a8,8,0,0,0,8,8H34a1,1,0,0,0,0-2Z"/></svg>