<?xml version="1.0" ?><svg id="icons" viewBox="0 0 48 48" xmlns="http://www.w3.org/2000/svg"><defs><style>.cls-1{fill:#6d645c;}.cls-2{fill:#54463a;}.cls-3{fill:#fff;}.cls-4{fill:#42210b;}</style></defs><title/><path class="cls-1" d="M35.81,38.13l0-5.28-1.91.06A76.4,76.4,0,0,1,31,23.69,61.47,61.47,0,0,1,30.34,15H36V3H31V8H27V3H21V8H17V3H12V15h5.88c0-.08,0,0,0,0h0s0,0,0,.07c-.06,1-.51,8.14-1.41,10.73C15.51,28.57,14.13,33,14,33s-2-.07-2-.07V38H8v5H40V38Z"/><rect class="cls-2" height="12.25" width="2.94" x="33.28" y="2.72"/><rect class="cls-3" height="12.25" width="2.94" x="11.53" y="2.72"/><path class="cls-2" d="M34,33H31.5c-2.67-3.48-3.82-10.85-4.27-15a3.42,3.42,0,0,0-2.51-2l1.59-1.31.68.69c0-.25,0-.38,0-.38h3.15s.09,4.33.36,6.83S34,33,34,33Z"/><rect class="cls-2" height="5.06" width="4.44" x="31.19" y="33"/><rect class="cls-3" height="5.06" width="4.44" x="12.25" y="32.97"/><rect class="cls-2" height="5.06" width="4.78" x="35" y="37.94"/><rect class="cls-3" height="5.06" width="4.78" x="8" y="37.97"/><path class="cls-3" d="M21,15s-.7,13-4.53,18h-2.5S17,24.13,17.29,21.63s.52-6.63.52-6.63Z"/><path class="cls-3" d="M21,32s-3.07-.26-2.55-2.89S17,30.42,16.91,30.55s-.72,2.23-.72,2.23Z"/><path class="cls-4" d="M46.32,31.05,32.77,26.43A44.49,44.49,0,0,1,31,16h5a1,1,0,0,0,1-1V3a1,1,0,0,0-1-1H31a1,1,0,0,0-1,1V7H28V3a1,1,0,0,0-1-1H21a1,1,0,0,0-1,1V7H18V3a1,1,0,0,0-1-1H12a1,1,0,0,0-1,1V15a1,1,0,0,0,1,1h5a37.69,37.69,0,0,1-.5,4.88L2.32,16.05a1,1,0,0,0-.65,1.89l44,15A1,1,0,0,0,46,33a1,1,0,0,0,.32-1.95ZM19,16H29a44.19,44.19,0,0,0,1.46,9.65L18.39,21.53A39.93,39.93,0,0,0,19,16ZM13,4h3V8a1,1,0,0,0,1,1h4a1,1,0,0,0,1-1V4h4V8a1,1,0,0,0,1,1h4a1,1,0,0,0,1-1V4h3V14H13Z"/><path class="cls-4" d="M40,37H37V33a1,1,0,0,0-1-1H34.66c-.13-.33-.31-.78-.52-1.35a1,1,0,0,0-1.88.69l.25.65H15.45A23.21,23.21,0,0,0,17,26a1,1,0,0,0-2,0,25.58,25.58,0,0,1-1.68,6H12a1,1,0,0,0-1,1v4H8a1,1,0,0,0-1,1v5a1,1,0,0,0,1,1H40a1,1,0,0,0,1-1V38A1,1,0,0,0,40,37ZM13,34H35v3H13Zm26,8H9V39H39Z"/></svg>