<?xml version="1.0" ?><svg id="icons" viewBox="0 0 48 48" xmlns="http://www.w3.org/2000/svg"><defs><style>.cls-1{fill:#6d645c;}.cls-2{fill:#fff;}.cls-3{fill:#54463a;}.cls-4{fill:#42210b;}</style></defs><title/><path class="cls-1" d="M42.05,9.16a2.34,2.34,0,0,0-1.41,4.21l-8.51,9.23L33.69,8.82l.2,0a2.35,2.35,0,1,0-.9-.18l-6.07,12-2.63-15a2.38,2.38,0,1,0-.6,0L20.91,20.78l-6-12.05a2.57,2.57,0,1,0-.68.22l1.58,13.66L7.2,13.23a2.48,2.48,0,1,0-.59.3L14,32.88l-2,.06-.06,4.94L8,38v5H39.88L40,38H36V33H34l7.26-19.3a2.34,2.34,0,1,0,.8-4.54Z"/><path class="cls-2" d="M6.15,10a1.75,1.75,0,0,0-.79,1.58,1.84,1.84,0,0,0,1,1.48s-1.35.35-1.77.13S3,11.31,3.21,11A14.32,14.32,0,0,1,5.15,9.17,10.29,10.29,0,0,1,6.15,10Z"/><path class="cls-2" d="M14.15,5a1.75,1.75,0,0,0-.79,1.58,1.84,1.84,0,0,0,1,1.48s-1.35.35-1.77.13S11,6.31,11.21,6a14.32,14.32,0,0,1,1.94-1.87A10.29,10.29,0,0,1,14.15,5Z"/><rect class="cls-3" height="5.06" width="4.78" x="35" y="37.94"/><polyline class="cls-2" points="8 37.97 12.78 37.97 12.78 43.03 8 43.03"/><path class="cls-2" d="M15.48,28.64h0L10.9,17.33,7.76,14.42l.32,2.74L14,32.38v.25L12,33v5h5V33h2l.25-1A5.31,5.31,0,0,1,15.48,28.64Z"/><path class="cls-3" d="M32.64,28.64h0l4.59-11.31,3.14-2.91L40,17.16,34,32.38v.25L36,33v5H31V33H29.13l-.25-1A5.31,5.31,0,0,0,32.64,28.64Z"/><path class="cls-3" d="M41.77,10a1.75,1.75,0,0,1,.79,1.58,1.84,1.84,0,0,1-1,1.48s1.35.35,1.77.13,1.54-1.87,1.33-2.15a14.32,14.32,0,0,0-1.94-1.87A10.29,10.29,0,0,0,41.77,10Z"/><path class="cls-3" d="M33.77,5a1.75,1.75,0,0,1,.79,1.58,1.84,1.84,0,0,1-1,1.48s1.35.35,1.77.13S36.92,6.31,36.71,6a14.32,14.32,0,0,0-1.94-1.87A10.29,10.29,0,0,0,33.77,5Z"/><path class="cls-4" d="M42,8a3.5,3.5,0,0,0-3.5,3.5A3.47,3.47,0,0,0,38.85,13v0a3.54,3.54,0,0,0,.35.53L33.38,20,34.64,9.93A3.5,3.5,0,0,0,37.14,8h0V8A3.47,3.47,0,0,0,37.5,6.5a3.5,3.5,0,0,0-7,0A3.47,3.47,0,0,0,30.85,8V8h0a3.49,3.49,0,0,0,.92,1.14l-4.33,8.65-2-11.2A3.48,3.48,0,0,0,27.14,5h0V5A3.47,3.47,0,0,0,27.5,3.5a3.5,3.5,0,0,0-7,0A3.47,3.47,0,0,0,20.85,5V5h0a3.5,3.5,0,0,0,1.65,1.6l-2,11.19L16.21,9.19a3.46,3.46,0,0,0,.92-1.14h0V8A3.47,3.47,0,0,0,17.5,6.5a3.5,3.5,0,0,0-7,0A3.47,3.47,0,0,0,10.85,8V8h0a3.5,3.5,0,0,0,2.5,1.88L14.62,20,8.78,13.58a3.52,3.52,0,0,0,.35-.52h0v0A3.47,3.47,0,0,0,9.5,11.5a3.5,3.5,0,0,0-7,0A3.47,3.47,0,0,0,2.85,13v0h0A3.51,3.51,0,0,0,6,15h.07l6.48,17H12a1,1,0,0,0-1,1v4H8a1,1,0,0,0-1,1v5a1,1,0,0,0,1,1H40a1,1,0,0,0,1-1V38a1,1,0,0,0-1-1H37V33a1,1,0,0,0-1-1h-.55l6.48-17H42a3.51,3.51,0,0,0,3.14-2h0v0a3.47,3.47,0,0,0,.35-1.53A3.5,3.5,0,0,0,42,8ZM34,5a1.5,1.5,0,1,1-.26,3,1.53,1.53,0,0,1-1.09-.83A1.5,1.5,0,0,1,34,5ZM24,2a1.5,1.5,0,0,1,1.35,2.15h0A1.5,1.5,0,0,1,24.17,5a.89.89,0,0,1-.38,0,1.48,1.48,0,0,1-1.12-.81h0A1.5,1.5,0,0,1,24,2ZM12.66,7.17h0a1.5,1.5,0,1,1,2.7,0h0a1.52,1.52,0,0,1-.84.74,1.08,1.08,0,0,1-.34.08L14,8A1.5,1.5,0,0,1,12.66,7.17Zm-8,5A1.5,1.5,0,1,1,7.5,11.5,1.53,1.53,0,0,1,6,13,1.51,1.51,0,0,1,4.65,12.15ZM39,42H9V39H39ZM13,37V34H35v3Zm1.69-5L8.82,16.59l6.45,7.08a1,1,0,0,0,1.73-.8l-1.27-10.2,4.39,8.77A1,1,0,0,0,21,22h.14a1,1,0,0,0,.84-.82L24,9.74l2,11.43a1,1,0,0,0,.84.82H27a1,1,0,0,0,.89-.55l4.39-8.77L31,22.88a1,1,0,0,0,1.73.8l6.45-7.08L33.31,32ZM43.34,12.17A1.5,1.5,0,0,1,42,13a1.14,1.14,0,0,1-.68-.15,1.49,1.49,0,0,1-.58-.65A1.67,1.67,0,0,1,40.66,11a1.49,1.49,0,0,1,.55-.76A1.44,1.44,0,0,1,42,10a1.48,1.48,0,0,1,1.48,1.5A1.55,1.55,0,0,1,43.34,12.17Z"/></svg>