<?xml version="1.0" ?><svg id="icons" viewBox="0 0 48 48" xmlns="http://www.w3.org/2000/svg"><defs><style>.cls-1{fill:#6d645c;}.cls-2{fill:#efd5bb;}.cls-3{fill:#dca898;}.cls-4{fill:#fff;}.cls-5{fill:#54463a;}.cls-6{fill:#42210b;}</style></defs><title/><path class="cls-1" d="M19.16,2.88h8.69A13.16,13.16,0,0,1,41,16V44a0,0,0,0,1,0,0H6a0,0,0,0,1,0,0V16A13.16,13.16,0,0,1,19.16,2.88Z"/><path class="cls-2" d="M23.52,40h0A13.65,13.65,0,0,1,9.88,26.35V15.88H13l.38-3.42,3.87,3.42h20V26.35A13.65,13.65,0,0,1,23.52,40Z"/><rect class="cls-3" height="1.5" width="4" x="21.61" y="24.16"/><rect class="cls-1" height="6.43" rx="1.6" ry="1.6" width="8.07" x="12.96" y="20.86"/><rect class="cls-1" height="6.43" rx="1.6" ry="1.6" width="8.07" x="25.82" y="20.86"/><path class="cls-4" d="M9,8.36V7L7,11V44H9V13c-.09-3,2.28-6.19,2.28-6.19Z"/><path class="cls-5" d="M38,8.36V7l2,4V44H38V13c0-3-2.28-6.19-2.28-6.19Z"/><path class="cls-4" d="M12,27V16H10V29.44l2,5.4V32.39l.44,2,5.19,4,.52-.52S12,34,12,27Z"/><path class="cls-3" d="M35,27V16h2V29.44l-2,5.4V32.39l-.51,2-5.22,4-.47-.52S35,34,35,27Z"/><rect class="cls-4" height="5.5" width="1.38" x="13.44" y="21.41"/><rect class="cls-4" height="5.5" width="1.38" x="13.44" y="21.41"/><rect class="cls-4" height="5.5" width="1.38" x="26.31" y="21.41"/><rect class="cls-5" height="5.5" width="1.38" x="19.28" y="21.41"/><rect class="cls-5" height="5.5" width="1.38" x="32.34" y="21.41"/><path class="cls-6" d="M28,2H19A14,14,0,0,0,5,16V43.75a3.11,3.11,0,0,0,0,.37A1,1,0,0,0,6,45H41a1,1,0,0,0,1-.88,3.11,3.11,0,0,0,0-.37V16A14,14,0,0,0,28,2ZM40,43H7V16A12,12,0,0,1,19,4h9A12,12,0,0,1,40,16Z"/><path class="cls-6" d="M13.65,11.24A1,1,0,0,0,12,12v3H10a1,1,0,0,0-1,1v4a1,1,0,0,0,0,2v4.5a14.5,14.5,0,0,0,29,0V21.91a1,1,0,0,0,0-1.82V16a1,1,0,0,0-1-1H18ZM23.5,39A12.51,12.51,0,0,1,11,26.5V22h1v3a3,3,0,0,0,3,3h4a3,3,0,0,0,3-3h3a3,3,0,0,0,3,3h4a3,3,0,0,0,3-3V22h1v4.5A12.51,12.51,0,0,1,23.5,39ZM20,25a1,1,0,0,1-1,1H15a1,1,0,0,1-1-1V22h5a1,1,0,0,1,1,1Zm7-2a1,1,0,0,1,1-1h5v3a1,1,0,0,1-1,1H28a1,1,0,0,1-1-1Zm9-3H28a3,3,0,0,0-3,3H22a3,3,0,0,0-3-3H11V17h2a1,1,0,0,0,1-1V14.18l3,2.58a1,1,0,0,0,.65.24H36Z"/></svg>