<?xml version="1.0" ?><svg id="icons" viewBox="0 0 48 48" xmlns="http://www.w3.org/2000/svg"><defs><style>.cls-1{fill:#efd5bb;}.cls-2{fill:#dca898;}.cls-3{fill:#fff;}.cls-4{fill:#42210b;}</style></defs><title/><polygon class="cls-1" points="25.56 1.38 35.91 14.22 33.3 26.55 34.13 33 36 33 36 38 40 38 40 43 8 43 8 38 12.11 38.13 12.44 32.94 13.94 32.81 14.06 25.06 22.19 16.94 12.38 17.86 10.88 10.94 24.56 5.88 25.56 1.38"/><rect class="cls-2" height="5.06" width="4.44" x="31.19" y="33"/><rect class="cls-3" height="5.06" width="4.73" x="12.25" y="32.97"/><rect class="cls-2" height="5.06" width="4.78" x="35" y="37.94"/><rect class="cls-3" height="5.06" width="4.78" x="8" y="37.97"/><path class="cls-2" d="M33,27c.08.12,1.09,5.8,1.09,5.8l-3.3.21-.07-.31c-.93,0-3.24-.24-3.24-.24L27.6,32a.75.75,0,0,1,.16-.06l.42-.19a4.14,4.14,0,0,0,1.11-.81,2.36,2.36,0,0,0,.63-1.27,4.71,4.71,0,0,0-.13-1.42l-.08-.39a3.71,3.71,0,0,1,.09-1.9l3.34-10.58a1.85,1.85,0,0,0-.25-1.61l-7-10L25.38,2.2l.18-.82L35.62,13.87S32.92,26.83,33,27Z"/><path class="cls-2" d="M29.94,29l-.11-.5.06.23A2.56,2.56,0,0,1,29.94,29Z"/><path class="cls-3" d="M19.14,32l-.27-.12A3.44,3.44,0,0,1,17,28.75v-.61a6.23,6.23,0,0,1,1-3.4l4.54-7-.6-.61-7.89,7.89L14,33h3v-.4l2.22-.15Z"/><path class="cls-2" d="M11.85,16.29l.37,1.7,10.59-.4.75-.73a1.46,1.46,0,0,0,.44-1h0a1.46,1.46,0,0,0-1.68-1.45Z"/><path class="cls-3" d="M15.57,9.62l-4.29,1.17,0,.12h0l.1.56.07.48c-.73.11-.42,1.38-.42,1.38l.74.22.08.44H12l.4-.11s-.3-1.51,8.24-4.42l3.5-1.18A2.68,2.68,0,0,0,26,6h0Z"/><path class="cls-4" d="M40,37H37V33a1,1,0,0,0-1-1H34.85L34,27l3-12.81a1,1,0,0,0-.21-.87l-11-13A1,1,0,0,0,24,1V5.3L10.66,10.06A1,1,0,0,0,10,11.14l1,7A1,1,0,0,0,12.1,19l7.21-.72-6,6A1,1,0,0,0,13,25v7H12a1,1,0,0,0-1,1v4H8a1,1,0,0,0-1,1v5a1,1,0,0,0,1,1H40a1,1,0,0,0,1-1V38A1,1,0,0,0,40,37ZM15,25.41l7.71-7.71A1,1,0,0,0,21.9,16l-9,.9-.75-5.24L25.34,6.94h0A1,1,0,0,0,26,6V3.73l8.91,10.53L32,26.77a1,1,0,0,0,0,.39L32.82,32H23V28.24l1.89-3.79a1,1,0,1,0-1.79-.89l-2,4A1,1,0,0,0,21,28v4H15ZM13,34H35v3H13Zm26,8H9V39H39Z"/></svg>