<?xml version="1.0" ?><svg id="icons" viewBox="0 0 48 48" xmlns="http://www.w3.org/2000/svg"><defs><style>.cls-1{fill:#efd5bb;}.cls-2{fill:#dca898;}.cls-3{fill:#fff;}.cls-4{fill:#42210b;}</style></defs><title/><path class="cls-1" d="M40.93,24.22c4.53-6.88.8-13.86-5.36-15.28S23.92,11,23.92,11h-.13S18.31,7.52,12.15,8.94,2.25,17.42,6.78,24.3,14.83,33,14.83,33H12l-.25,5H8l-.21,5H39.92l-.21-5H36l-.25-5H32.88S36.4,31.1,40.93,24.22Z"/><polyline class="cls-2" points="35.63 33 35.63 38.06 31.19 38.06 31.19 33"/><polyline class="cls-3" points="16.98 32.97 16.98 38.03 12.25 38.03 12.25 32.97"/><rect class="cls-2" height="5.06" width="4.78" x="35" y="37.94"/><polyline class="cls-3" points="8 37.97 12.78 37.97 12.78 43.03 8 43.03"/><path class="cls-2" d="M33.81,8.6a6.49,6.49,0,0,0-2.35.4H30l-5.79,2.38-.37.61-2.36,2S33,8.12,37.33,11.48a7,7,0,0,1,2.55,5.68c0,4.71-4.59,9.82-7.6,12.67A9.07,9.07,0,0,1,27.06,32l3,.64.17.32h3.69s9.51-8.06,9.22-14.75S38.28,8.23,33.81,8.6Z"/><path class="cls-3" d="M15.6,29.84c-3-2.85-7.6-8-7.6-12.67A7.3,7.3,0,0,1,13.19,10a13.6,13.6,0,0,1,4.51-.16l-1.32-1s-2.66-.55-3-.55a.84.84,0,0,0-.41.26C8.88,8.81,5,12.11,4.78,18.25,4.49,24.94,14,33,14,33h3.69l.17-.32,3-.64A9.07,9.07,0,0,1,15.6,29.84Z"/><path class="cls-4" d="M40,37H37V33a1,1,0,0,0-1-1H15.33c-1.13-.84-6-4.65-8.21-9.42a1,1,0,1,0-1.81.85A27.74,27.74,0,0,0,12.15,32H12a1,1,0,0,0-1,1v4H8a1,1,0,0,0-1,1v5a1,1,0,0,0,1,1H40a1,1,0,0,0,1-1V38A1,1,0,0,0,40,37ZM13,34H35v3H13Zm26,8H9V39H39Z"/><path class="cls-4" d="M46.32,31.05l-7.1-2.42C41.58,25.9,44,22.11,44,18a10.72,10.72,0,0,0-4.61-9C35.9,6.75,31.06,6.92,25,9.47V5h3a1,1,0,0,0,0-2H25V1a1,1,0,0,0-2,0V3H20a1,1,0,0,0,0,2h3V9.47C16.94,6.92,12.1,6.75,8.61,9a10.42,10.42,0,0,0-4.52,7.68l-1.77-.6a1,1,0,1,0-.64,1.89l44,15A1,1,0,0,0,46,33a1,1,0,0,0,.32-1.95ZM9.68,10.66c3.11-2,7.91-1.55,13.89,1.24a1,1,0,0,0,.85,0c6-2.79,10.79-3.22,13.89-1.24A8.84,8.84,0,0,1,42,18c0,3.81-2.55,7.44-4.84,9.93L6,17.32A8.66,8.66,0,0,1,9.68,10.66Z"/></svg>