<?xml version="1.0" ?><svg id="icons" viewBox="0 0 48 48" xmlns="http://www.w3.org/2000/svg"><defs><style>.cls-1{fill:#6d645c;}.cls-2{fill:#54463a;}.cls-3{fill:#fff;}.cls-4{fill:#42210b;}</style></defs><title/><path class="cls-1" d="M36,38V33H33.81a27.64,27.64,0,0,1-3.69-5.63c-.93-1.9-1.27-5.12-1.38-7.52a9,9,0,1,0-9.41,0,51.43,51.43,0,0,1-1.64,7.61A24.85,24.85,0,0,1,14,33H12v5H8v5H40V38Z"/><rect class="cls-2" height="5.06" width="4.44" x="31.19" y="33"/><rect class="cls-3" height="5.06" width="4.44" x="12.25" y="32.97"/><rect class="cls-2" height="5.06" width="4.78" x="35" y="37.94"/><rect class="cls-3" height="5.06" width="4.78" x="8" y="37.97"/><path class="cls-3" d="M21.14,20.89a35.41,35.41,0,0,1-1.25,7.18c-.83,2.32-.41,3.65.47,3.94S16,32.7,16,32.83s-1.37-.59-1.37-.59,3-3.53,3.57-6.51,1.12-5.85,1.12-5.85Z"/><path class="cls-3" d="M21.4,4.44A9.17,9.17,0,0,0,17.56,12a8.45,8.45,0,0,0,3.83,7.56l-2.07.33s-4.89-3.35-4.24-8.43A9.75,9.75,0,0,1,20,4.28Z"/><path class="cls-2" d="M25.69,4.16A9.56,9.56,0,0,1,29.52,12a8.8,8.8,0,0,1-3.83,7.83l2.07.34S32.65,16.7,32,11.44A10.06,10.06,0,0,0,27.13,4Z"/><path class="cls-2" d="M31.19,32.85a15.2,15.2,0,0,1-3.37-6.14c-.88-3.14-.79-4.69-2.5-4.79C24.2,21.85,28,20,28,20a23.65,23.65,0,0,1,1.81,4.58,15.08,15.08,0,0,0,3.38,7.63Z"/><path class="cls-4" d="M40,37H37V33a1,1,0,0,0-1-1H34.38A11.28,11.28,0,0,1,33,30.42a1,1,0,0,0-1.63,1.16l.31.42H16.27a17.18,17.18,0,0,0,2.51-4.66,1,1,0,1,0-1.88-.68A14,14,0,0,1,13.61,32H12a1,1,0,0,0-1,1v4H8a1,1,0,0,0-1,1v5a1,1,0,0,0,1,1H40a1,1,0,0,0,1-1V38A1,1,0,0,0,40,37ZM13,34H35v3H13Zm26,8H9V39H39Z"/><path class="cls-4" d="M46.32,31.05,30.79,25.76s0,0,0,0A20.14,20.14,0,0,1,30,20v0a10,10,0,1,0-12,0v0c0,.47,0,.92-.06,1.38L2.32,16.05a1,1,0,0,0-.65,1.89l44,15A1,1,0,0,0,46,33a1,1,0,0,0,.32-1.95ZM24,22a9.93,9.93,0,0,0,4-.86A22.28,22.28,0,0,0,28.54,25l-8.63-2.94c0-.3,0-.61,0-.91A9.93,9.93,0,0,0,24,22ZM16,12a8,8,0,1,1,8,8A8,8,0,0,1,16,12Z"/></svg>