<?xml version="1.0" ?><svg id="icons" viewBox="0 0 48 48" xmlns="http://www.w3.org/2000/svg"><defs><style>.cls-1{fill:#6d645c;}.cls-2{fill:#fff;}.cls-3{fill:#54463a;}.cls-4{fill:#efd5bb;}.cls-5{fill:#dca898;}.cls-6{fill:#eaeaea;}.cls-7{fill:#42210b;}</style></defs><title/><rect class="cls-1" height="5.13" width="29.83" x="9.17" y="38.87"/><rect class="cls-2" height="5.13" width="3.83" x="9.17" y="38.87"/><rect class="cls-3" height="5.13" width="3.83" x="35" y="38.87"/><rect class="cls-1" height="5.13" width="29.83" x="9.17" y="4.43"/><rect class="cls-2" height="5.13" width="3.83" x="9.17" y="4.43"/><rect class="cls-3" height="5.13" width="3.83" x="35" y="4.43"/><path class="cls-4" d="M36,9v2.79A12.14,12.14,0,0,1,25.8,23.85a11.76,11.76,0,0,1-1.88.22c-.63,0-1.21-.07-1.82-.07h0a3.14,3.14,0,0,1-.42-.09A12.22,12.22,0,0,1,12,11.79V9Z"/><path class="cls-5" d="M36,9v2.79A12.14,12.14,0,0,1,25.8,23.85a8.93,8.93,0,0,1-1.63-.45l-.09,0-.1,0a12,12,0,0,0,8-11.54V9Z"/><path class="cls-4" d="M36,39V36.28A12.14,12.14,0,0,0,25.8,24.22,11.8,11.8,0,0,0,23.92,24c-.63,0-1.21,0-1.82,0h0a1.67,1.67,0,0,0-.42.13A12.26,12.26,0,0,0,12,36.28V39Z"/><path class="cls-6" d="M24,24.74l-.11,0a10.72,10.72,0,0,0-2.32-.54A12.14,12.14,0,0,0,12,36.28V39h4V36.28A12,12,0,0,1,24,24.74Z"/><path class="cls-6" d="M23.9,23.33s0,0-.07,0a10.56,10.56,0,0,1-2.3.54A12.12,12.12,0,0,1,12,11.79V9h4v.79c1.78,0,5.92.21,5.92.21s-6.11.62-6,3.81C16,18.39,19.72,21.89,23.9,23.33Z"/><path class="cls-5" d="M24.48,25s-.45-.45-.41-.46A11,11,0,0,1,26.42,24,12.16,12.16,0,0,1,36,36.12V39H32v-.88c-2,0-5.44-.06-5.44-.06s5.71-.49,5.65-3.69C32.12,29.8,29.29,25.71,24.48,25Z"/><path class="cls-7" d="M37,12V10h2a1,1,0,0,0,1-1V5a1,1,0,0,0-1-1H9A1,1,0,0,0,8,5V9a1,1,0,0,0,1,1h2v2a13,13,0,0,0,8,12,13,13,0,0,0-8,12v2H9a1,1,0,0,0-1,1v4a1,1,0,0,0,1,1H39a1,1,0,0,0,1-1V39a1,1,0,0,0-1-1H37V36a13,13,0,0,0-8-12A13,13,0,0,0,37,12ZM10,8V6H38V8ZM38,40v2H10V40Zm-3-4v2H13V36a11,11,0,0,1,22,0ZM24,23A11,11,0,0,1,13,12V10H35v2A11,11,0,0,1,24,23Z"/></svg>