<svg width="32" height="20" viewBox="0 0 32 20" fill="none" xmlns="http://www.w3.org/2000/svg">
<path d="M0 11.5328V8.43066C1.28823 8.45499 3.96797 8.47932 6.03924 8.50365C8.11051 8.52798 11.2323 8.55231 13.4046 8.57664C15.5769 8.57664 18.6482 8.58881 20.6184 8.61314C22.6139 8.61314 25.18 8.61314 26.3166 8.61314L19.4208 1.64234L21.3911 0L25.4073 3.83212L32 10.0365L25.4073 16.1679L21.3911 20L19.4208 18.3577L26.2788 11.4599C25.1168 11.4599 22.5507 11.4599 20.5805 11.4599C18.6103 11.4355 15.5516 11.4234 13.4046 11.4234C11.2576 11.4234 8.1484 11.4355 6.07713 11.4599C4.03112 11.4599 1.33875 11.4842 0 11.5328Z" fill="white"/>
</svg>
