<svg width="48" height="48" viewBox="0 0 48 48" fill="none" xmlns="http://www.w3.org/2000/svg">
<path fill-rule="evenodd" clip-rule="evenodd" d="M14.897 24C14.897 22.9607 15.0695 21.9642 15.3778 21.0297L9.98529 16.912C8.93429 19.0457 8.34229 21.4502 8.34229 24C8.34229 26.5477 8.93379 28.9505 9.98304 31.083L15.3725 26.9572C15.0673 26.027 14.897 25.0342 14.897 24Z" fill="#FBBC05"/>
<path fill-rule="evenodd" clip-rule="evenodd" d="M24.3641 14.5455C26.6219 14.5455 28.6611 15.3455 30.2634 16.6545L34.9244 12C32.0841 9.52725 28.4426 8 24.3641 8C18.0321 8 12.5901 11.621 9.98438 16.912L15.3766 21.0298C16.6191 17.2583 20.1609 14.5455 24.3641 14.5455Z" fill="#EA4335"/>
<path fill-rule="evenodd" clip-rule="evenodd" d="M24.3641 33.4546C20.1611 33.4546 16.6194 30.7418 15.3769 26.9703L9.98438 31.0873C12.5901 36.3791 18.0321 40.0001 24.3641 40.0001C28.2721 40.0001 32.0034 38.6123 34.8036 36.0123L29.6851 32.0553C28.2409 32.9651 26.4221 33.4546 24.3641 33.4546Z" fill="#34A853"/>
<path fill-rule="evenodd" clip-rule="evenodd" d="M39.659 24.0001C39.659 23.0546 39.5132 22.0363 39.2947 21.0911H24.3647V27.2728H32.9587C32.529 29.3806 31.3595 31.0008 29.6857 32.0553L34.8042 36.0123C37.7457 33.2823 39.659 29.2153 39.659 24.0001Z" fill="#4285F4"/>
</svg>
