<svg width="96" height="96" viewBox="0 0 96 96" fill="none" xmlns="http://www.w3.org/2000/svg">
<path d="M91.7984 41.0881C90.3182 39.4514 89.578 38.633 89.1873 37.6546C89.0176 37.2295 88.8982 36.7861 88.8316 36.3333C88.6781 35.291 88.908 34.2084 89.3676 32.0432C90.1461 28.3759 90.5354 26.5422 89.9869 24.9866C89.7441 24.2978 89.3748 23.6604 88.8981 23.1072C87.8213 21.8577 86.0434 21.2855 82.4877 20.1411C80.3919 19.4666 79.344 19.1293 78.5176 18.4801C78.1468 18.1889 77.8125 17.854 77.5219 17.4828C76.8741 16.6553 76.5375 15.6032 75.8641 13.499C74.7204 9.92492 74.1486 8.13787 72.9019 7.05921C72.3383 6.57151 71.6869 6.19568 70.9825 5.95183C69.4247 5.41248 67.598 5.8105 63.9445 6.60652C61.8047 7.07274 60.7348 7.30585 59.6995 7.16198C59.2252 7.09606 58.7607 6.97232 58.3164 6.79351C57.3468 6.40324 56.5327 5.66694 54.9044 4.19434C52.1094 1.66641 50.7118 0.402438 49.0802 0.0989347C48.371 -0.0329782 47.6435 -0.0329782 46.9343 0.0989347C45.3027 0.402438 43.906 1.6656 41.1127 4.19193C39.4814 5.66733 38.6657 6.40504 37.6933 6.79545C37.2521 6.97257 36.791 7.09541 36.3201 7.16126C35.2823 7.30642 34.2097 7.07272 32.0645 6.60533C28.4073 5.80849 26.5787 5.41007 25.0191 5.95138C24.3208 6.19371 23.6747 6.56578 23.1146 7.04802C21.8635 8.12522 21.2901 9.90691 20.1433 13.4703C19.4746 15.548 19.1403 16.5868 18.4988 17.4083C18.208 17.7807 17.8732 18.1167 17.5018 18.4088C16.6826 19.0532 15.6334 19.3949 13.5349 20.0785C9.88961 21.2658 8.06698 21.8595 6.98803 23.1419C6.54351 23.6703 6.19575 24.273 5.96074 24.9222C5.39032 26.4981 5.78441 28.3545 6.57259 32.0674C7.03082 34.2259 7.25993 35.3052 7.10675 36.347C7.04124 36.7926 6.92464 37.2291 6.75926 37.648C6.37257 38.6275 5.63645 39.4481 4.16421 41.0893C1.6465 43.896 0.38765 45.2993 0.0927269 46.9385C-0.0323262 47.6335 -0.0308813 48.3454 0.0969922 49.0399C0.398567 50.6778 1.66672 52.08 4.20302 54.8844C5.68063 56.5182 6.41943 57.3352 6.80984 58.3077C6.98696 58.7489 7.10979 59.2099 7.17565 59.6808C7.3208 60.7186 7.08676 61.7929 6.61866 63.9413C5.8234 67.5914 5.42576 69.4165 5.96214 70.9715C6.20559 71.6773 6.58149 72.3301 7.06968 72.895C8.1453 74.1395 9.92056 74.7108 13.4711 75.8535C15.5495 76.5225 16.5888 76.8569 17.4103 77.4985C17.7881 77.7935 18.1283 78.1337 18.4233 78.5115C19.0648 79.333 19.3999 80.3743 20.0702 82.457C21.219 86.0263 21.7933 87.811 23.0462 88.8886C23.597 89.3624 24.231 89.7297 24.916 89.972C26.474 90.5229 28.3125 90.1326 31.9896 89.352C34.1556 88.8922 35.2386 88.6622 36.2808 88.8156C36.7267 88.8813 37.1634 88.998 37.5825 89.1636C38.5623 89.5507 39.3906 90.2944 41.0473 91.7819C43.8953 94.3389 45.3193 95.6173 46.9681 95.9098C47.6531 96.0313 48.3541 96.03 49.0386 95.9061C50.6864 95.6076 52.094 94.3345 54.9092 91.7884C56.5481 90.3061 57.3676 89.5649 58.346 89.1742C58.771 89.0045 59.2145 88.8851 59.6672 88.8185C60.7095 88.665 61.7913 88.8947 63.9549 89.354C67.6257 90.1333 69.4611 90.5229 71.0191 89.972C71.7041 89.7297 72.3381 89.3624 72.8889 88.8886C74.1417 87.811 74.7149 86.03 75.8613 82.4679C76.5357 80.3725 76.8729 79.3249 77.522 78.4985C77.8112 78.1302 78.1435 77.798 78.5117 77.5087C79.3381 76.8596 80.3858 76.5224 82.4811 75.848C86.0431 74.7016 87.8242 74.1284 88.9017 72.8755C89.3755 72.3247 89.7428 71.6907 89.9851 71.0057C90.536 69.4477 90.1464 67.6123 89.3671 63.9414C88.9078 61.7778 88.6781 60.696 88.8316 59.6537C88.8982 59.2009 89.0176 58.7575 89.1873 58.3324C89.578 57.354 90.3182 56.5356 91.7984 54.8989C94.3355 52.0936 95.6041 50.6909 95.9043 49.0487C96.0319 48.351 96.0319 47.636 95.9043 46.9383C95.6041 45.2961 94.3355 43.8934 91.7984 41.0881ZM82.5524 61.2833C83.0456 63.5253 83.2922 64.6463 83.1722 65.6373C82.9811 67.2152 82.1581 68.6481 80.8913 69.6081C80.0957 70.211 79.0024 70.563 76.8159 71.2669C75.5267 71.6819 74.8821 71.8894 74.3282 72.2135C73.459 72.722 72.7354 73.4457 72.2269 74.3148C71.9028 74.8688 71.6952 75.5136 71.2801 76.8032C70.5662 79.0209 70.2092 80.1297 69.5927 80.9346C68.6468 82.1694 67.2494 82.978 65.7076 83.1828C64.7025 83.3164 63.5554 83.0716 61.2612 82.5822C59.9512 82.3027 59.2963 82.163 58.6658 82.1655C57.6505 82.1695 56.6536 82.4369 55.7726 82.9415C55.2255 83.2549 54.7333 83.6992 53.7489 84.5878C52.0653 86.1074 51.2236 86.8673 50.3127 87.2527C48.8422 87.8749 47.1815 87.8708 45.714 87.2415C44.805 86.8517 43.9642 86.0853 42.2826 84.5525C41.2867 83.6447 40.7888 83.1908 40.2355 82.8723C39.3564 82.3661 38.3611 82.0966 37.3467 82.0899C36.7083 82.0857 36.0436 82.2275 34.714 82.5112C32.4485 82.9945 31.3157 83.2361 30.3244 83.1093C28.7663 82.9099 27.3532 82.0941 26.4014 80.8444C25.7959 80.0493 25.4431 78.961 24.7376 76.7842C24.3221 75.5024 24.1143 74.8615 23.79 74.3091C23.2813 73.4427 22.5586 72.7215 21.6912 72.2145C21.1382 71.8913 20.4944 71.684 19.2069 71.2695C16.9814 70.5531 15.8687 70.1949 15.0621 69.5758C13.8314 68.6311 13.025 67.2375 12.8192 65.6997C12.6843 64.6918 12.9294 63.543 13.4196 61.2452C13.6987 59.9369 13.8383 59.2827 13.8358 58.6522C13.8318 57.6369 13.5644 56.64 13.0598 55.759C12.7464 55.2119 12.3021 54.7196 11.4136 53.7352C9.8939 52.0517 9.13408 51.2099 8.74868 50.299C8.12648 48.8284 8.13051 47.1678 8.75984 45.7003C9.14966 44.7912 9.91605 43.9504 11.4488 42.2688C12.3566 41.2729 12.8105 40.7749 13.129 40.2217C13.6352 39.3425 13.9047 38.3472 13.9114 37.3328C13.9156 36.6944 13.7738 36.0296 13.4901 34.7001C13.0068 32.4345 12.7652 31.3017 12.892 30.3104C13.0913 28.7522 13.9072 27.3391 15.1568 26.3873C15.9519 25.7818 17.0403 25.429 19.217 24.7234C20.4988 24.308 21.1397 24.1002 21.6921 23.7759C22.5584 23.2671 23.2796 22.5445 23.7866 21.6771C24.1098 21.1241 24.3171 20.4803 24.7316 19.1927C25.448 16.9672 25.8062 15.8545 26.4253 15.0479C27.3699 13.8171 28.7636 13.0107 30.3013 12.8049C31.3092 12.67 32.458 12.9151 34.7557 13.4053C36.0641 13.6844 36.7182 13.824 37.3487 13.8215C38.364 13.8175 39.3609 13.5501 40.2419 13.0455C40.789 12.7321 41.2812 12.2878 42.2656 11.3992C43.9491 9.87956 44.7909 9.11973 45.7018 8.73432C47.1723 8.11211 48.833 8.11614 50.3005 8.74548C51.2095 9.13531 52.0502 9.90171 53.7318 11.4345C54.7278 12.3423 55.2257 12.7962 55.779 13.1147C56.6581 13.6209 57.6534 13.8904 58.6678 13.8971C59.3061 13.9013 59.9709 13.7595 61.3005 13.4758C63.566 12.9925 64.6988 12.7509 65.6901 12.8777C67.2482 13.077 68.6613 13.8929 69.6131 15.1426C70.2186 15.9376 70.5714 17.026 71.2769 19.2028C71.6924 20.4846 71.9002 21.1255 72.2245 21.6779C72.7332 22.5443 73.4559 23.2655 74.3232 23.7725C74.8763 24.0957 75.5201 24.303 76.8076 24.7175C79.0331 25.4339 80.1458 25.7921 80.9524 26.4112C82.1831 27.3559 82.9895 28.7495 83.1953 30.2873C83.3302 31.2951 83.0851 32.444 82.5949 34.7418C82.3158 36.0501 82.1762 36.7043 82.1787 37.3348C82.1827 38.3501 82.4501 39.347 82.9547 40.228C83.2681 40.7751 83.7127 41.2678 84.602 42.253C86.1201 43.9348 86.8791 44.7757 87.2644 45.6846C87.8885 47.1571 87.8845 48.8206 87.2532 50.2901C86.8635 51.1972 86.1011 52.0336 84.5762 53.7066C83.6727 54.6979 83.2209 55.1935 82.9029 55.7452C82.389 56.6369 82.1186 57.648 82.1189 58.6771C82.1191 59.314 82.2635 59.9704 82.5524 61.2833Z" fill="#0A2839"/>
<path d="M82.5524 61.2833C83.0456 63.5253 83.2922 64.6463 83.1722 65.6373C82.9811 67.2152 82.1581 68.6481 80.8913 69.6081C80.0957 70.211 79.0024 70.563 76.8159 71.2669C75.5267 71.6819 74.8821 71.8894 74.3282 72.2135C73.459 72.722 72.7354 73.4457 72.2269 74.3148C71.9028 74.8688 71.6952 75.5136 71.2801 76.8032C70.5662 79.0209 70.2092 80.1297 69.5927 80.9346C68.6468 82.1694 67.2494 82.978 65.7076 83.1828C64.7025 83.3164 63.5554 83.0716 61.2612 82.5822C59.9512 82.3027 59.2963 82.163 58.6658 82.1655C57.6505 82.1695 56.6536 82.4369 55.7726 82.9415C55.2255 83.2549 54.7333 83.6992 53.7489 84.5878C52.0653 86.1074 51.2236 86.8673 50.3127 87.2527C48.8422 87.8749 47.1815 87.8708 45.714 87.2415C44.805 86.8517 43.9642 86.0853 42.2826 84.5525C41.2867 83.6447 40.7888 83.1908 40.2355 82.8723C39.3564 82.3661 38.3611 82.0966 37.3467 82.0899C36.7083 82.0857 36.0436 82.2275 34.714 82.5112C32.4485 82.9945 31.3157 83.2361 30.3244 83.1093C28.7663 82.9099 27.3532 82.0941 26.4014 80.8444C25.7959 80.0493 25.4431 78.961 24.7376 76.7842C24.3221 75.5024 24.1143 74.8615 23.79 74.3091C23.2813 73.4427 22.5586 72.7215 21.6912 72.2145C21.1382 71.8913 20.4944 71.684 19.2069 71.2695C16.9814 70.5531 15.8687 70.1949 15.0621 69.5758C13.8314 68.6311 13.025 67.2375 12.8192 65.6997C12.6843 64.6918 12.9294 63.543 13.4196 61.2452C13.6987 59.9369 13.8383 59.2827 13.8358 58.6522C13.8318 57.6369 13.5644 56.64 13.0598 55.759C12.7464 55.2119 12.3021 54.7196 11.4136 53.7352C9.8939 52.0517 9.13408 51.2099 8.74868 50.299C8.12648 48.8284 8.13051 47.1678 8.75984 45.7003C9.14966 44.7912 9.91605 43.9504 11.4488 42.2688C12.3566 41.2729 12.8105 40.7749 13.129 40.2217C13.6352 39.3425 13.9047 38.3472 13.9114 37.3328C13.9156 36.6944 13.7738 36.0296 13.4901 34.7001C13.0068 32.4345 12.7652 31.3017 12.892 30.3104C13.0913 28.7522 13.9072 27.3391 15.1568 26.3873C15.9519 25.7818 17.0403 25.429 19.217 24.7234C20.4988 24.308 21.1397 24.1002 21.6921 23.7759C22.5584 23.2671 23.2796 22.5445 23.7866 21.6771C24.1098 21.1241 24.3171 20.4803 24.7316 19.1927C25.448 16.9672 25.8062 15.8545 26.4253 15.0479C27.3699 13.8171 28.7636 13.0107 30.3013 12.8049C31.3092 12.67 32.458 12.9151 34.7557 13.4053C36.0641 13.6844 36.7182 13.824 37.3487 13.8215C38.364 13.8175 39.3609 13.5501 40.2419 13.0455C40.789 12.7321 41.2812 12.2878 42.2656 11.3992C43.9491 9.87956 44.7909 9.11973 45.7018 8.73432C47.1723 8.11211 48.833 8.11614 50.3005 8.74548C51.2095 9.13531 52.0502 9.90171 53.7318 11.4345C54.7278 12.3423 55.2257 12.7962 55.779 13.1147C56.6581 13.6209 57.6534 13.8904 58.6678 13.8971C59.3061 13.9013 59.9709 13.7595 61.3005 13.4758C63.566 12.9925 64.6988 12.7509 65.6901 12.8777C67.2482 13.077 68.6613 13.8929 69.6131 15.1426C70.2186 15.9376 70.5714 17.026 71.2769 19.2028C71.6924 20.4846 71.9002 21.1255 72.2245 21.6779C72.7332 22.5443 73.4559 23.2655 74.3232 23.7725C74.8763 24.0957 75.5201 24.303 76.8076 24.7175C79.0331 25.4339 80.1458 25.7921 80.9524 26.4112C82.1831 27.3559 82.9895 28.7495 83.1953 30.2873C83.3302 31.2951 83.0851 32.444 82.5949 34.7418C82.3158 36.0501 82.1762 36.7043 82.1787 37.3348C82.1827 38.3501 82.4501 39.347 82.9547 40.228C83.2681 40.7751 83.7127 41.2678 84.602 42.253C86.1201 43.9348 86.8791 44.7757 87.2644 45.6846C87.8885 47.1571 87.8845 48.8206 87.2532 50.2901C86.8635 51.1972 86.1011 52.0336 84.5762 53.7066C83.6727 54.6979 83.2209 55.1935 82.9029 55.7452C82.389 56.6369 82.1186 57.648 82.1189 58.6771C82.1191 59.314 82.2635 59.9704 82.5524 61.2833Z" fill="#0A2839"/>
<path d="M79.1415 72.1768C78.9987 75.3301 78.9273 76.9067 77.9306 77.9078C76.9339 78.9089 75.3576 78.9872 72.205 79.1438L69.897 79.2585C68.0618 79.3497 67.1441 79.3953 66.38 79.8364C65.6159 80.2776 65.1176 81.0495 64.121 82.5933L62.8448 84.5703C61.1429 87.2066 60.2919 88.5248 58.9342 88.89C57.5765 89.2552 56.1791 88.5419 53.3843 87.1152L51.2744 86.0383C49.6445 85.2062 48.8295 84.7902 47.9505 84.7905C47.0716 84.7907 46.2568 85.2071 44.6273 86.0399L42.6256 87.0629C39.8214 88.4961 38.4193 89.2127 37.0582 88.8445C35.6971 88.4762 34.8476 87.1504 33.1485 84.4989L31.9178 82.5782C30.9248 81.0285 30.4283 80.2536 29.6642 79.8097C28.9001 79.3658 27.981 79.3183 26.1429 79.2234L23.7862 79.1016C20.6583 78.94 19.0944 78.8592 18.1017 77.8666C17.109 76.8739 17.0281 75.3099 16.8664 72.182L16.7478 69.8881C16.6532 68.0574 16.6058 67.1421 16.1649 66.3801C15.7239 65.6181 14.9539 65.121 13.4138 64.1268L11.429 62.8455C8.79265 61.1436 7.4745 60.2927 7.10926 58.935C6.74403 57.5772 7.45736 56.1798 8.88401 53.385L9.96101 51.2751C10.793 49.6452 11.209 48.8303 11.2088 47.9513C11.2086 47.0723 10.7922 46.2575 9.95935 44.628L8.93633 42.6264C7.50313 39.8222 6.78653 38.4201 7.15478 37.059C7.52304 35.6978 8.84882 34.8483 11.5004 33.1493L13.4211 31.9185C14.9708 30.9255 15.7457 30.429 16.1896 29.6649C16.6335 28.9008 16.6809 27.9817 16.7759 26.1436L16.8976 23.787C17.0592 20.6591 17.14 19.0951 18.1327 18.1024C19.1254 17.1097 20.6893 17.0289 23.8172 16.8671L26.1111 16.7486C27.9418 16.6539 28.8572 16.6066 29.6192 16.1656C30.3811 15.7247 30.8783 14.9546 31.8725 13.4145L33.1538 11.4297C34.8556 8.79339 35.7066 7.47523 37.0643 7.10999C38.422 6.74476 39.8194 7.45809 42.6143 8.88475L44.7241 9.96174C46.354 10.7938 47.169 11.2098 48.048 11.2095C48.927 11.2093 49.7417 10.7929 51.3712 9.96009L53.3729 8.93706C56.1771 7.50386 57.5792 6.78727 58.9403 7.15552C60.3014 7.52377 61.1509 8.84956 62.85 11.5011L64.0807 13.4218C65.0737 14.9715 65.5703 15.7464 66.3344 16.1903C67.0985 16.6342 68.0175 16.6817 69.8557 16.7766L72.2123 16.8984C75.3402 17.06 76.9041 17.1408 77.8969 18.1334C78.8896 19.1261 78.9704 20.6901 79.1321 23.8179L79.2507 26.1119C79.3454 27.9426 79.3927 28.8579 79.8336 29.6199C80.2746 30.3819 81.0446 30.879 82.5847 31.8732L84.5696 33.1545C87.2059 34.8564 88.524 35.7073 88.8893 37.065C89.2545 38.4227 88.5412 39.8202 87.1145 42.615L86.0375 44.7249C85.2055 46.3548 84.7895 47.1697 84.7897 48.0487C84.7899 48.9277 85.2064 49.7425 86.0392 51.372L87.0622 53.3736C88.4954 56.1778 89.212 57.5799 88.8437 58.941C88.4755 60.3021 87.1497 61.1517 84.4981 62.8507L82.6022 64.0656C81.0408 65.0661 80.2601 65.5664 79.8155 66.3372C79.371 67.1081 79.3291 68.0344 79.2452 69.887L79.1415 72.1768Z" fill="#FFC83B"/>
<path d="M44.1424 52.3683C44.1368 52.9361 44.238 53.5008 44.4414 54.0304C44.645 54.5603 44.9476 55.0467 45.3348 55.4602C45.722 55.8739 46.1865 56.2069 46.7033 56.437C47.2202 56.6673 47.7777 56.7893 48.3432 56.7945L48.3432 56.7946H48.3547H48.3799C49.5206 56.8009 50.6052 56.3332 51.3998 55.5137C52.1937 54.695 52.6356 53.5918 52.646 52.4491H52.6461V52.4377C52.6461 52.2152 52.7393 51.8076 53.0151 51.1932C53.2793 50.6044 53.6627 49.9299 54.1244 49.2073C55.0486 47.761 56.2121 46.2356 57.1754 44.9737L57.1771 44.9715C57.214 44.923 57.2509 44.8744 57.2878 44.8259C57.8722 44.0571 58.4455 43.3027 58.9471 42.5979L58.9471 42.5979L58.9521 42.5908C60.1434 40.8919 60.8498 38.8811 60.9962 36.7897C61.142 34.7063 60.7268 32.6196 59.7943 30.7659C58.7907 28.5882 57.2371 26.7295 55.2929 25.3947C53.3417 24.055 51.073 23.2954 48.7314 23.2038L48.707 23.2029H48.6825H48.3954C41.1134 23.2029 34.9775 28.5976 34.9775 35.4863C34.9775 36.6308 35.4108 37.7394 36.1993 38.5657C36.9897 39.3939 38.0745 39.8708 39.2187 39.8708C40.3629 39.8708 41.4476 39.3939 42.238 38.5657C43.0265 37.7394 43.4598 36.6308 43.4598 35.4863C43.4598 34.6776 43.9034 33.8242 44.8151 33.1301C45.7155 32.4447 47.0038 31.98 48.4647 31.972C49.2286 32.0244 49.9706 32.2873 50.6156 32.7401C51.2712 33.2005 51.8041 33.8417 52.1523 34.6023L52.1707 34.6425L52.1919 34.6814C52.4211 35.1009 52.5347 35.5844 52.5152 36.0753C52.496 36.5588 52.3488 37.0226 52.0956 37.4149C51.6603 38.025 51.1606 38.681 50.6223 39.3876C50.5817 39.441 50.5408 39.4946 50.4997 39.5486L50.4996 39.5487L50.4733 39.5833C49.0688 41.428 47.5117 43.4732 46.3056 45.5823C45.0953 47.6987 44.1632 50.0041 44.1424 52.3683ZM44.1424 52.3683C44.1424 52.368 44.1424 52.3678 44.1424 52.3675L45.3923 52.38L44.1424 52.3691C44.1424 52.3688 44.1424 52.3685 44.1424 52.3683ZM48.3811 72.7972C51.6079 72.7972 54.125 70.0734 54.125 66.838C54.125 63.6025 51.6079 60.8787 48.3811 60.8787C45.1544 60.8787 42.6373 63.6025 42.6373 66.838C42.6373 70.0734 45.1544 72.7972 48.3811 72.7972Z" fill="#EFD5BB" stroke="#42210B" stroke-width="2.5"/>
</svg>
