<svg width="57" height="35" viewBox="0 0 57 35" fill="none" xmlns="http://www.w3.org/2000/svg">
<path d="M49.9008 23.6C45.2008 19 45.8008 19.7 51.5008 11.8C54.9008 7.00001 56.3008 4.00001 55.9008 2.70001C55.7008 1.90001 53.0008 2.10001 53.0008 2.10001H44.6008C44.6008 2.10001 43.3008 2.10001 42.8008 3.00001C41.9008 4.70001 41.5008 6.80001 39.7008 9.90001C35.9008 16.6 34.4008 17 33.8008 16.6C32.4008 15.6 32.7008 12.7 32.7008 10.6C32.7008 4.10001 33.6008 1.40001 30.9008 0.600012C30.3008 0.400012 29.8008 0.400011 28.9008 0.300011C27.8008 0.200011 26.7008 0.200012 25.7008 0.200012C23.2008 0.200012 21.3008 0.300011 20.0008 0.900011C19.0008 1.40001 18.3008 2.50001 18.8008 2.60001C19.4008 2.70001 20.6008 3.00001 21.3008 3.90001C22.2008 5.10001 22.1008 7.90001 22.1008 7.90001C22.1008 7.90001 22.6008 15.6 20.9008 16.5C19.8008 17.2 18.2008 15.8 14.9008 9.70001C13.2008 6.60001 13.0008 4.50001 11.9008 3.10001C11.2008 2.20001 9.90082 1.90001 9.90082 1.90001H1.90082C1.90082 1.90001 0.500825 1.80001 0.300825 2.20001C-0.0991753 2.70001 0.300825 3.70001 0.300825 3.70001C0.300825 3.70001 6.60083 19.2 13.7008 27C20.0008 34.4 27.4008 34 27.4008 34C27.4008 34 31.7008 34.2 32.3008 33.1C32.7008 32.7 32.8008 31.5 32.8008 31.5C32.8008 31.5 32.7008 26.7 34.8008 26C36.9008 25.3 39.5008 30.6 42.3008 32.6C44.4008 34.2 45.0008 34 46.0008 34C48.0008 34 53.5008 34 53.5008 34C53.5008 34 57.4008 33.6 55.6008 30.3C55.3008 30.1 54.4008 28 49.9008 23.6Z" fill="white"/>
</svg>
