<svg width="48" height="48" viewBox="0 0 48 48" fill="none" xmlns="http://www.w3.org/2000/svg">
<rect width="48" height="48" rx="24" fill="#0A2839"/>
<path d="M12.3091 19.2231C12.3091 19.2231 18.6608 19.2231 18.7197 16C18.7197 16 22.0758 18.6105 28.5158 18.6762L35 18.7345V27.7912C35 27.7912 33.528 38 23.0989 38C12.6698 38 12 26.6974 12 26.6974L12.3091 19.2231Z" fill="#EFD5BB"/>
<path d="M12 24.5C12 23.6716 11.3284 23 10.5 23C9.67157 23 9 23.6716 9 24.5C9 25.3284 9.67157 26 10.5 26C11.3284 26 12 25.3284 12 24.5Z" fill="#EFD5BB"/>
<path d="M38 24.5C38 23.6716 37.3284 23 36.5 23C35.6716 23 35 23.6716 35 24.5C35 25.3284 35.6716 26 36.5 26C37.3284 26 38 25.3284 38 24.5Z" fill="#EFD5BB"/>
<path d="M35 19C35 19 28.8434 19 25.2712 18.0836C22.9847 17.4692 20.7938 16.5541 18.7582 15.3635C18.4951 16.1824 18.0114 16.9167 17.3578 17.4889C16.7043 18.061 15.9052 18.4499 15.0449 18.6145C11.9703 19.2764 12 18.76 12 18.76C12 18.76 13.2477 10.4833 20.0875 10.1487C26.9274 9.81413 27.3878 10.1487 27.3878 10.1487C27.3878 10.1487 34.8143 11.4506 35 19Z" fill="#6D645C"/>
<path d="M20.7387 23H16.2613C15.5647 23 15 23.4776 15 24.0667V26.9333C15 27.5224 15.5647 28 16.2613 28H20.7387C21.4353 28 22 27.5224 22 26.9333V24.0667C22 23.4776 21.4353 23 20.7387 23Z" fill="#6D645C"/>
<path d="M30.7387 23H26.2613C25.5647 23 25 23.4776 25 24.0667V26.9333C25 27.5224 25.5647 28 26.2613 28H30.7387C31.4353 28 32 27.5224 32 26.9333V24.0667C32 23.4776 31.4353 23 30.7387 23Z" fill="#6D645C"/>
<path d="M14.365 19V26.2249C14.3326 28.7472 15.056 31.2251 16.4487 33.3619C17.3191 34.7126 18.544 35.8185 20 36.5681L19.8099 37C19.8099 37 13.3232 35.924 12 27.5791L12.2053 19.183L14.365 19Z" fill="white"/>
<path d="M20 10.2534C20 10.2534 13.9624 13.1485 13.9624 18.209V18.785L12.0603 19C12.0603 19 10.8127 12.0427 19.6689 10L20 10.2534Z" fill="white"/>
<path d="M21 23H20V28H21V23Z" fill="#54463A"/>
<path d="M27 23H26V28H27V23Z" fill="white"/>
<path d="M32.8554 19V26.0638C32.8852 28.645 32.1153 31.1777 30.6413 33.3473C29.7389 34.6996 28.4849 35.8088 27 36.5681L27.1234 37C27.1234 37 33.6268 35.924 35 27.5791L34.9151 19.183L32.8554 19Z" fill="#DCA898"/>
<path d="M27 10.2534C27 10.2534 32.4057 13.1485 32.4057 18.209V18.785L33.9463 19C33.9463 19 35.0477 12.0427 27.277 10L27 10.2534Z" fill="#54463A"/>
<path d="M25 25H22V26H25V25Z" fill="#DCA898"/>
<path d="M38.7107 23.158C38.4111 22.5582 37.8971 22.1028 37.2779 21.8885C36.6587 21.6743 35.983 21.718 35.3945 22.0104V19.0298C35.385 16.3676 34.3556 13.8177 32.5317 11.938C30.7078 10.0583 28.2378 9.00195 25.6622 9H21.3368C18.7568 9.00394 16.2836 10.0651 14.4593 11.9507C12.6349 13.8364 11.6084 16.3928 11.6045 19.0596V22.0402C11.2676 21.8704 10.898 21.7813 10.5232 21.7794C9.85399 21.7794 9.21221 22.0542 8.73902 22.5433C8.26583 23.0324 8 23.6958 8 24.3875C8 25.0792 8.26583 25.7425 8.73902 26.2317C9.21221 26.7208 9.85399 26.9955 10.5232 26.9955C10.9003 26.9844 11.27 26.8851 11.6045 26.7049C11.6045 29.9658 12.8578 33.0931 15.0885 35.3989C17.3192 37.7046 20.3448 39 23.4995 39C26.6543 39 29.6798 37.7046 31.9105 35.3989C34.1413 33.0931 35.3945 29.9658 35.3945 26.7049C35.5037 26.7632 35.617 26.813 35.7333 26.854C36.0497 26.9572 36.3827 26.9945 36.7131 26.9638C37.0435 26.9331 37.3647 26.835 37.6582 26.6751C38.2481 26.352 38.69 25.8005 38.8873 25.1413C39.0846 24.4821 39.0211 23.7689 38.7107 23.158ZM26.0227 23.9031C26.0227 23.7055 26.0987 23.516 26.2339 23.3762C26.369 23.2365 26.5524 23.158 26.7436 23.158H31.0691V26.8838C31.0802 26.9756 31.0725 27.0689 31.0467 27.1575C31.0208 27.2461 30.9773 27.3282 30.9189 27.3984C30.8605 27.4686 30.7885 27.5253 30.7076 27.565C30.6267 27.6047 30.5386 27.6265 30.4491 27.6289H26.7436C26.5524 27.6289 26.369 27.5504 26.2339 27.4107C26.0987 27.2709 26.0227 27.0814 26.0227 26.8838V23.9031ZM31.8981 21.6677H26.7436C26.17 21.6677 25.6199 21.9032 25.2143 22.3224C24.8087 22.7416 24.5809 23.3102 24.5809 23.9031H22.4182C22.4182 23.3102 22.1903 22.7416 21.7847 22.3224C21.3791 21.9032 20.829 21.6677 20.2554 21.6677H13.0464V19.4322H13.3347C15.1082 19.4322 18.2297 18.7616 19.102 16.4516C20.7961 17.6215 24.8692 19.4322 33.6427 19.4322H33.9527V21.6677H31.8981ZM15.93 23.158H20.2554C20.4466 23.158 20.63 23.2365 20.7652 23.3762C20.9004 23.516 20.9763 23.7055 20.9763 23.9031V26.8838C20.9763 27.0814 20.9004 27.2709 20.7652 27.4107C20.63 27.5504 20.4466 27.6289 20.2554 27.6289H16.55C16.4604 27.6265 16.3724 27.6047 16.2915 27.565C16.2106 27.5253 16.1386 27.4686 16.0802 27.3984C16.0218 27.3282 15.9783 27.2461 15.9524 27.1575C15.9265 27.0689 15.9189 26.9756 15.93 26.8838V23.158ZM21.3368 10.4903H25.6622C27.6564 10.5596 29.5661 11.3393 31.0678 12.6973C32.5694 14.0553 33.5708 15.9081 33.9022 17.9419H33.6643C21.9712 17.9419 19.2462 14.7079 19.2462 14.6855C19.149 14.5688 19.0191 14.486 18.8745 14.4486C18.7299 14.4113 18.5777 14.4211 18.4387 14.4769C18.3001 14.5103 18.1764 14.591 18.0875 14.7058C17.9986 14.8207 17.9497 14.9632 17.9485 15.1103C17.9197 17.9419 13.3852 17.9419 13.3347 17.9419H13.0968C13.4282 15.9081 14.4296 14.0553 15.9313 12.6973C17.433 11.3393 19.3426 10.5596 21.3368 10.4903ZM10.5232 25.4754C10.3093 25.4754 10.1002 25.4099 9.92241 25.287C9.74458 25.1642 9.60598 24.9897 9.52413 24.7854C9.44228 24.5812 9.42087 24.3564 9.46259 24.1396C9.50432 23.9228 9.60731 23.7236 9.75854 23.5673C9.90977 23.411 10.1025 23.3045 10.3122 23.2614C10.522 23.2183 10.7394 23.2404 10.937 23.325C11.1346 23.4096 11.3035 23.5529 11.4223 23.7367C11.5411 23.9205 11.6045 24.1366 11.6045 24.3577C11.6045 24.6541 11.4906 24.9384 11.2878 25.148C11.085 25.3576 10.81 25.4754 10.5232 25.4754ZM33.9527 26.5112C33.9527 29.3768 32.8514 32.125 30.891 34.1513C28.9307 36.1776 26.2719 37.3159 23.4995 37.3159C20.7272 37.3159 18.0684 36.1776 16.108 34.1513C14.1477 32.125 13.0464 29.3768 13.0464 26.5112V23.158H14.4882V26.8838C14.4776 27.1715 14.5229 27.4585 14.6215 27.7279C14.72 27.9972 14.8699 28.2434 15.0621 28.4518C15.2543 28.6602 15.4851 28.8267 15.7406 28.9413C15.9962 29.0559 16.2714 29.1164 16.55 29.1192H20.2554C20.829 29.1192 21.3791 28.8837 21.7847 28.4645C22.1903 28.0452 22.4182 27.4766 22.4182 26.8838V25.3934H24.5809V26.8838C24.5809 27.4766 24.8087 28.0452 25.2143 28.4645C25.6199 28.8837 26.17 29.1192 26.7436 29.1192H30.4491C30.7279 29.1175 31.0036 29.0577 31.2596 28.9434C31.5157 28.8291 31.7468 28.6627 31.9392 28.454C32.1316 28.2454 32.2814 27.9988 32.3797 27.729C32.4779 27.4592 32.5225 27.1718 32.5109 26.8838V23.158H33.9527V26.5112ZM37.5068 24.693C37.4436 24.9038 37.3215 25.0906 37.1557 25.2298C36.99 25.3689 36.7882 25.4543 36.5756 25.4751C36.363 25.4958 36.1492 25.4511 35.9612 25.3465C35.7732 25.2419 35.6194 25.082 35.5191 24.8872C35.4188 24.6923 35.3766 24.4712 35.3978 24.2515C35.4189 24.0319 35.5025 23.8237 35.638 23.6531C35.7735 23.4825 35.9548 23.3572 36.159 23.293C36.3633 23.2287 36.5814 23.2284 36.7859 23.2921C36.923 23.3338 37.0508 23.4034 37.1616 23.4967C37.2724 23.5901 37.3641 23.7054 37.4312 23.8359C37.4984 23.9664 37.5396 24.1094 37.5526 24.2566C37.5656 24.4038 37.55 24.5521 37.5068 24.693Z" fill="#42210B"/>
</svg>
