<svg width="48" height="48" viewBox="0 0 48 48" fill="none" xmlns="http://www.w3.org/2000/svg">
<path d="M44.0829 13.1953C44.372 12.2187 44.0829 11.5 42.6923 11.5H38.0908C36.9189 11.5 36.3798 12.1172 36.0908 12.8047C36.0908 12.8047 33.7471 18.5155 30.4346 22.2186C29.3643 23.289 28.8721 23.6328 28.2863 23.6328C27.9973 23.6328 27.5519 23.289 27.5519 22.3124V13.1953C27.5519 12.0234 27.2236 11.5 26.255 11.5H19.0206C18.2862 11.5 17.8488 12.0469 17.8488 12.5547C17.8488 13.6639 19.505 13.9218 19.6769 17.0468V23.8281C19.6769 25.3125 19.4113 25.5857 18.8254 25.5857C17.2629 25.5857 13.466 19.8515 11.216 13.289C10.763 12.0156 10.3175 11.5 9.13788 11.5H4.53616C3.22369 11.5 2.95801 12.1172 2.95801 12.8047C2.95801 14.0233 4.52052 20.0781 10.2314 28.078C14.0361 33.5388 19.3954 36.5 24.2704 36.5C27.2 36.5 27.5595 35.8438 27.5595 34.711C27.5595 29.4921 27.2939 28.9999 28.7627 28.9999C29.4423 28.9999 30.6142 29.3436 33.3487 31.9763C36.4735 35.1013 36.9892 36.4999 38.7391 36.4999H43.3407C44.6532 36.4999 45.3174 35.8437 44.9345 34.5466C44.0595 31.8201 38.1454 26.2108 37.8798 25.8358C37.2001 24.9608 37.3954 24.5701 37.8798 23.7888C37.8878 23.7812 43.5047 15.8749 44.0829 13.1953Z" fill="#5181B8"/>
</svg>
