<svg width="100" height="100" viewBox="0 0 100 100" fill="none" xmlns="http://www.w3.org/2000/svg">
<path d="M34.2126 35.6493C44.3303 28.421 49.9992 23.0625 49.9992 23.0625C49.9992 23.0625 57.5015 29.7307 65.7858 35.6493C65.7858 35.6493 70.7192 39.1737 70.7192 47.2297C70.7192 55.2856 65.7858 57.2996 65.7858 57.2996V58.8101V66.3625V67.3695C65.7858 67.3695 64.7992 71.3975 49.9992 71.3975C35.1993 71.3975 34.2126 67.3695 34.2126 67.3695V66.3625V58.8101V57.2996C34.2126 57.2996 29.2793 55.2856 29.2793 47.2297C29.2793 39.1737 34.2126 35.6493 34.2126 35.6493Z" fill="#6D645C"/>
<path d="M63.8131 66.3647C63.8131 68.0332 57.6287 69.3857 49.9998 69.3857C42.3709 69.3857 36.1865 68.0332 36.1865 66.3647C36.1865 64.6963 42.3709 63.3438 49.9998 63.3438C57.6287 63.3438 63.8131 64.6963 63.8131 66.3647Z" fill="#54463A"/>
<path d="M60.1188 37.8425C67.2025 46.035 60.1188 55.2515 60.1188 55.2515L63.6606 57.2996L67.2025 55.2515L69.7324 48.0831L67.2025 39.3786L49.9991 27.0898C49.9991 27.0898 53.035 29.65 60.1188 37.8425Z" fill="#54463A"/>
<path d="M36.1865 56.2949H41.1198V62.3369H36.1865V56.2949Z" fill="white"/>
<path d="M58.8799 56.2949H63.8132V62.3369H58.8799V56.2949Z" fill="#54463A"/>
<path d="M39.8802 37.8425C32.7965 46.035 39.8802 55.2515 39.8802 55.2515L36.3384 57.2996L32.7965 55.2515L30.2666 48.0831L32.7965 39.3786L49.9999 27.0898C49.9999 27.0898 46.964 29.65 39.8802 37.8425Z" fill="white"/>
<path fill-rule="evenodd" clip-rule="evenodd" d="M34.2126 57.2996C34.2126 57.2996 33.9964 57.2113 33.6544 56.9978C32.3631 56.1914 29.2793 53.599 29.2793 47.2297C29.2793 39.1737 34.2126 35.6493 34.2126 35.6493C44.3303 28.421 49.9992 23.0625 49.9992 23.0625C49.9992 23.0625 57.5015 29.7307 65.7858 35.6493C65.7858 35.6493 70.7192 39.1737 70.7192 47.2297C70.7192 53.599 67.6353 56.1914 66.344 56.9978C66.0021 57.2113 65.7858 57.2996 65.7858 57.2996V67.3695C65.7858 67.3695 64.7992 71.3975 49.9992 71.3975C35.1993 71.3975 34.2126 67.3695 34.2126 67.3695V57.2996ZM37.1726 66.2897C37.324 66.391 37.5334 66.5142 37.8163 66.6501C39.3525 67.3879 42.8037 68.3765 49.9992 68.3765C57.1948 68.3765 60.6459 67.3879 62.1822 66.6501C62.4651 66.5142 62.6744 66.391 62.8259 66.2897V65.7218C62.8214 65.7196 62.8169 65.7174 62.8123 65.7153C60.9959 64.8428 57.297 63.845 49.9992 63.845C42.7015 63.845 39.0026 64.8428 37.1861 65.7153C37.1816 65.7174 37.1771 65.7196 37.1726 65.7218V66.2897ZM37.1726 62.4615C39.6877 61.5487 43.6641 60.8241 49.9992 60.8241C56.3343 60.8241 60.3108 61.5487 62.8259 62.4615V58.1693C62.8214 58.1671 62.8169 58.165 62.8123 58.1628C60.9959 57.2904 57.297 56.2926 49.9992 56.2926C42.7015 56.2926 39.0026 57.2904 37.1861 58.1628C37.1816 58.165 37.1771 58.1671 37.1726 58.1693V62.4615ZM36.3673 55.2282C38.8108 54.1711 42.9411 53.2716 49.9992 53.2716C57.0573 53.2716 61.1877 54.1711 63.6312 55.2282C64.7992 54.7828 65.2983 54.1847 65.9786 53.3516C66.757 52.3983 67.7592 50.5697 67.7592 47.2297C67.7592 43.8718 66.7413 41.5511 65.7896 40.0942C65.307 39.3554 64.8329 38.8269 64.4994 38.4979C64.3332 38.3339 64.2038 38.2214 64.1288 38.159C64.0972 38.1327 64.0754 38.1155 64.0649 38.1073C59.8547 35.0983 55.8592 31.9117 52.9227 29.4838C51.7886 28.5462 50.8093 27.719 50.0327 27.0554C49.4182 27.5919 48.6644 28.2391 47.7762 28.9819C45.0475 31.2641 41.0493 34.4515 35.9336 38.1073C35.923 38.1155 35.9013 38.1327 35.8697 38.159C35.7946 38.2214 35.6653 38.3339 35.499 38.4979C35.1655 38.8269 34.6914 39.3554 34.2088 40.0942C33.2571 41.5511 32.2393 43.8718 32.2393 47.2297C32.2393 50.5697 33.2415 52.3983 34.0199 53.3516C34.7001 54.1847 35.1993 54.7828 36.3673 55.2282Z" fill="#42210B"/>
<path d="M43.0937 70.3906C40.1337 81.971 30.2671 64.3487 14.4805 76.4326L18.9205 84.4885C29.7738 74.9221 43.0937 88.5165 50.0004 76.4326C56.907 88.5165 70.227 74.9221 81.0803 84.4885L85.5202 76.4326C69.7336 64.3487 59.867 81.971 56.907 70.3906H43.0937Z" fill="#6D645C"/>
<path d="M18.8233 84.4882L14.4805 76.4323L21.1052 72.4043L25.3338 80.9637L18.8233 84.4882Z" fill="white"/>
<path d="M81.1767 84.4882L85.5195 76.4323L78.8948 72.4043L74.6662 80.9637L81.1767 84.4882Z" fill="#54463A"/>
<path fill-rule="evenodd" clip-rule="evenodd" d="M41.6613 70.0101C41.8313 69.345 42.4199 68.8809 43.0934 68.8809H56.9067C57.5801 68.8809 58.1687 69.345 58.3387 70.0101C58.6778 71.3369 59.0736 72.0633 59.4294 72.4594C59.7432 72.8088 60.0848 72.9698 60.5563 73.0189C61.0901 73.0744 61.7868 72.9831 62.74 72.7404C63.3974 72.573 64.0843 72.3601 64.8563 72.1208C65.2125 72.0104 65.5868 71.8944 65.9847 71.7747C68.4315 71.0383 71.4453 70.2654 74.9088 70.513C78.4015 70.7627 82.2476 72.0404 86.4079 75.2249C87.002 75.6796 87.1739 76.5133 86.8098 77.1738L82.3698 85.2298C82.1521 85.6248 81.7721 85.8992 81.3347 85.9772C80.8973 86.0552 80.4486 85.9286 80.1125 85.6324C75.4223 81.4983 70.2781 82.1453 64.8111 82.833C64.621 82.8569 64.4304 82.8808 64.2395 82.9047C61.4962 83.2469 58.5886 83.56 55.9045 82.9149C53.6907 82.3829 51.6905 81.2197 50 79.0949C48.3095 81.2197 46.3093 82.3829 44.0955 82.9149C41.4114 83.56 38.5038 83.2469 35.7605 82.9047C35.5696 82.8808 35.3791 82.8569 35.1889 82.833C29.7219 82.1453 24.5777 81.4983 19.8875 85.6324C19.5514 85.9286 19.1027 86.0552 18.6653 85.9772C18.2279 85.8992 17.8479 85.6248 17.6302 85.2298L13.1902 77.1738C12.8261 76.5133 12.998 75.6796 13.5921 75.2249C17.7524 72.0404 21.5985 70.7627 25.0912 70.513C28.5547 70.2654 31.5685 71.0383 34.0153 71.7747C34.4132 71.8944 34.7875 72.0104 35.1437 72.1208C35.9157 72.3601 36.6026 72.573 37.26 72.7404C38.2132 72.9831 38.9099 73.0744 39.4437 73.0189C39.9152 72.9698 40.2568 72.8088 40.5706 72.4594C40.9265 72.0633 41.3222 71.3369 41.6613 70.0101ZM44.1893 71.9018C43.8252 72.9537 43.3591 73.8256 42.7525 74.5009C41.8985 75.4516 40.8603 75.9081 39.7439 76.0243C38.6898 76.134 37.5905 75.9381 36.5434 75.6715C35.8113 75.485 35.0092 75.2366 34.199 74.9856C33.8586 74.8801 33.5168 74.7743 33.1781 74.6723C30.815 73.9612 28.2171 73.318 25.2981 73.5266C22.6831 73.7136 19.7263 74.592 16.4215 76.8747L19.3693 82.2233C24.699 78.4485 30.4751 79.1861 35.3163 79.8042C35.5871 79.8388 35.8549 79.873 36.1196 79.906C38.9263 80.2561 41.322 80.4779 43.417 79.9744C45.395 79.499 47.1908 78.3506 48.7216 75.6722C48.9868 75.2082 49.4736 74.9228 50 74.9228C50.5264 74.9228 51.0132 75.2082 51.2784 75.6722C52.8092 78.3506 54.605 79.499 56.583 79.9744C58.678 80.4779 61.0737 80.2561 63.8804 79.906C64.1451 79.873 64.4129 79.8388 64.6837 79.8042C69.5249 79.1861 75.301 78.4485 80.6307 82.2233L83.5785 76.8747C80.2737 74.592 77.3169 73.7136 74.7019 73.5266C71.7829 73.318 69.185 73.9612 66.8219 74.6723C66.4832 74.7743 66.1414 74.8801 65.801 74.9856C64.9908 75.2366 64.1887 75.485 63.4566 75.6715C62.4095 75.9381 61.3102 76.134 60.2561 76.0243C59.1397 75.9081 58.1015 75.4516 57.2476 74.5009C56.6409 73.8256 56.1748 72.9537 55.8107 71.9018H44.1893Z" fill="#42210B"/>
<path d="M55.92 20.042C55.92 23.3788 53.2696 26.0839 50.0001 26.0839C46.7305 26.0839 44.0801 23.3788 44.0801 20.042C44.0801 16.7051 46.7305 14 50.0001 14C53.2696 14 55.92 16.7051 55.92 20.042Z" fill="#6D645C"/>
<path d="M46.0527 17.0195H49.9994C48.0261 18.53 48.0261 21.551 49.9994 23.0615H46.0527V17.0195Z" fill="white"/>
<path fill-rule="evenodd" clip-rule="evenodd" d="M50.0001 23.0629C51.6348 23.0629 52.9601 21.7104 52.9601 20.042C52.9601 18.3735 51.6348 17.021 50.0001 17.021C48.3653 17.021 47.0401 18.3735 47.0401 20.042C47.0401 21.7104 48.3653 23.0629 50.0001 23.0629ZM50.0001 26.0839C53.2696 26.0839 55.92 23.3788 55.92 20.042C55.92 16.7051 53.2696 14 50.0001 14C46.7305 14 44.0801 16.7051 44.0801 20.042C44.0801 23.3788 46.7305 26.0839 50.0001 26.0839Z" fill="#42210B"/>
<path d="M48.0273 35.1465H51.974V49.2444H48.0273V35.1465Z" fill="#42210B"/>
<path d="M56.9062 40.1816L56.9062 44.2096L43.093 44.2096L43.093 40.1816L56.9062 40.1816Z" fill="#42210B"/>
</svg>
