<svg width="100" height="100" viewBox="0 0 100 100" fill="none" xmlns="http://www.w3.org/2000/svg">
<path d="M57 36.6667C57 46.0756 49 56 49 56C49 56 41 46.0756 41 36.6667C41 31.3279 44.5817 27 49 27C53.4183 27 57 31.3279 57 36.6667Z" fill="#6D645C"/>
<path d="M46.5 38C46.1 33.6 48 30.8333 49 30C47.0001 30 42.9002 31.5 42.5002 37.5C42.1002 43.5 46.6668 49.6667 49 52C48.3334 49.1667 46.9 42.4 46.5 38Z" fill="white"/>
<path fill-rule="evenodd" clip-rule="evenodd" d="M50.3679 48.4223C52.2867 44.9135 54 40.6157 54 36.6667C54 32.4285 51.2551 30 49 30C46.7449 30 44 32.4285 44 36.6667C44 40.6157 45.7133 44.9135 47.6321 48.4223C48.0972 49.2727 48.5629 50.0563 49 50.7534C49.4371 50.0563 49.9028 49.2727 50.3679 48.4223ZM50.8292 53.4507C53.1906 49.8975 57 43.1593 57 36.6667C57 31.3279 53.4183 27 49 27C44.5817 27 41 31.3279 41 36.6667C41 43.1593 44.8094 49.8975 47.1708 53.4507C48.2315 55.0466 49 56 49 56C49 56 49.7685 55.0466 50.8292 53.4507Z" fill="#42210B"/>
<path d="M18.6491 39.9878C10.2547 47.8023 17.6534 61.8864 27.6051 68L49 60.8698C49 39.9865 29.5944 29.7987 18.6491 39.9878Z" fill="#6D645C"/>
<path d="M19.9128 49.5265C17.9789 40.291 25.7147 38.241 29.0991 37.2148C26.1982 36.1871 16.0449 38.7517 15.078 46.9635C14.172 54.6574 21.3633 63.0402 26.1982 68L32 63.8953C27.9709 61.843 21.3417 56.3501 19.9128 49.5265Z" fill="white"/>
<path fill-rule="evenodd" clip-rule="evenodd" d="M37.1344 40.0484C31.3783 36.4541 24.5569 36.5368 19.671 41.0851C16.0782 44.4297 15.7353 49.1715 17.6453 54.088C19.4836 58.8195 23.3369 63.4258 27.8065 66.3511L47.4817 59.794C47.1629 50.3835 42.6748 43.508 37.1344 40.0484ZM38.7234 37.5037C45.4132 41.6811 50.4998 49.9483 50.4998 60.8692V61.9504L27.4157 69.6436L26.8197 69.2775C21.5841 66.0611 17.0198 60.7621 14.849 55.1744C12.6703 49.5667 12.8252 43.3593 17.6269 38.8893C23.6863 33.2485 32.0403 33.3306 38.7234 37.5037Z" fill="#42210B"/>
<path d="M79.3509 39.9878C87.7453 47.8023 80.3466 61.8864 70.3949 68L49 60.8698C49 39.9865 68.4056 29.7987 79.3509 39.9878Z" fill="#6D645C"/>
<path d="M78.0872 49.5265C80.0211 40.291 72.2853 38.241 68.9009 37.2148C71.8018 36.1871 81.9551 38.7517 82.922 46.9635C83.828 54.6574 76.6367 63.0402 71.8018 68L66 63.8953C70.0291 61.843 76.6583 56.3501 78.0872 49.5265Z" fill="#54463A"/>
<path fill-rule="evenodd" clip-rule="evenodd" d="M60.8656 40.0484C66.6217 36.4541 73.4431 36.5368 78.329 41.0851C81.9218 44.4297 82.2647 49.1715 80.3547 54.088C78.5164 58.8195 74.6631 63.4258 70.1935 66.3511L50.5183 59.794C50.8371 50.3835 55.3252 43.508 60.8656 40.0484ZM59.2766 37.5037C52.5868 41.6811 47.5002 49.9483 47.5002 60.8692V61.9504L70.5843 69.6436L71.1803 69.2775C76.4159 66.0611 80.9802 60.7621 83.151 55.1744C85.3297 49.5667 85.1748 43.3593 80.3731 38.8893C74.3137 33.2485 65.9597 33.3306 59.2766 37.5037Z" fill="#42210B"/>
<path d="M28 73.5C28 70.1863 37.6259 67.5 49.5 67.5C61.3741 67.5 71 70.1863 71 73.5V67.5C71 64.1863 61.3741 61.5 49.5 61.5C37.6259 61.5 28 64.1863 28 67.5V73.5Z" fill="#6D645C"/>
<path d="M28 79.5C28 76.1863 37.6259 73.5 49.5 73.5C61.3741 73.5 71 76.1863 71 79.5V73.5C71 70.1863 61.3741 67.5 49.5 67.5C37.6259 67.5 28 70.1863 28 73.5V79.5Z" fill="#6D645C"/>
<path d="M49.5 85.5C61.3741 85.5 71 82.8137 71 79.5C71 76.1863 61.3741 73.5 49.5 73.5C37.6259 73.5 28 76.1863 28 79.5C28 82.8137 37.6259 85.5 49.5 85.5Z" fill="#6D645C"/>
<path d="M70 80C70 82.7614 60.598 85 49 85C37.402 85 28 82.7614 28 80C28 77.2386 37.402 75 49 75C60.598 75 70 77.2386 70 80Z" fill="#54463A"/>
<path d="M29 65L35 64V76H29V65Z" fill="white"/>
<path d="M70 65L64 64V76H70V65Z" fill="#54463A"/>
<path fill-rule="evenodd" clip-rule="evenodd" d="M30.5157 66.4166C29.552 67.0524 29.5 67.4495 29.5 67.5V69.5257C30.6919 68.8564 32.195 68.2867 33.894 67.8126C37.9497 66.6807 43.4667 66 49.5 66C55.5333 66 61.0503 66.6807 65.106 67.8126C66.805 68.2867 68.3081 68.8564 69.5 69.5257V67.5C69.5 67.4495 69.448 67.0524 68.4843 66.4166C67.5803 65.8201 66.173 65.225 64.2996 64.7022C60.5738 63.6624 55.3408 63 49.5 63C43.6592 63 38.4262 63.6624 34.7004 64.7022C32.827 65.225 31.4197 65.8201 30.5157 66.4166ZM69.5 73.5C69.5 73.4495 69.448 73.0524 68.4843 72.4166C67.5803 71.8201 66.173 71.225 64.2996 70.7022C60.5738 69.6624 55.3408 69 49.5 69C43.6592 69 38.4262 69.6624 34.7004 70.7022C32.827 71.225 31.4197 71.8201 30.5157 72.4166C29.552 73.0524 29.5 73.4495 29.5 73.5V75.5257C30.6919 74.8564 32.195 74.2867 33.894 73.8126C37.9497 72.6807 43.4667 72 49.5 72C55.5333 72 61.0503 72.6807 65.106 73.8126C66.805 74.2867 68.3081 74.8564 69.5 75.5257V73.5ZM69.5 79.5C69.5 79.4495 69.448 79.0524 68.4843 78.4166C67.5803 77.8201 66.173 77.225 64.2996 76.7022C60.5738 75.6624 55.3408 75 49.5 75C43.6592 75 38.4262 75.6624 34.7004 76.7022C32.827 77.225 31.4197 77.8201 30.5157 78.4166C29.552 79.0524 29.5 79.4495 29.5 79.5C29.5 79.5505 29.552 79.9476 30.5157 80.5834C31.4197 81.1799 32.827 81.775 34.7004 82.2978C38.4262 83.3376 43.6592 84 49.5 84C55.3408 84 60.5738 83.3376 64.2996 82.2978C66.173 81.775 67.5803 81.1799 68.4843 80.5834C69.448 79.9476 69.5 79.5505 69.5 79.5ZM26.5 79.5C26.5 81.1064 27.6512 82.2877 28.8635 83.0875C30.1353 83.9267 31.8767 84.6245 33.894 85.1874C37.9497 86.3193 43.4667 87 49.5 87C55.5333 87 61.0503 86.3193 65.106 85.1874C67.1233 84.6245 68.8647 83.9267 70.1365 83.0875C71.3488 82.2877 72.5 81.1064 72.5 79.5V67.5C72.5 65.8936 71.3488 64.7123 70.1365 63.9125C68.8647 63.0733 67.1233 62.3755 65.106 61.8126C61.0503 60.6807 55.5333 60 49.5 60C43.4667 60 37.9497 60.6807 33.894 61.8126C31.8767 62.3755 30.1353 63.0733 28.8635 63.9125C27.6512 64.7123 26.5 65.8936 26.5 67.5V79.5Z" fill="#42210B"/>
<path d="M47 15H51V29H47V15Z" fill="#42210B"/>
<path d="M42 23L42 19L56 19L56 23L42 23Z" fill="#42210B"/>
</svg>
