<svg width="100" height="100" viewBox="0 0 100 100" fill="none" xmlns="http://www.w3.org/2000/svg">
<path d="M43.5 53.191C45.4313 53.0659 47.4392 53 49.5 53C51.919 53 54.265 53.0909 56.5 53.2615L49.5 19.5L43.5 53.191Z" fill="#6D645C"/>
<path d="M31.5 23.5V54.9517C34.8795 54.0998 38.9802 53.4836 43.5 53.191L31.5 23.5Z" fill="#6D645C"/>
<path d="M16.5 31.5L22 61C22 58.5842 25.6808 56.4185 31.5 54.9517L16.5 31.5Z" fill="#6D645C"/>
<path d="M67.5 23.5L56.5 53.2615C60.8471 53.5934 64.7739 54.227 68 55.0808L67.5 23.5Z" fill="#6D645C"/>
<path d="M68 55.0808C73.5292 56.5441 77 58.6542 77 61L83.5 31.5L68 55.0808Z" fill="#6D645C"/>
<path d="M28 69C28 65.6863 37.6259 63 49.5 63C61.3741 63 71 65.6863 71 69C73.7687 67.6157 77 64.3692 77 61C77 58.6542 73.5292 56.5441 68 55.0808C64.7739 54.227 60.8471 53.5934 56.5 53.2615C54.265 53.0909 51.919 53 49.5 53C47.4392 53 45.4313 53.0659 43.5 53.191C38.9802 53.4836 34.8795 54.0998 31.5 54.9517C25.6808 56.4185 22 58.5842 22 61C22 63.7848 25.5 67.5 28 69Z" fill="#6D645C"/>
<path d="M28 75C28 71.6863 37.6259 69 49.5 69C61.3741 69 71 71.6863 71 75V69C71 65.6863 61.3741 63 49.5 63C37.6259 63 28 65.6863 28 69V75Z" fill="#6D645C"/>
<path d="M28 81C28 77.6863 37.6259 75 49.5 75C61.3741 75 71 77.6863 71 81V75C71 71.6863 61.3741 69 49.5 69C37.6259 69 28 71.6863 28 75V81Z" fill="#6D645C"/>
<path d="M49.5 87C61.3741 87 71 84.3137 71 81C71 77.6863 61.3741 75 49.5 75C37.6259 75 28 77.6863 28 81C28 84.3137 37.6259 87 49.5 87Z" fill="#6D645C"/>
<path d="M70 81C70 83.7614 60.598 86 49 86C37.402 86 28 83.7614 28 81C28 78.2386 37.402 76 49 76C60.598 76 70 78.2386 70 81Z" fill="#54463A"/>
<path d="M25.6744 68L38 62.5C38 62.5 29 62.5 27 58L20.5 39L18 37L21.267 58.8065L25.6744 68Z" fill="white"/>
<path d="M73.3256 68L61 62.5C61 62.5 70 62.5 72 58L78.5 39L81 37L77.733 58.8065L73.3256 68Z" fill="#54463A"/>
<path d="M29 66L35 65V77H29V66Z" fill="white"/>
<path d="M70 66L64 65V77H70V66Z" fill="#54463A"/>
<path fill-rule="evenodd" clip-rule="evenodd" d="M49.4788 18.0001C50.1978 17.9901 50.8228 18.488 50.9687 19.187L56.9066 47.6229L66.0929 22.9447C66.3433 22.2722 67.0406 21.8722 67.7523 21.9929C68.4641 22.1135 68.9883 22.7206 68.9997 23.4374L69.4226 49.9573L82.2464 30.5862C82.6438 29.9859 83.4162 29.7528 84.0828 30.032C84.7495 30.3112 85.1204 31.0232 84.9647 31.7247L78.4977 60.8671C78.4447 62.9419 77.4421 64.8452 76.1976 66.3507C75.134 67.6372 73.8126 68.7346 72.4999 69.5173V80.5532C72.4999 82.1481 71.3486 83.3211 70.1364 84.1152C68.8646 84.9484 67.1232 85.6413 65.1059 86.2003C61.0503 87.3241 55.5333 88 49.5 88C43.4667 88 37.9497 87.3241 33.8941 86.2003C31.8767 85.6413 30.1354 84.9484 28.8636 84.1152C27.6513 83.3211 26.5001 82.1481 26.5001 80.5532V69.4444C25.274 68.5917 23.9661 67.3915 22.8975 66.0831C21.6912 64.606 20.5607 62.713 20.5025 60.8452L15.0256 31.6772C14.894 30.9765 15.2809 30.2815 15.9484 30.0193C16.6159 29.7571 17.377 30.0013 17.7638 30.6018L30.0001 49.597V23.461C30.0001 22.748 30.5089 22.1351 31.2138 21.999C31.9186 21.8629 32.6217 22.2419 32.8908 22.9029L42.9373 47.5843L48.0232 19.2282C48.1493 18.5254 48.7599 18.0102 49.4788 18.0001ZM41.341 51.6119L33.0001 31.1207V52.8164C35.5134 52.2868 38.3256 51.8773 41.341 51.6119ZM29.1427 53.7941L19.3863 38.6487L22.7868 56.7587C23.1007 56.5141 23.4331 56.2863 23.7746 56.075C25.185 55.2023 27.015 54.4396 29.1427 53.7941ZM45.3086 51.3526L49.6118 27.3607L54.6312 51.3982C52.9667 51.309 51.2517 51.2624 49.5 51.2624C48.0761 51.2624 46.6765 51.2932 45.3086 51.3526ZM58.5877 51.6988C61.4381 51.9817 64.0936 52.3949 66.4694 52.9174L66.127 31.4451L58.5877 51.6988ZM70.3675 53.953C72.3536 54.5877 74.063 55.3302 75.3853 56.1756C75.7084 56.3821 76.0224 56.6042 76.3189 56.8422L80.2843 38.9731L70.3675 53.953ZM27.3789 66.3637C27.7979 65.8571 28.3247 65.4293 28.8636 65.0762C30.1354 64.243 31.8767 63.5502 33.8941 62.9912C37.9497 61.8674 43.4667 61.1915 49.5 61.1915C55.5333 61.1915 61.0503 61.8674 65.1059 62.9912C67.1232 63.5502 68.8646 64.243 70.1364 65.0762C70.713 65.454 71.2758 65.9174 71.7075 66.4712C72.4807 65.9193 73.2411 65.2321 73.8787 64.4608C74.9077 63.2161 75.4999 61.8988 75.4999 60.695C75.4999 60.3165 75.1997 59.5996 73.7613 58.6801C72.3882 57.8023 70.3065 56.9646 67.6161 56.2576C64.4963 55.4378 60.6624 54.8206 56.3858 54.4964C54.1896 54.33 51.8817 54.2411 49.5 54.2411C47.471 54.2411 45.4955 54.3056 43.5969 54.4276C39.1488 54.7136 35.1407 55.3143 31.8667 56.1338C29.031 56.8435 26.8232 57.6984 25.3612 58.603C23.824 59.5542 23.5001 60.3032 23.5001 60.695C23.5001 61.544 24.0914 62.8157 25.2277 64.207C25.8847 65.0115 26.6431 65.757 27.3789 66.3637ZM29.5001 70.6497V68.6383C29.5001 68.5882 29.5521 68.1939 30.5157 67.5625C31.4198 66.9703 32.8271 66.3794 34.7005 65.8603C38.4262 64.8279 43.6592 64.1702 49.5 64.1702C55.3408 64.1702 60.5737 64.8279 64.2995 65.8603C66.1729 66.3794 67.5802 66.9703 68.4842 67.5625C69.4479 68.1939 69.4999 68.5882 69.4999 68.6383V70.6496C68.308 69.9851 66.8049 69.4194 65.1059 68.9486C61.0503 67.8249 55.5333 67.1489 49.5 67.1489C43.4667 67.1489 37.9497 67.8249 33.8941 68.9486C32.1951 69.4194 30.6919 69.9851 29.5001 70.6497ZM69.4999 74.5957C69.4999 74.5456 69.4479 74.1513 68.4842 73.52C67.5802 72.9277 66.1729 72.3368 64.2995 71.8177C60.5737 70.7854 55.3408 70.1277 49.5 70.1277C43.6592 70.1277 38.4262 70.7854 34.7005 71.8177C32.8271 72.3368 31.4198 72.9277 30.5157 73.52C29.5521 74.1513 29.5001 74.5456 29.5001 74.5957V76.6071C30.6919 75.9426 32.1951 75.3769 33.8941 74.9061C37.9497 73.7823 43.4667 73.1064 49.5 73.1064C55.5333 73.1064 61.0503 73.7823 65.1059 74.9061C66.8049 75.3769 68.308 75.9426 69.4999 76.6071V74.5957ZM69.4999 80.5532C69.4999 80.503 69.4479 80.1087 68.4842 79.4774C67.5802 78.8852 66.1729 78.2943 64.2995 77.7752C60.5737 76.7428 55.3408 76.0851 49.5 76.0851C43.6592 76.0851 38.4262 76.7428 34.7005 77.7752C32.8271 78.2943 31.4198 78.8852 30.5157 79.4774C29.5521 80.1087 29.5001 80.503 29.5001 80.5532C29.5001 80.6033 29.5521 80.9976 30.5157 81.629C31.4198 82.2212 32.8271 82.8121 34.7005 83.3312C38.4262 84.3636 43.6592 85.0213 49.5 85.0213C55.3408 85.0213 60.5737 84.3636 64.2995 83.3312C66.1729 82.8121 67.5802 82.2212 68.4842 81.629C69.4479 80.9976 69.4999 80.6033 69.4999 80.5532Z" fill="#42210B"/>
<path d="M22 31.5C22 34.5376 19.5376 37 16.5 37C13.4624 37 11 34.5376 11 31.5C11 28.4624 13.4624 26 16.5 26C19.5376 26 22 28.4624 22 31.5Z" fill="#6D645C"/>
<path d="M16.5 34C15.1193 34 14 32.8807 14 31.5C14 30.1193 15.1193 29 16.5 29C16.5 29 15.5 29.7143 15.5 31.5C15.5 33.2857 16.5 34 16.5 34Z" fill="white"/>
<path fill-rule="evenodd" clip-rule="evenodd" d="M16.5 34C17.8807 34 19 32.8807 19 31.5C19 30.1193 17.8807 29 16.5 29C15.1193 29 14 30.1193 14 31.5C14 32.8807 15.1193 34 16.5 34ZM16.5 37C19.5376 37 22 34.5376 22 31.5C22 28.4624 19.5376 26 16.5 26C13.4624 26 11 28.4624 11 31.5C11 34.5376 13.4624 37 16.5 37Z" fill="#42210B"/>
<path d="M37 23.5C37 26.5376 34.5376 29 31.5 29C28.4624 29 26 26.5376 26 23.5C26 20.4624 28.4624 18 31.5 18C34.5376 18 37 20.4624 37 23.5Z" fill="#6D645C"/>
<path d="M31.5 26C30.1193 26 29 24.8807 29 23.5C29 22.1193 30.1193 21 31.5 21C31.5 21 30.5 21.7143 30.5 23.5C30.5 25.2857 31.5 26 31.5 26Z" fill="white"/>
<path fill-rule="evenodd" clip-rule="evenodd" d="M31.5 26C32.8807 26 34 24.8807 34 23.5C34 22.1193 32.8807 21 31.5 21C30.1193 21 29 22.1193 29 23.5C29 24.8807 30.1193 26 31.5 26ZM31.5 29C34.5376 29 37 26.5376 37 23.5C37 20.4624 34.5376 18 31.5 18C28.4624 18 26 20.4624 26 23.5C26 26.5376 28.4624 29 31.5 29Z" fill="#42210B"/>
<path d="M55 19.5C55 22.5376 52.5376 25 49.5 25C46.4624 25 44 22.5376 44 19.5C44 16.4624 46.4624 14 49.5 14C52.5376 14 55 16.4624 55 19.5Z" fill="#6D645C"/>
<path fill-rule="evenodd" clip-rule="evenodd" d="M49.5 22C50.8807 22 52 20.8807 52 19.5C52 18.1193 50.8807 17 49.5 17C48.1193 17 47 18.1193 47 19.5C47 20.8807 48.1193 22 49.5 22ZM49.5 25C52.5376 25 55 22.5376 55 19.5C55 16.4624 52.5376 14 49.5 14C46.4624 14 44 16.4624 44 19.5C44 22.5376 46.4624 25 49.5 25Z" fill="#42210B"/>
<path d="M73 23.5C73 26.5376 70.5376 29 67.5 29C64.4624 29 62 26.5376 62 23.5C62 20.4624 64.4624 18 67.5 18C70.5376 18 73 20.4624 73 23.5Z" fill="#6D645C"/>
<path d="M67.5 21C68.8807 21 70 22.1193 70 23.5C70 24.8807 68.8807 26 67.5 26C67.5 26 68.5 25.2857 68.5 23.5C68.5 21.7143 67.5 21 67.5 21Z" fill="#54463A"/>
<path fill-rule="evenodd" clip-rule="evenodd" d="M67.5 26C68.8807 26 70 24.8807 70 23.5C70 22.1193 68.8807 21 67.5 21C66.1193 21 65 22.1193 65 23.5C65 24.8807 66.1193 26 67.5 26ZM67.5 29C70.5376 29 73 26.5376 73 23.5C73 20.4624 70.5376 18 67.5 18C64.4624 18 62 20.4624 62 23.5C62 26.5376 64.4624 29 67.5 29Z" fill="#42210B"/>
<path d="M89 31.5C89 34.5376 86.5376 37 83.5 37C80.4624 37 78 34.5376 78 31.5C78 28.4624 80.4624 26 83.5 26C86.5376 26 89 28.4624 89 31.5Z" fill="#6D645C"/>
<path d="M83.5 29C84.8807 29 86 30.1193 86 31.5C86 32.8807 84.8807 34 83.5 34C83.5 34 84.5 33.2857 84.5 31.5C84.5 29.7143 83.5 29 83.5 29Z" fill="#54463A"/>
<path fill-rule="evenodd" clip-rule="evenodd" d="M83.5 34C84.8807 34 86 32.8807 86 31.5C86 30.1193 84.8807 29 83.5 29C82.1193 29 81 30.1193 81 31.5C81 32.8807 82.1193 34 83.5 34ZM83.5 37C86.5376 37 89 34.5376 89 31.5C89 28.4624 86.5376 26 83.5 26C80.4624 26 78 28.4624 78 31.5C78 34.5376 80.4624 37 83.5 37Z" fill="#42210B"/>
</svg>
