<svg width="100" height="100" viewBox="0 0 100 100" fill="none" xmlns="http://www.w3.org/2000/svg">
<path fill-rule="evenodd" clip-rule="evenodd" d="M42.9759 14.3477C42.3624 13.8364 41.4558 13.8955 40.9139 14.4821L40.9129 14.4832L40.9117 14.4845L40.9084 14.4881L40.8986 14.4988L40.8665 14.5343C40.8396 14.5641 40.8021 14.6063 40.7551 14.66C40.6613 14.7674 40.5295 14.9215 40.3698 15.1168C40.0508 15.5068 39.6175 16.0648 39.151 16.7474C38.5083 17.6878 37.7766 18.9022 37.2021 20.2662C36.9311 20.1085 36.633 19.9371 36.3138 19.7567C34.8577 18.9337 32.9279 17.9029 31.1041 17.1213C30.3639 16.8041 29.5054 17.1279 29.159 17.8548L30.5132 18.5C29.159 17.8548 29.1583 17.8562 29.1583 17.8562L29.1576 17.8579L29.1558 17.8617L29.1512 17.8715L29.1381 17.8999C29.1277 17.9226 29.1139 17.9532 29.0973 17.9914C29.0639 18.0678 29.0187 18.1748 28.9645 18.3115C28.8562 18.5851 28.712 18.9778 28.5549 19.4832C28.2407 20.4937 27.8746 21.9554 27.6418 23.8135C27.4075 25.6837 27.4083 27.4102 27.4662 28.6646C27.4859 29.0922 27.5124 29.4675 27.5389 29.7778C25.3239 31.3298 22.11 34.7774 22.11 39.8321C22.11 44.5772 20.404 47.236 18.472 50.247C18.0633 50.884 17.6444 51.5367 17.2295 52.2283C15.5908 54.9595 14.8748 57.8794 15.0178 60.4581C15.1595 63.0126 16.1691 65.4054 18.1821 66.748C20.0233 67.9758 22.3464 68.9301 24.7179 68.5852C25.5589 69.0811 26.7661 69.6415 28.0803 69.7223C28.9313 69.7747 29.8601 69.6275 30.7392 69.1057C31.6162 68.5851 32.3277 67.7607 32.8636 66.6535C34.4613 63.3525 35.9344 61.6782 38.0963 60.1037C39.2195 59.2857 40.5392 58.488 42.2141 57.5041C42.4887 57.3428 42.7722 57.1768 43.0649 57.0055C43.9295 56.4994 44.8743 55.9463 45.9073 55.3269C45.7291 57.8189 45.1551 59.6994 44.3812 61.2648C43.3968 63.2562 42.0638 64.8048 40.5496 66.5641C40.4501 66.6797 40.3498 66.7962 40.2488 66.9138C38.6343 68.7934 36.8885 70.8968 35.5731 73.8249C34.2524 76.765 33.4016 80.4488 33.4016 85.5C33.4016 85.8978 33.5596 86.2794 33.8409 86.5607C34.1222 86.842 34.5037 87 34.9016 87H82.326C83.0519 87 83.6736 86.4802 83.8022 85.7657C84.5787 81.4523 85.1499 74.1758 84.3836 66.211C83.6183 58.2557 81.5059 49.479 76.8074 42.2747C67.9968 28.7651 56.2491 24.1251 50.4485 23.3698C48.4305 19.2773 45.8809 16.7685 42.9759 14.3477ZM48.0893 25.3969C46.5233 21.9482 44.5845 19.7406 42.205 17.6366C42.1196 17.7262 42.0362 17.8176 41.9547 17.9107C38.9737 21.3169 38.5 27.0665 38.5 29.5C38.5 31.5 35.5 31.5 35.5 29.5C35.5 29.5 35.5 27.1927 36.0275 24.4028C36.1015 24.0114 36.1859 23.6106 36.2821 23.2053C36.2821 23.2053 35.3988 22.6856 34.8376 22.3684C33.8206 21.7935 32.5974 21.1327 31.3688 20.54C31.1124 21.395 30.8142 22.6249 30.6185 24.1865C30.4113 25.8403 30.4105 27.3878 30.463 28.5264C30.4891 29.0935 30.5283 29.5538 30.5603 29.8684C30.5763 30.0256 30.5905 30.146 30.6004 30.2249C30.6053 30.2643 30.6092 30.2933 30.6116 30.3112L30.6145 30.3317C30.7049 30.9526 30.3993 31.5643 29.8484 31.8648C28.2763 32.7224 25.11 35.5694 25.11 39.8321C25.11 45.5217 22.8904 48.954 20.9119 52.0134C20.5268 52.609 20.1507 53.1905 19.802 53.7717C18.4408 56.0405 17.9067 58.3707 18.0132 60.292C18.1211 62.2375 18.8609 63.5946 19.8467 64.2521C21.5558 65.3919 23.2462 65.8956 24.6495 65.5448C25.0595 65.4423 25.4937 65.5175 25.8454 65.7519C26.5386 66.2141 27.4533 66.6781 28.2645 66.728C28.6332 66.7507 28.9393 66.6854 29.2079 66.5259C29.4787 66.3652 29.8279 66.0395 30.1633 65.3465C31.9537 61.6475 33.7306 59.5719 36.3302 57.6786C37.5878 56.7628 39.0267 55.8972 40.6946 54.9174C40.9721 54.7544 41.2566 54.5878 41.5489 54.4167C41.5512 54.4154 41.5535 54.414 41.5559 54.4126L41.5569 54.412C43.0083 53.5623 44.6493 52.6017 46.5551 51.4178C47.8369 50.2953 48.6486 49.0337 49.0604 47.552C49.4874 46.0158 49.5125 44.1412 49.0431 41.7942C48.8806 40.9819 49.4074 40.1916 50.2197 40.0291C51.0321 39.8667 51.8223 40.3935 51.9848 41.2058C52.5154 43.8588 52.5404 46.2342 51.9508 48.3554C51.4189 50.2692 50.4091 51.8938 48.9632 53.2794C49.0111 57.2299 48.2733 60.1613 47.0706 62.5943C45.9111 64.9397 44.3415 66.7604 42.8682 68.4694C42.753 68.603 42.6384 68.736 42.5245 68.8685C40.9319 70.7228 39.4351 72.5488 38.3097 75.0542C37.313 77.2731 36.5791 80.0942 36.4296 84H81.0522C81.6732 79.8453 82.0664 73.4515 81.3974 66.4983C80.6572 58.8044 78.6293 50.5601 74.2946 43.9135C65.5178 30.4557 53.8168 26.5759 49.3536 26.2733C48.803 26.236 48.3174 25.8994 48.0893 25.3969Z" fill="#42210B"/>
<path fill-rule="evenodd" clip-rule="evenodd" d="M40.9139 14.4821C41.4558 13.8955 42.3624 13.8364 42.9759 14.3477C45.8809 16.7685 48.4305 19.2773 50.4485 23.3698C56.2491 24.1251 67.9968 28.7651 76.8074 42.2747C81.5059 49.479 83.6183 58.2557 84.3836 66.211C85.1499 74.1758 84.5787 81.4523 83.8022 85.7657C83.6736 86.4802 83.0519 87 82.326 87H34.9016C34.5037 87 34.1222 86.842 33.8409 86.5607C33.5596 86.2794 33.4016 85.8978 33.4016 85.5C33.4016 80.4488 34.2524 76.765 35.5731 73.8249C36.8885 70.8968 38.6343 68.7934 40.2488 66.9138C40.3498 66.7962 40.4501 66.6797 40.5496 66.5641C42.0638 64.8048 43.3968 63.2562 44.3812 61.2648C45.1551 59.6994 45.7291 57.8189 45.9073 55.3269C44.8743 55.9463 43.9295 56.4994 43.0649 57.0055C42.7722 57.1768 42.4887 57.3428 42.2141 57.5041C40.5392 58.488 39.2195 59.2857 38.0963 60.1037C35.9344 61.6782 34.4613 63.3525 32.8636 66.6535C32.3277 67.7607 31.6162 68.5851 30.7392 69.1057C29.8601 69.6275 28.9313 69.7747 28.0803 69.7223C26.7661 69.6415 25.5589 69.0811 24.7179 68.5852C22.3464 68.9301 20.0233 67.9758 18.1821 66.748C16.1691 65.4054 15.1595 63.0126 15.0178 60.4581C14.8748 57.8794 15.5908 54.9595 17.2295 52.2283C17.6444 51.5367 18.0633 50.884 18.472 50.247C20.404 47.236 22.11 44.5772 22.11 39.8321C22.11 34.7774 25.3239 31.3298 27.5389 29.7778C27.5124 29.4675 27.4859 29.0922 27.4662 28.6646C27.4083 27.4102 27.4075 25.6837 27.6418 23.8135C27.8746 21.9554 28.2407 20.4937 28.5549 19.4832C28.712 18.9778 28.8562 18.5851 28.9645 18.3115C29.0187 18.1748 29.0639 18.0678 29.0973 17.9914C29.1139 17.9532 29.1277 17.9226 29.1381 17.8999L29.1512 17.8715L29.1558 17.8617L29.1576 17.8579L29.1583 17.8562C29.1583 17.8562 29.159 17.8548 30.5132 18.5L29.159 17.8548C29.5054 17.1279 30.3639 16.8041 31.1041 17.1213C32.9279 17.9029 34.8577 18.9337 36.3138 19.7567C36.633 19.9371 36.9311 20.1085 37.2021 20.2662C37.7766 18.9022 38.5083 17.6878 39.151 16.7474C39.6175 16.0648 40.0508 15.5068 40.3698 15.1168C40.5295 14.9215 40.6613 14.7674 40.7551 14.66C40.8021 14.6063 40.8396 14.5641 40.8665 14.5343L40.8986 14.4988L40.9084 14.4881L40.9117 14.4845L40.9129 14.4832L40.9139 14.4821ZM48.0893 25.3969C46.5233 21.9482 44.5845 19.7406 42.205 17.6366C42.1196 17.7262 42.0362 17.8176 41.9547 17.9107C38.9737 21.3169 38.5 27.0665 38.5 29.5C38.5 31.5 35.5 31.5 35.5 29.5C35.5 29.5 35.5 27.1927 36.0275 24.4028C36.1015 24.0114 36.1859 23.6106 36.2821 23.2053C36.2821 23.2053 35.3988 22.6856 34.8376 22.3684C33.8206 21.7935 32.5974 21.1327 31.3688 20.54C31.1124 21.395 30.8142 22.6249 30.6185 24.1865C30.4113 25.8403 30.4105 27.3878 30.463 28.5264C30.4891 29.0935 30.5283 29.5538 30.5603 29.8684C30.5763 30.0256 30.5905 30.146 30.6004 30.2249C30.6053 30.2643 30.6092 30.2933 30.6116 30.3112L30.6145 30.3317C30.7049 30.9526 30.3993 31.5643 29.8484 31.8648C28.2763 32.7224 25.11 35.5694 25.11 39.8321C25.11 45.5217 22.8904 48.954 20.9119 52.0134C20.5268 52.609 20.1507 53.1905 19.802 53.7717C18.4408 56.0405 17.9067 58.3707 18.0132 60.292C18.1211 62.2375 18.8609 63.5946 19.8467 64.2521C21.5558 65.3919 23.2462 65.8956 24.6495 65.5448C25.0595 65.4423 25.4937 65.5175 25.8454 65.7519C26.5386 66.2141 27.4533 66.6781 28.2645 66.728C28.6332 66.7507 28.9393 66.6854 29.2079 66.5259C29.4787 66.3652 29.8279 66.0395 30.1633 65.3465C31.9537 61.6475 33.7306 59.5719 36.3302 57.6786C37.5878 56.7628 39.0267 55.8972 40.6946 54.9174C40.9721 54.7544 41.2566 54.5878 41.5489 54.4167L41.5559 54.4126L41.5569 54.412C43.0083 53.5623 44.6493 52.6017 46.5551 51.4178C47.8369 50.2953 48.6486 49.0337 49.0604 47.552C49.4874 46.0158 49.5125 44.1412 49.0431 41.7942C48.8806 40.9819 49.4074 40.1916 50.2197 40.0291C51.0321 39.8667 51.8223 40.3935 51.9848 41.2058C52.5154 43.8588 52.5404 46.2342 51.9508 48.3554C51.4189 50.2692 50.4091 51.8938 48.9632 53.2794C49.0111 57.2299 48.2733 60.1613 47.0706 62.5943C45.9111 64.9397 44.3415 66.7604 42.8682 68.4694C42.753 68.603 42.6384 68.736 42.5245 68.8685C40.9319 70.7228 39.4351 72.5488 38.3097 75.0542C37.313 77.2731 36.5791 80.0942 36.4296 84H81.0522C81.6732 79.8453 82.0664 73.4515 81.3974 66.4983C80.6572 58.8044 78.6293 50.5601 74.2946 43.9135C65.5178 30.4557 53.8168 26.5759 49.3536 26.2733C48.803 26.236 48.3174 25.8994 48.0893 25.3969Z" fill="#42210B"/>
<path d="M42.205 17.6366C44.5845 19.7406 46.5233 21.9482 48.0893 25.3969C48.3174 25.8994 48.803 26.236 49.3536 26.2733C53.8168 26.5759 65.5178 30.4557 74.2946 43.9135C78.6293 50.5601 80.6572 58.8044 81.3974 66.4983C82.0664 73.4515 81.6732 79.8453 81.0522 84H36.4296C36.5791 80.0942 37.313 77.2731 38.3097 75.0542C39.4351 72.5488 40.9319 70.7228 42.5245 68.8685C42.6384 68.736 42.753 68.603 42.8682 68.4694C44.3415 66.7604 45.9111 64.9397 47.0706 62.5943C48.2733 60.1613 49.0111 57.2299 48.9632 53.2794C50.4091 51.8938 51.4189 50.2692 51.9508 48.3554C52.5404 46.2342 52.5154 43.8588 51.9848 41.2058C51.8223 40.3935 51.0321 39.8667 50.2197 40.0291C49.4074 40.1916 48.8806 40.9819 49.0431 41.7942C49.5125 44.1412 49.4874 46.0158 49.0604 47.552C48.6486 49.0337 47.8369 50.2953 46.5551 51.4178C44.6493 52.6017 43.0083 53.5623 41.5569 54.412L41.5559 54.4126L41.5489 54.4167C41.2566 54.5878 40.9721 54.7544 40.6946 54.9174C39.0267 55.8972 37.5878 56.7628 36.3302 57.6786C33.7306 59.5719 31.9537 61.6475 30.1633 65.3465C29.8279 66.0395 29.4787 66.3652 29.2079 66.5259C28.9393 66.6854 28.6332 66.7507 28.2645 66.728C27.4533 66.6781 26.5386 66.2141 25.8454 65.7519C25.4937 65.5175 25.0595 65.4423 24.6495 65.5448C23.2462 65.8956 21.5558 65.3919 19.8467 64.2521C18.8609 63.5946 18.1211 62.2375 18.0132 60.292C17.9067 58.3707 18.4408 56.0405 19.802 53.7717C20.1507 53.1905 20.5268 52.609 20.9119 52.0134C22.8904 48.954 25.11 45.5217 25.11 39.8321C25.11 35.5694 28.2763 32.7224 29.8484 31.8648C30.3993 31.5643 30.7049 30.9526 30.6145 30.3317L30.6116 30.3112C30.6092 30.2933 30.6053 30.2643 30.6004 30.2249C30.5905 30.146 30.5763 30.0256 30.5603 29.8684C30.5283 29.5538 30.4891 29.0935 30.463 28.5264C30.4105 27.3878 30.4113 25.8403 30.6185 24.1865C30.8142 22.6249 31.1124 21.395 31.3688 20.54C32.5974 21.1327 33.8206 21.7935 34.8376 22.3684C35.3988 22.6856 36.2821 23.2053 36.2821 23.2053C36.1859 23.6106 36.1015 24.0114 36.0275 24.4028C35.5 27.1927 35.5 29.5 35.5 29.5C35.5 31.5 38.5 31.5 38.5 29.5C38.5 27.0665 38.9737 21.3169 41.9547 17.9107C42.0362 17.8176 42.1196 17.7262 42.205 17.6366Z" fill="#EFD5BB"/>
<path d="M81.5156 84.5H71.5156C71.5156 84.5 78.5156 74 73.0156 53C67.5156 32 48.5156 26 48.5156 26C48.5156 26 71.0156 29.5 78.5156 50.5C86.0156 71.5 81.5156 84.5 81.5156 84.5Z" fill="#DCA898"/>
<path d="M40.5161 69C46.5161 63.4 47.5152 58.4999 48.5156 52C53.0152 65.5 42.5156 73 43.5156 85.5H35.0161C34.3494 82.3333 34.5161 74.6 40.5161 69Z" fill="white"/>
<path d="M48.5162 37C44.0156 42 49.0162 50 36.5137 57.5C36.5137 57.5 39.6465 56.5642 47.5162 53C50.0162 50.5 56.0162 42.5 48.5162 37Z" fill="#DCA898"/>
<path d="M35.5156 29.5C35.5156 24.5 31.0156 19.5 31.0156 19.5L37.5156 22L38.0156 29.5H35.5156Z" fill="#DCA898"/>
<path d="M31.5156 25.5C31.5156 23.5 31.849 20.6667 32.0156 19.5L30.5156 20L30.0156 25L30.5156 31.5L32.5156 30.5C32.1823 29.6667 31.5156 27.5 31.5156 25.5Z" fill="white"/>
<path d="M40.5156 23C40.924 20.9416 41.7259 18.6246 42.2186 17.4917L41.5161 17.0009L38.7272 22.503L38.0183 29.4938L40.0285 29.4938C39.945 28.5617 40.0028 25.5849 40.5156 23Z" fill="white"/>
<path d="M45.5156 26.5C45.5156 21.5 41.0156 16.5 41.0156 16.5L47.0156 20L50.5156 26L45.5156 26.5Z" fill="#DCA898"/>
<path d="M18.5185 53C21.7185 47.4 24.1852 40.3333 25.0185 37.5C31.0161 50.5 14.0156 58.5 24.5157 66C18.0151 66 15.3185 58.6 18.5185 53Z" fill="white"/>
<path d="M30.431 41.7323C30.431 41.7323 30.651 39.8557 31.7481 38.8429C32.8452 37.8301 34.1759 37.6056 34.1759 37.6056" stroke="#42210B" stroke-width="3" stroke-linecap="round" stroke-linejoin="round"/>
<circle cx="32.2097" cy="40.7517" r="2.52917" transform="rotate(6.68608 32.2097 40.7517)" fill="#42210B"/>
<path fill-rule="evenodd" clip-rule="evenodd" d="M42.9759 14.3477C42.3624 13.8364 41.4558 13.8955 40.9139 14.4821L40.9129 14.4832L40.9117 14.4845L40.9084 14.4881L40.8986 14.4988L40.8665 14.5343C40.8396 14.5641 40.8021 14.6063 40.7551 14.66C40.6613 14.7674 40.5295 14.9215 40.3698 15.1168C40.0508 15.5068 39.6175 16.0648 39.151 16.7474C38.5083 17.6878 37.7766 18.9022 37.2021 20.2662C36.9311 20.1085 36.633 19.9371 36.3138 19.7567C34.8577 18.9337 32.9279 17.9029 31.1041 17.1213C30.3639 16.8041 29.5054 17.1279 29.159 17.8548L30.5132 18.5C29.159 17.8548 29.1583 17.8562 29.1583 17.8562L29.1576 17.8579L29.1558 17.8617L29.1512 17.8715L29.1381 17.8999C29.1277 17.9226 29.1139 17.9532 29.0973 17.9914C29.0639 18.0678 29.0187 18.1748 28.9645 18.3115C28.8562 18.5851 28.712 18.9778 28.5549 19.4832C28.2407 20.4937 27.8746 21.9554 27.6418 23.8135C27.4075 25.6837 27.4083 27.4102 27.4662 28.6646C27.4859 29.0922 27.5124 29.4675 27.5389 29.7778C25.3239 31.3298 22.11 34.7774 22.11 39.8321C22.11 44.5772 20.404 47.236 18.472 50.247C18.0633 50.884 17.6444 51.5367 17.2295 52.2283C15.5908 54.9595 14.8748 57.8794 15.0178 60.4581C15.1595 63.0126 16.1691 65.4054 18.1821 66.748C20.0233 67.9758 22.3464 68.9301 24.7179 68.5852C25.5589 69.0811 26.7661 69.6415 28.0803 69.7223C28.9313 69.7747 29.8601 69.6275 30.7392 69.1057C31.6162 68.5851 32.3277 67.7607 32.8636 66.6535C34.4613 63.3525 35.9344 61.6782 38.0963 60.1037C39.2195 59.2857 40.5392 58.488 42.2141 57.5041C42.4887 57.3428 42.7722 57.1768 43.0649 57.0055C43.9295 56.4994 44.8743 55.9463 45.9073 55.3269C45.7291 57.8189 45.1551 59.6994 44.3812 61.2648C43.3968 63.2562 42.0638 64.8048 40.5496 66.5641C40.4501 66.6797 40.3498 66.7962 40.2488 66.9138C38.6343 68.7934 36.8885 70.8968 35.5731 73.8249C34.2524 76.765 33.4016 80.4488 33.4016 85.5C33.4016 85.8978 33.5596 86.2794 33.8409 86.5607C34.1222 86.842 34.5037 87 34.9016 87H82.326C83.0519 87 83.6736 86.4802 83.8022 85.7657C84.5787 81.4523 85.1499 74.1758 84.3836 66.211C83.6183 58.2557 81.5059 49.479 76.8074 42.2747C67.9968 28.7651 56.2491 24.1251 50.4485 23.3698C48.4305 19.2773 45.8809 16.7685 42.9759 14.3477ZM48.0893 25.3969C46.5233 21.9482 44.5845 19.7406 42.205 17.6366C42.1196 17.7262 42.0362 17.8176 41.9547 17.9107C38.9737 21.3169 38.5 27.0665 38.5 29.5C38.5 31.5 35.5 31.5 35.5 29.5C35.5 29.5 35.5 27.1927 36.0275 24.4028C36.1015 24.0114 36.1859 23.6106 36.2821 23.2053C36.2821 23.2053 35.3988 22.6856 34.8376 22.3684C33.8206 21.7935 32.5974 21.1327 31.3688 20.54C31.1124 21.395 30.8142 22.6249 30.6185 24.1865C30.4113 25.8403 30.4105 27.3878 30.463 28.5264C30.4891 29.0935 30.5283 29.5538 30.5603 29.8684C30.5763 30.0256 30.5905 30.146 30.6004 30.2249C30.6053 30.2643 30.6092 30.2933 30.6116 30.3112L30.6145 30.3317C30.7049 30.9526 30.3993 31.5643 29.8484 31.8648C28.2763 32.7224 25.11 35.5694 25.11 39.8321C25.11 45.5217 22.8904 48.954 20.9119 52.0134C20.5268 52.609 20.1507 53.1905 19.802 53.7717C18.4408 56.0405 17.9067 58.3707 18.0132 60.292C18.1211 62.2375 18.8609 63.5946 19.8467 64.2521C21.5558 65.3919 23.2462 65.8956 24.6495 65.5448C25.0595 65.4423 25.4937 65.5175 25.8454 65.7519C26.5386 66.2141 27.4533 66.6781 28.2645 66.728C28.6332 66.7507 28.9393 66.6854 29.2079 66.5259C29.4787 66.3652 29.8279 66.0395 30.1633 65.3465C31.9537 61.6475 33.7306 59.5719 36.3302 57.6786C37.5878 56.7628 39.0267 55.8972 40.6946 54.9174C40.9721 54.7544 41.2566 54.5878 41.5489 54.4167C41.5512 54.4154 41.5535 54.414 41.5559 54.4126L41.5569 54.412C43.0083 53.5623 44.6493 52.6017 46.5551 51.4178C47.8369 50.2953 48.6486 49.0337 49.0604 47.552C49.4874 46.0158 49.5125 44.1412 49.0431 41.7942C48.8806 40.9819 49.4074 40.1916 50.2197 40.0291C51.0321 39.8667 51.8223 40.3935 51.9848 41.2058C52.5154 43.8588 52.5404 46.2342 51.9508 48.3554C51.4189 50.2692 50.4091 51.8938 48.9632 53.2794C49.0111 57.2299 48.2733 60.1613 47.0706 62.5943C45.9111 64.9397 44.3415 66.7604 42.8682 68.4694C42.753 68.603 42.6384 68.736 42.5245 68.8685C40.9319 70.7228 39.4351 72.5488 38.3097 75.0542C37.313 77.2731 36.5791 80.0942 36.4296 84H81.0522C81.6732 79.8453 82.0664 73.4515 81.3974 66.4983C80.6572 58.8044 78.6293 50.5601 74.2946 43.9135C65.5178 30.4557 53.8168 26.5759 49.3536 26.2733C48.803 26.236 48.3174 25.8994 48.0893 25.3969Z" fill="#42210B"/>
<path fill-rule="evenodd" clip-rule="evenodd" d="M40.9139 14.4821C41.4558 13.8955 42.3624 13.8364 42.9759 14.3477C45.8809 16.7685 48.4305 19.2773 50.4485 23.3698C56.2491 24.1251 67.9968 28.7651 76.8074 42.2747C81.5059 49.479 83.6183 58.2557 84.3836 66.211C85.1499 74.1758 84.5787 81.4523 83.8022 85.7657C83.6736 86.4802 83.0519 87 82.326 87H34.9016C34.5037 87 34.1222 86.842 33.8409 86.5607C33.5596 86.2794 33.4016 85.8978 33.4016 85.5C33.4016 80.4488 34.2524 76.765 35.5731 73.8249C36.8885 70.8968 38.6343 68.7934 40.2488 66.9138C40.3498 66.7962 40.4501 66.6797 40.5496 66.5641C42.0638 64.8048 43.3968 63.2562 44.3812 61.2648C45.1551 59.6994 45.7291 57.8189 45.9073 55.3269C44.8743 55.9463 43.9295 56.4994 43.0649 57.0055C42.7722 57.1768 42.4887 57.3428 42.2141 57.5041C40.5392 58.488 39.2195 59.2857 38.0963 60.1037C35.9344 61.6782 34.4613 63.3525 32.8636 66.6535C32.3277 67.7607 31.6162 68.5851 30.7392 69.1057C29.8601 69.6275 28.9313 69.7747 28.0803 69.7223C26.7661 69.6415 25.5589 69.0811 24.7179 68.5852C22.3464 68.9301 20.0233 67.9758 18.1821 66.748C16.1691 65.4054 15.1595 63.0126 15.0178 60.4581C14.8748 57.8794 15.5908 54.9595 17.2295 52.2283C17.6444 51.5367 18.0633 50.884 18.472 50.247C20.404 47.236 22.11 44.5772 22.11 39.8321C22.11 34.7774 25.3239 31.3298 27.5389 29.7778C27.5124 29.4675 27.4859 29.0922 27.4662 28.6646C27.4083 27.4102 27.4075 25.6837 27.6418 23.8135C27.8746 21.9554 28.2407 20.4937 28.5549 19.4832C28.712 18.9778 28.8562 18.5851 28.9645 18.3115C29.0187 18.1748 29.0639 18.0678 29.0973 17.9914C29.1139 17.9532 29.1277 17.9226 29.1381 17.8999L29.1512 17.8715L29.1558 17.8617L29.1576 17.8579L29.1583 17.8562C29.1583 17.8562 29.159 17.8548 30.5132 18.5L29.159 17.8548C29.5054 17.1279 30.3639 16.8041 31.1041 17.1213C32.9279 17.9029 34.8577 18.9337 36.3138 19.7567C36.633 19.9371 36.9311 20.1085 37.2021 20.2662C37.7766 18.9022 38.5083 17.6878 39.151 16.7474C39.6175 16.0648 40.0508 15.5068 40.3698 15.1168C40.5295 14.9215 40.6613 14.7674 40.7551 14.66C40.8021 14.6063 40.8396 14.5641 40.8665 14.5343L40.8986 14.4988L40.9084 14.4881L40.9117 14.4845L40.9129 14.4832L40.9139 14.4821ZM48.0893 25.3969C46.5233 21.9482 44.5845 19.7406 42.205 17.6366C42.1196 17.7262 42.0362 17.8176 41.9547 17.9107C38.9737 21.3169 38.5 27.0665 38.5 29.5C38.5 31.5 35.5 31.5 35.5 29.5C35.5 29.5 35.5 27.1927 36.0275 24.4028C36.1015 24.0114 36.1859 23.6106 36.2821 23.2053C36.2821 23.2053 35.3988 22.6856 34.8376 22.3684C33.8206 21.7935 32.5974 21.1327 31.3688 20.54C31.1124 21.395 30.8142 22.6249 30.6185 24.1865C30.4113 25.8403 30.4105 27.3878 30.463 28.5264C30.4891 29.0935 30.5283 29.5538 30.5603 29.8684C30.5763 30.0256 30.5905 30.146 30.6004 30.2249C30.6053 30.2643 30.6092 30.2933 30.6116 30.3112L30.6145 30.3317C30.7049 30.9526 30.3993 31.5643 29.8484 31.8648C28.2763 32.7224 25.11 35.5694 25.11 39.8321C25.11 45.5217 22.8904 48.954 20.9119 52.0134C20.5268 52.609 20.1507 53.1905 19.802 53.7717C18.4408 56.0405 17.9067 58.3707 18.0132 60.292C18.1211 62.2375 18.8609 63.5946 19.8467 64.2521C21.5558 65.3919 23.2462 65.8956 24.6495 65.5448C25.0595 65.4423 25.4937 65.5175 25.8454 65.7519C26.5386 66.2141 27.4533 66.6781 28.2645 66.728C28.6332 66.7507 28.9393 66.6854 29.2079 66.5259C29.4787 66.3652 29.8279 66.0395 30.1633 65.3465C31.9537 61.6475 33.7306 59.5719 36.3302 57.6786C37.5878 56.7628 39.0267 55.8972 40.6946 54.9174C40.9721 54.7544 41.2566 54.5878 41.5489 54.4167L41.5559 54.4126L41.5569 54.412C43.0083 53.5623 44.6493 52.6017 46.5551 51.4178C47.8369 50.2953 48.6486 49.0337 49.0604 47.552C49.4874 46.0158 49.5125 44.1412 49.0431 41.7942C48.8806 40.9819 49.4074 40.1916 50.2197 40.0291C51.0321 39.8667 51.8223 40.3935 51.9848 41.2058C52.5154 43.8588 52.5404 46.2342 51.9508 48.3554C51.4189 50.2692 50.4091 51.8938 48.9632 53.2794C49.0111 57.2299 48.2733 60.1613 47.0706 62.5943C45.9111 64.9397 44.3415 66.7604 42.8682 68.4694C42.753 68.603 42.6384 68.736 42.5245 68.8685C40.9319 70.7228 39.4351 72.5488 38.3097 75.0542C37.313 77.2731 36.5791 80.0942 36.4296 84H81.0522C81.6732 79.8453 82.0664 73.4515 81.3974 66.4983C80.6572 58.8044 78.6293 50.5601 74.2946 43.9135C65.5178 30.4557 53.8168 26.5759 49.3536 26.2733C48.803 26.236 48.3174 25.8994 48.0893 25.3969Z" fill="#42210B"/>
</svg>
