<svg width="100" height="100" viewBox="0 0 100 100" fill="none" xmlns="http://www.w3.org/2000/svg">
<path d="M29.0312 83.478C28.0624 80.9849 27.5312 78.2757 27.5312 75.4432C27.5312 66.492 32.836 58.7715 40.493 55.2147C38.0342 52.7194 36.5185 49.3035 36.5185 45.536C36.5185 39.3683 40.5805 34.1431 46.1921 32.3562C43.6333 30.8916 41.9108 28.1469 41.9108 25.0026C41.9108 20.3186 45.7334 16.5215 50.4487 16.5215C55.164 16.5215 58.9866 20.3186 58.9866 25.0026C58.9866 28.1469 57.2641 30.8916 54.7053 32.3562C60.3169 34.1431 64.3789 39.3683 64.3789 45.536C64.3789 49.4523 62.7411 52.9885 60.1088 55.5059C67.4398 59.1812 72.4674 66.729 72.4674 75.4432C72.4674 78.2757 71.9363 80.9849 70.9675 83.478H29.0312Z" fill="#EFD5BB"/>
<path d="M52.042 17.6877C54.3712 19.3929 55.5 22.6316 55.5 25.0658C55.5 27.5 54.5 30.5 53.4273 31.74L54.0334 32.7545C54.0334 32.7545 58.7377 29.4889 58.1124 24.5388C57.9322 23.0986 57.416 21.7181 56.6036 20.5041C55.7913 19.2901 54.7045 18.2749 53.4273 17.5371L52.042 17.6877Z" fill="#DCA898"/>
<path d="M48.9785 17.6877C46.269 19.388 45.5 22.5 45.5 25C45.5 27.5 45.7742 29.7887 47.3623 31.74L46.6552 32.7545C46.6552 32.7545 41.1668 29.4889 41.8964 24.5388C42.1066 23.0986 42.7089 21.7181 43.6566 20.5041C44.6044 19.2901 45.8722 18.2749 47.3623 17.5371L48.9785 17.6877Z" fill="white"/>
<path d="M53.5741 33.2612C55.5218 34.573 56.5839 36.0068 57.6517 37.974C58.7196 39.9413 59.2518 42.1089 59.2044 44.2979C59.3592 46.499 58.8744 48.6984 57.7976 50.6796C56.7208 52.6608 55.0892 54.3554 53.0635 55.5966L60.6662 56.5945C60.6662 56.5945 64.223 51.08 63.1808 43.4898C62.8805 41.2815 62.0201 39.1648 60.6662 37.3033C59.3123 35.4418 57.501 33.8852 55.3723 32.7539L53.5741 33.2612Z" fill="#DCA898"/>
<path d="M47.4464 33.2612C45.4987 34.573 44.4366 36.0068 43.3688 37.974C42.3009 39.9413 41.7687 42.1089 41.8161 44.2979C41.6613 46.499 42.1461 48.6984 43.2229 50.6796C44.2997 52.6608 45.9313 54.3554 47.957 55.5966L40.8081 56.0872C40.8081 56.0872 36.7975 51.08 37.8397 43.4898C38.14 41.2815 39.0004 39.1648 40.3543 37.3033C41.7083 35.4418 43.5195 33.8852 45.6482 32.7539L47.4464 33.2612Z" fill="white"/>
<path d="M53.5752 55.5801C58.6816 57.1018 63.0996 60.0474 64.5945 62.4423C66.0895 64.8371 66.8346 67.4761 66.7683 70.1409C66.985 72.8205 66.3062 75.4981 64.7987 77.9099C63.2912 80.3218 61.0069 82.3848 58.1709 83.8958L70.9369 82.9714C70.9369 82.9714 73.7943 78.3974 72.3353 69.1572C71.9147 66.4687 70.7102 63.8919 68.8147 61.6257C66.9192 59.3595 64.3835 57.4646 61.4034 56.0873L53.5752 55.5801Z" fill="#DCA898"/>
<path d="M47.957 55.5801C44.8932 56.5946 39.7868 57.1018 35.8646 62.4423C34.4764 64.8371 33.7845 67.4761 33.8461 70.1409C33.6449 72.8205 34.2752 75.4981 35.6751 77.9099C37.0749 80.3218 39.1959 82.3848 41.8294 83.8958L28.6768 82.9714C28.6768 82.9714 27.3219 78.3974 28.6768 69.1572C29.0673 66.4687 30.1858 63.8919 31.9459 61.6257C33.706 59.3595 36.0606 57.4646 38.8278 56.0873L47.957 55.5801Z" fill="white"/>
<path d="M29.0312 83.478C28.0624 80.9849 27.5312 78.2757 27.5312 75.4432C27.5312 66.492 32.836 58.7715 40.493 55.2147C38.0342 52.7194 36.5185 49.3035 36.5185 45.536C36.5185 39.3683 40.5805 34.1431 46.1921 32.3562C43.6333 30.8916 41.9108 28.1469 41.9108 25.0026C41.9108 20.3186 45.7334 16.5215 50.4487 16.5215C55.164 16.5215 58.9866 20.3186 58.9866 25.0026C58.9866 28.1469 57.2641 30.8916 54.7053 32.3562C60.3169 34.1431 64.3789 39.3683 64.3789 45.536C64.3789 49.4523 62.7411 52.9885 60.1088 55.5059C67.4398 59.1812 72.4674 66.729 72.4674 75.4432C72.4674 78.2757 71.9363 80.9849 70.9675 83.478H29.0312Z" stroke="#42210B" stroke-width="3" stroke-linejoin="round"/>
<path fill-rule="evenodd" clip-rule="evenodd" d="M50.4494 18.0435C46.5801 18.0435 43.4434 21.1593 43.4434 25.0029C43.4434 27.5811 44.8539 29.8338 46.9576 31.038C47.483 31.3387 47.7803 31.919 47.716 32.5179C47.6517 33.1168 47.2378 33.6217 46.6604 33.8056C41.6644 35.3965 38.0511 40.0492 38.0511 45.5362C38.0511 48.89 39.3985 51.9281 41.5884 54.1505C41.9358 54.503 42.0896 55.001 42.001 55.4864C41.9124 55.9718 41.5924 56.3844 41.1426 56.5934C34.0041 59.9094 29.0638 67.1049 29.0638 75.4435C29.0638 77.7204 29.4316 79.9094 30.1106 81.9565H69.8894C70.5684 79.9094 70.9362 77.7204 70.9362 75.4435C70.9362 67.3256 66.2542 60.2913 59.4193 56.8647C58.976 56.6424 58.6686 56.2205 58.5947 55.7328C58.5207 55.2451 58.6893 54.752 59.047 54.4099C61.3918 52.1675 62.8477 49.0221 62.8477 45.5362C62.8477 40.0492 59.2343 35.3965 54.2383 33.8056C53.6609 33.6217 53.247 33.1168 53.1827 32.5179C53.1184 31.919 53.4158 31.3387 53.9411 31.038C56.0448 29.8338 57.4553 27.5811 57.4553 25.0029C57.4553 21.1593 54.3186 18.0435 50.4494 18.0435ZM40.3796 25.0029C40.3796 19.4784 44.888 15 50.4494 15C56.0108 15 60.5191 19.4785 60.5191 25.0029C60.5191 27.7074 59.4383 30.1601 57.685 31.9594C62.5774 34.5375 65.9115 39.6486 65.9115 45.5362C65.9115 49.1571 64.6488 52.4868 62.5393 55.112C69.412 59.3033 74 66.84 74 75.4435C74 78.4663 73.4329 81.3611 72.3973 84.0263C72.1693 84.613 71.6013 85 70.9681 85H29.0319C28.3987 85 27.8307 84.613 27.6027 84.0263C26.5671 81.3611 26 78.4663 26 75.4435C26 66.5856 30.8631 58.8587 38.0765 54.7489C36.1375 52.1829 34.9872 48.9919 34.9872 45.5362C34.9872 39.6486 38.3213 34.5375 43.2137 31.9594C41.4605 30.1601 40.3796 27.7074 40.3796 25.0029Z" fill="#42210B"/>
</svg>
