<svg width="100" height="100" viewBox="0 0 100 100" fill="none" xmlns="http://www.w3.org/2000/svg">
<path d="M32 37C32 37 37 35.5 50 35.5C63 35.5 68 37 68 37V63H32V37Z" fill="#EFD5BB"/>
<path d="M32 63H68L73 68H27L32 63Z" fill="#EFD5BB"/>
<path d="M32 37C32 37 37 35.5 50 35.5C63 35.5 68 37 68 37L75 32C75 32 68.2 28.5 50 28.5C31.8 28.5 25 32 25 32L32 37Z" fill="#EFD5BB"/>
<path d="M25 20C25 20 29.5 18 35 17.5V22.5L43.5 21.5V16.5C43.5 16.5 46 16 50 16C54 16 56.5 16.5 56.5 16.5V21.5L65 22.5V17.5C71.5 18.5 75 20 75 20V32C75 32 68.2 28.5 50 28.5C31.8 28.5 25 32 25 32V20Z" fill="#EFD5BB"/>
<path d="M73 68H27V76H73V68Z" fill="#EFD5BB"/>
<path d="M76 84V76H73H27H24V84H76Z" fill="#EFD5BB"/>
<rect x="26" y="19" width="4" height="11" fill="white"/>
<rect x="28" y="68" width="8" height="8" fill="white"/>
<rect x="64" y="68" width="8" height="8" fill="#DCA898"/>
<rect x="25" y="76" width="8" height="8" fill="white"/>
<rect x="67" y="76" width="8" height="8" fill="#DCA898"/>
<path d="M26 31H31L38 36L33.0002 35.9996L26 31Z" fill="white"/>
<path d="M59 63H67L72 68H64L59 63Z" fill="#DCA898"/>
<path d="M74 31H69L62 36H67L74 31Z" fill="#DCA898"/>
<path d="M41 63H33L28 68H36L41 63Z" fill="white"/>
<rect x="70" y="19" width="4" height="11" fill="#DCA898"/>
<path d="M55 37H68V62H63C63 62 63 50.5 63 44.5C63 38.5 55 37 55 37Z" fill="#DCA898"/>
<path d="M45 62L32 62L32 37L37 37C37 37 37 48 37 54.5C37 61 45 62 45 62Z" fill="white"/>
<path d="M27 68H73M27 68V76M27 68L32 63M73 68V76M73 68L68 63M73 76H27M73 76H76V84H24V76H27M32 37V63M32 37C32 37 37 35.5 50 35.5C63 35.5 68 37 68 37M32 37L25 32M68 37V63M68 37L75 32M68 63H32M75 32C75 32 68.2 28.5 50 28.5C31.8 28.5 25 32 25 32M75 32V20C75 20 71.5 18.5 65 17.5V22.5L56.5 21.5V16.5C56.5 16.5 54 16 50 16C46 16 43.5 16.5 43.5 16.5V21.5L35 22.5V17.5C29.5 18 25 20 25 20V32" stroke="#42210B" stroke-width="3" stroke-linejoin="round"/>
<path fill-rule="evenodd" clip-rule="evenodd" d="M45 17.7897V21.5C45 22.2606 44.4307 22.9009 43.6753 22.9897L35.1753 23.9897C34.7498 24.0398 34.3233 23.9056 34.0032 23.6209C33.6831 23.3363 33.5 22.9284 33.5 22.5V19.1905C31.5317 19.4831 29.7567 19.9435 28.3821 20.3701C27.6105 20.6095 26.9706 20.8366 26.5 21.014V29.8163C27.4469 29.5068 28.719 29.1446 30.3525 28.7851C34.445 27.8842 40.8041 27 50 27C59.1959 27 65.555 27.8842 69.6475 28.7851C71.281 29.1446 72.5531 29.5068 73.5 29.8163V21.0393C73.1199 20.9074 72.6225 20.7443 72.0114 20.5632C70.6929 20.1726 68.8448 19.6982 66.5 19.2722V22.5C66.5 22.9284 66.3169 23.3363 65.9968 23.6209C65.6767 23.9056 65.2502 24.0398 64.8247 23.9897L56.3247 22.9897C55.5693 22.9009 55 22.2606 55 21.5V17.7897C54.871 17.7737 54.7324 17.7573 54.5844 17.7408C53.5073 17.6212 51.938 17.5 50 17.5C48.062 17.5 46.4927 17.6212 45.4156 17.7408C45.2676 17.7573 45.129 17.7737 45 17.7897ZM56.5 16.5L56.7942 15.0291C57.4953 15.1694 58 15.785 58 16.5V20.1661L63.5 20.8132V17.5C63.5 17.0623 63.6911 16.6465 64.0233 16.3616C64.3555 16.0766 64.7955 15.9509 65.2281 16.0174C68.5495 16.5284 71.1157 17.1689 72.8636 17.6868C73.7376 17.9458 74.4071 18.1741 74.8642 18.3403C75.0927 18.4234 75.2682 18.491 75.3897 18.5392C75.4504 18.5632 75.4976 18.5824 75.5312 18.5963L75.5713 18.613L75.5837 18.6182L75.5879 18.62L75.5896 18.6207C75.5899 18.6209 75.5909 18.6213 75 20L75.5909 18.6213C76.1424 18.8577 76.5 19.4 76.5 20V32C76.5 32.4844 76.2661 32.939 75.8719 33.2206L69.5 37.7719V62.3787L74.0607 66.9393C74.342 67.2206 74.5 67.6022 74.5 68V74.5H76C76.8284 74.5 77.5 75.1716 77.5 76V84C77.5 84.8284 76.8284 85.5 76 85.5H24C23.1716 85.5 22.5 84.8284 22.5 84V76C22.5 75.1716 23.1716 74.5 24 74.5H25.5V68C25.5 67.6022 25.658 67.2206 25.9393 66.9393L30.5 62.3787V37.7719L24.1281 33.2206C23.7339 32.939 23.5 32.4844 23.5 32V20C23.5 19.4072 23.8491 18.87 24.3908 18.6293L25 20C24.3908 18.6293 24.3905 18.6294 24.3908 18.6293L24.3936 18.6281L24.398 18.6261L24.4117 18.6201L24.4586 18.5997C24.4984 18.5826 24.5551 18.5584 24.6279 18.5282C24.7734 18.4676 24.9833 18.3825 25.2506 18.2797C25.785 18.0741 26.5508 17.7973 27.4929 17.5049C29.3714 16.9219 31.9787 16.2685 34.8642 16.0062C35.2839 15.968 35.7003 16.1082 36.0115 16.3924C36.3227 16.6766 36.5 17.0786 36.5 17.5V20.8132L42 20.1661V16.5C42 15.785 42.5047 15.1694 43.2058 15.0291L43.5 16.5C43.2058 15.0291 43.2056 15.0292 43.2058 15.0291L43.2081 15.0287L43.2112 15.0281L43.2202 15.0263L43.2492 15.0207C43.2734 15.0161 43.3071 15.0098 43.3502 15.0021C43.4364 14.9866 43.5601 14.9654 43.7192 14.9402C44.0374 14.89 44.4977 14.8244 45.0844 14.7592C46.2573 14.6288 47.938 14.5 50 14.5C52.062 14.5 53.7427 14.6288 54.9156 14.7592C55.5023 14.8244 55.9626 14.89 56.2808 14.9402C56.4399 14.9654 56.5636 14.9866 56.6498 15.0021C56.6929 15.0098 56.7266 15.0161 56.7508 15.0207L56.7798 15.0263L56.7888 15.0281L56.7919 15.0287L56.7942 15.0291C56.7944 15.0292 56.7942 15.0291 56.5 16.5ZM33.5 38.1911V61.5H66.5V38.1911C65.8657 38.0639 64.9373 37.9013 63.681 37.7374C60.8775 37.3717 56.4428 37 50 37C43.5572 37 39.1225 37.3717 36.319 37.7374C35.0627 37.9013 34.1343 38.0639 33.5 38.1911ZM67.691 35.3774L71.8133 32.4329C71.0614 32.2096 70.1293 31.963 69.0025 31.7149C65.145 30.8658 59.0041 30 50 30C40.9959 30 34.855 30.8658 30.9975 31.7149C29.8707 31.963 28.9386 32.2096 28.1867 32.4329L32.309 35.3774C32.4189 35.3526 32.5415 35.3258 32.6771 35.2974C33.3885 35.1485 34.4576 34.9548 35.931 34.7626C38.8775 34.3783 43.4428 34 50 34C56.5572 34 61.1225 34.3783 64.069 34.7626C65.5424 34.9548 66.6115 35.1485 67.3229 35.2974C67.4585 35.3258 67.5811 35.3526 67.691 35.3774ZM25.6838 33.3351L25.682 33.336L25.6801 33.337C25.6796 33.3372 25.6809 33.3366 25.6838 33.3351ZM74.3162 33.3351L74.318 33.336L74.3198 33.3369C74.3194 33.3367 74.3182 33.3361 74.3162 33.3351ZM67.3787 64.5H32.6213L30.6213 66.5H69.3787L67.3787 64.5ZM71.5 69.5H28.5V74.5H71.5V69.5ZM74.5 77.5H25.5V82.5H74.5V77.5Z" fill="#42210B"/>
</svg>
