<svg width="328" height="328" viewBox="0 0 328 328" fill="none" xmlns="http://www.w3.org/2000/svg">
<path d="M82 0H123V41H82V0Z" fill="#F2EFE8"/>
<path d="M82 82H123V123H82V82Z" fill="#F2EFE8"/>
<path d="M82 164H123V205H82V164Z" fill="#F2EFE8"/>
<path d="M82 246H123V287H82V246Z" fill="#F2EFE8"/>
<path d="M164 0H205V41H164V0Z" fill="#F2EFE8"/>
<path d="M164 82H205V123H164V82Z" fill="#F2EFE8"/>
<path d="M164 164H205V205H164V164Z" fill="#F2EFE8"/>
<path d="M164 246H205V287H164V246Z" fill="#F2EFE8"/>
<path d="M246 0H287V41H246V0Z" fill="#F2EFE8"/>
<path d="M246 82H287V123H246V82Z" fill="#F2EFE8"/>
<path d="M246 164H287V205H246V164Z" fill="#F2EFE8"/>
<path d="M246 246H287V287H246V246Z" fill="#F2EFE8"/>
<path d="M41 0H82V41H41V0Z" fill="#BFBAAC"/>
<path d="M41 82H82V123H41V82Z" fill="#BFBAAC"/>
<path d="M41 164H82V205H41V164Z" fill="#BFBAAC"/>
<path d="M41 246H82V287H41V246Z" fill="#BFBAAC"/>
<path d="M123 0H164V41H123V0Z" fill="#BFBAAC"/>
<path d="M123 82H164V123H123V82Z" fill="#BFBAAC"/>
<path d="M123 164H164V205H123V164Z" fill="#BFBAAC"/>
<path d="M123 246H164V287H123V246Z" fill="#BFBAAC"/>
<path d="M205 0H246V41H205V0Z" fill="#BFBAAC"/>
<path d="M205 82H246V123H205V82Z" fill="#BFBAAC"/>
<path d="M205 164H246V205H205V164Z" fill="#BFBAAC"/>
<path d="M205 246H246V287H205V246Z" fill="#BFBAAC"/>
<path d="M287 0H328V41H287V0Z" fill="#BFBAAC"/>
<path d="M287 82H328V123H287V82Z" fill="#BFBAAC"/>
<path d="M287 164H328V205H287V164Z" fill="#BFBAAC"/>
<path d="M287 246H328V287H287V246Z" fill="#BFBAAC"/>
<path d="M41 41H82V82H41V41Z" fill="#F2EFE8"/>
<path d="M41 123H82V164H41V123Z" fill="#F2EFE8"/>
<path d="M41 205H82V246H41V205Z" fill="#F2EFE8"/>
<path d="M123 41H164V82H123V41Z" fill="#F2EFE8"/>
<path d="M123 123H164V164H123V123Z" fill="#F2EFE8"/>
<path d="M123 205H164V246H123V205Z" fill="#F2EFE8"/>
<path d="M205 41H246V82H205V41Z" fill="#F2EFE8"/>
<path d="M205 123H246V164H205V123Z" fill="#F2EFE8"/>
<path d="M205 205H246V246H205V205Z" fill="#F2EFE8"/>
<path d="M287 41H328V82H287V41Z" fill="#F2EFE8"/>
<path d="M287 123H328V164H287V123Z" fill="#F2EFE8"/>
<path d="M287 205H328V246H287V205Z" fill="#F2EFE8"/>
<path d="M287 287H328V328H287V287Z" fill="#F2EFE8"/>
<path d="M82 41H123V82H82V41Z" fill="#BFBAAC"/>
<path d="M82 123H123V164H82V123Z" fill="#BFBAAC"/>
<path d="M82 205H123V246H82V205Z" fill="#BFBAAC"/>
<path d="M164 41H205V82H164V41Z" fill="#BFBAAC"/>
<path d="M164 123H205V164H164V123Z" fill="#BFBAAC"/>
<path d="M164 205H205V246H164V205Z" fill="#BFBAAC"/>
<path d="M246 41H287V82H246V41Z" fill="#BFBAAC"/>
<path d="M246 123H287V164H246V123Z" fill="#BFBAAC"/>
<path d="M246 205H287V246H246V205Z" fill="#BFBAAC"/>
<path d="M0 0H41V41H0V0Z" fill="#F2EFE8"/>
<path d="M3 7.707C3 7.413 3.063 7.155 3.189 6.933C3.315 6.711 3.468 6.534 3.648 6.402C3.834 6.264 4.014 6.174 4.188 6.132C4.026 6.066 3.87 5.976 3.72 5.862C3.576 5.742 3.453 5.586 3.351 5.394C3.249 5.202 3.198 4.974 3.198 4.71C3.198 4.386 3.285 4.095 3.459 3.837C3.633 3.579 3.876 3.375 4.188 3.225C4.506 3.075 4.872 3 5.286 3C5.7 3 6.063 3.075 6.375 3.225C6.693 3.375 6.936 3.579 7.104 3.837C7.278 4.095 7.365 4.386 7.365 4.71C7.365 4.974 7.314 5.202 7.212 5.394C7.11 5.586 6.984 5.742 6.834 5.862C6.69 5.976 6.537 6.066 6.375 6.132C6.549 6.174 6.726 6.264 6.906 6.402C7.092 6.534 7.248 6.711 7.374 6.933C7.5 7.155 7.563 7.413 7.563 7.707C7.563 8.067 7.467 8.385 7.275 8.661C7.083 8.937 6.813 9.153 6.465 9.309C6.117 9.459 5.724 9.534 5.286 9.534C4.842 9.534 4.446 9.459 4.098 9.309C3.756 9.153 3.486 8.937 3.288 8.661C3.096 8.385 3 8.067 3 7.707ZM6.555 4.773C6.555 4.563 6.501 4.38 6.393 4.224C6.291 4.062 6.144 3.939 5.952 3.855C5.76 3.765 5.538 3.72 5.286 3.72C5.034 3.72 4.809 3.765 4.611 3.855C4.419 3.939 4.269 4.062 4.161 4.224C4.059 4.38 4.008 4.563 4.008 4.773C4.008 4.977 4.065 5.16 4.179 5.322C4.293 5.484 4.446 5.61 4.638 5.7C4.836 5.784 5.052 5.826 5.286 5.826C5.52 5.826 5.733 5.784 5.925 5.7C6.117 5.61 6.27 5.484 6.384 5.322C6.498 5.16 6.555 4.977 6.555 4.773ZM6.744 7.671C6.744 7.437 6.681 7.233 6.555 7.059C6.429 6.879 6.255 6.741 6.033 6.645C5.811 6.549 5.562 6.501 5.286 6.501C5.004 6.501 4.752 6.549 4.53 6.645C4.308 6.741 4.134 6.879 4.008 7.059C3.882 7.233 3.819 7.437 3.819 7.671C3.819 7.893 3.879 8.091 3.999 8.265C4.119 8.439 4.29 8.574 4.512 8.67C4.734 8.766 4.992 8.814 5.286 8.814C5.574 8.814 5.829 8.766 6.051 8.67C6.273 8.574 6.444 8.439 6.564 8.265C6.684 8.091 6.744 7.893 6.744 7.671Z" fill="#54463A"/>
<path d="M0 41H41V82H0V41Z" fill="#BFBAAC"/>
<path d="M3.738 50.336L6.42 44.522L6.546 44.738H3V44H7.221V44.693L4.638 50.336H3.738Z" fill="#54463A"/>
<path d="M0 82H41V123H0V82Z" fill="#F2EFE8"/>
<path d="M5.565 87.286C5.931 87.286 6.27 87.373 6.582 87.547C6.9 87.715 7.155 87.958 7.347 88.276C7.539 88.594 7.635 88.96 7.635 89.374C7.635 89.794 7.539 90.169 7.347 90.499C7.155 90.823 6.894 91.078 6.564 91.264C6.234 91.444 5.865 91.534 5.457 91.534C4.923 91.534 4.473 91.402 4.107 91.138C3.741 90.874 3.465 90.502 3.279 90.022C3.093 89.542 3 88.975 3 88.321C3 87.583 3.108 86.965 3.324 86.467C3.54 85.969 3.834 85.6 4.206 85.36C4.578 85.12 5.001 85 5.475 85C5.847 85 6.18 85.075 6.474 85.225C6.774 85.369 7.011 85.561 7.185 85.801C7.365 86.035 7.479 86.29 7.527 86.566H6.708C6.642 86.338 6.504 86.143 6.294 85.981C6.09 85.819 5.817 85.738 5.475 85.738C4.959 85.738 4.548 85.951 4.242 86.377C3.942 86.803 3.792 87.469 3.792 88.375C3.792 88.459 3.792 88.546 3.792 88.636C3.792 88.726 3.792 88.813 3.792 88.897H3.576C3.636 88.555 3.762 88.264 3.954 88.024C4.146 87.778 4.383 87.595 4.665 87.475C4.947 87.349 5.247 87.286 5.565 87.286ZM5.43 90.796C5.688 90.796 5.922 90.739 6.132 90.625C6.342 90.505 6.507 90.34 6.627 90.13C6.753 89.914 6.816 89.668 6.816 89.392C6.816 89.122 6.753 88.882 6.627 88.672C6.507 88.462 6.342 88.3 6.132 88.186C5.922 88.072 5.688 88.015 5.43 88.015C5.172 88.015 4.935 88.072 4.719 88.186C4.509 88.3 4.341 88.462 4.215 88.672C4.089 88.882 4.026 89.122 4.026 89.392C4.026 89.668 4.089 89.914 4.215 90.13C4.341 90.34 4.509 90.505 4.719 90.625C4.935 90.739 5.172 90.796 5.43 90.796Z" fill="#54463A"/>
<path d="M0 123H41V164H0V123Z" fill="#BFBAAC"/>
<path d="M5.232 131.697C5.508 131.697 5.751 131.637 5.961 131.517C6.177 131.397 6.342 131.232 6.456 131.022C6.576 130.806 6.636 130.557 6.636 130.275C6.636 129.999 6.573 129.759 6.447 129.555C6.321 129.351 6.153 129.195 5.943 129.087C5.733 128.973 5.505 128.916 5.259 128.916C4.965 128.916 4.701 128.976 4.467 129.096C4.233 129.216 4.032 129.39 3.864 129.618H3.054L3.36 126H7.104V126.738H4.03906L3.864 128.794C3.864 128.794 3.843 128.796 4.017 128.646C4.197 128.496 4.401 128.382 4.629 128.304C4.857 128.226 5.109 128.187 5.385 128.187C5.745 128.187 6.084 128.271 6.402 128.439C6.72 128.607 6.975 128.85 7.167 129.168C7.359 129.48 7.455 129.846 7.455 130.266C7.455 130.698 7.356 131.079 7.158 131.409C6.966 131.733 6.702 131.985 6.366 132.165C6.03 132.345 5.655 132.435 5.241 132.435C4.827 132.435 4.458 132.357 4.134 132.201C3.81 132.045 3.549 131.838 3.351 131.58C3.159 131.316 3.042 131.028 3 130.716H3.819C3.879 130.968 4.029 131.196 4.269 131.4C4.515 131.598 4.836 131.697 5.232 131.697Z" fill="#54463A"/>
<path d="M0 164H41V205H0V164Z" fill="#F2EFE8"/>
<path d="M6.204 167.954L3.8969 171.14H7.932V171.851H7.005V173.254H6.204V171.851H3V171.203L6.051 167H7.005V171.14H6.204V167.954Z" fill="#54463A"/>
<path d="M0 205H41V246H0V205Z" fill="#BFBAAC"/>
<path d="M3.072 209.719C3.126 209.347 3.255 209.032 3.459 208.774C3.669 208.516 3.927 208.324 4.233 208.198C4.539 208.066 4.872 208 5.232 208C5.646 208 6.006 208.078 6.312 208.234C6.624 208.384 6.861 208.594 7.023 208.864C7.191 209.128 7.275 209.425 7.275 209.755C7.275 210.001 7.227 210.217 7.131 210.403C7.035 210.583 6.915 210.733 6.771 210.853C6.627 210.967 6.48 211.054 6.33 211.114C6.498 211.156 6.672 211.237 6.852 211.357C7.032 211.477 7.185 211.645 7.311 211.861C7.437 212.077 7.5 212.338 7.5 212.644C7.5 212.992 7.404 213.313 7.212 213.607C7.026 213.895 6.765 214.123 6.429 214.291C6.099 214.453 5.727 214.534 5.313 214.534C4.905 214.534 4.533 214.465 4.197 214.327C3.867 214.189 3.597 213.988 3.387 213.724C3.177 213.454 3.048 213.133 3 212.761H3.81C3.852 212.965 3.939 213.145 4.071 213.301C4.209 213.457 4.383 213.58 4.593 213.67C4.809 213.754 5.049 213.796 5.313 213.796C5.577 213.796 5.811 213.748 6.015 213.652C6.225 213.55 6.387 213.412 6.501 213.238C6.621 213.058 6.681 212.854 6.681 212.626C6.681 212.386 6.618 212.185 6.492 212.023C6.366 211.861 6.195 211.741 5.979 211.663C5.769 211.579 5.529 211.537 5.259 211.537H4.476V210.808H5.205C5.463 210.808 5.685 210.763 5.871 210.673C6.063 210.583 6.207 210.46 6.303 210.304C6.405 210.142 6.456 209.962 6.456 209.764C6.456 209.56 6.408 209.383 6.312 209.233C6.216 209.077 6.075 208.957 5.889 208.873C5.709 208.783 5.49 208.738 5.232 208.738C4.872 208.738 4.572 208.825 4.332 208.999C4.098 209.173 3.945 209.413 3.873 209.719H3.072Z" fill="#54463A"/>
<path d="M0 246H41V287H0V246Z" fill="#F2EFE8"/>
<path d="M6.393 250.863C6.393 250.653 6.342 250.464 6.24 250.296C6.138 250.122 5.994 249.987 5.808 249.891C5.622 249.789 5.409 249.738 5.169 249.738C4.797 249.738 4.491 249.834 4.251 250.026C4.017 250.218 3.864 250.482 3.792 250.818H3C3.048 250.458 3.168 250.143 3.36 249.873C3.552 249.597 3.804 249.384 4.116 249.234C4.428 249.078 4.785 249 5.187 249C5.589 249 5.943 249.084 6.249 249.252C6.555 249.414 6.792 249.639 6.96 249.927C7.128 250.209 7.212 250.521 7.212 250.863C7.212 251.151 7.158 251.415 7.05 251.655C6.948 251.895 6.816 252.111 6.654 252.303C6.492 252.495 6.285 252.705 6.033 252.933L5.952 253.014L4.12875 254.697H7.365V255.435H3.018V254.742L5.412 252.501C5.436 252.477 5.457 252.456 5.475 252.438C5.499 252.42 5.52 252.402 5.538 252.384C5.742 252.186 5.901 252.015 6.015 251.871C6.135 251.727 6.228 251.574 6.294 251.412C6.36 251.25 6.393 251.067 6.393 250.863Z" fill="#54463A"/>
<path d="M0 287H41V328H0V287Z" fill="#BFBAAC"/>
<path d="M5.593 296.336V290.936L4 291.935V291.098L5.674 290H6.394V296.336H5.593Z" fill="#54463A"/>
<path d="M37.1847 320.721C37.1847 320.505 37.1367 320.324 37.0408 320.179C36.9512 320.027 36.8233 319.913 36.6571 319.836C36.4908 319.76 36.3022 319.722 36.0911 319.722C35.7906 319.722 35.5476 319.783 35.3621 319.903C35.1767 320.017 35.0488 320.169 34.9784 320.359H34.1823C34.2654 319.966 34.4732 319.643 34.8058 319.39C35.1447 319.13 35.5795 319 36.1103 319C36.4876 319 36.8169 319.07 37.0983 319.209C37.3861 319.349 37.6067 319.548 37.7602 319.808C37.9201 320.061 38 320.366 38 320.721V323.895H37.223V323.29C37.223 323.29 36.964 323.62 36.6571 323.772C36.3565 323.924 36.0272 324 35.6691 324C35.3557 324 35.0711 323.94 34.8153 323.819C34.5659 323.699 34.3677 323.528 34.2206 323.306C34.0735 323.084 34 322.824 34 322.527C34 322.064 34.1695 321.703 34.5084 321.443C34.8473 321.177 35.311 321.044 35.8993 321.044H37.1847V321.738H35.9472C35.6083 321.738 35.3365 321.804 35.1319 321.937C34.9337 322.07 34.8345 322.264 34.8345 322.517C34.8345 322.764 34.9209 322.954 35.0935 323.087C35.2662 323.221 35.4932 323.287 35.7746 323.287C36.0304 323.287 36.2638 323.24 36.4748 323.144C36.6922 323.043 36.8649 322.901 36.9928 322.717C37.1207 322.533 37.1847 322.324 37.1847 322.089V320.721Z" fill="#54463A"/>
<path d="M41 287H82V328H41V287Z" fill="#F2EFE8"/>
<path d="M76.6105 319.011C77.0246 319.011 77.414 319.106 77.7789 319.295C78.1439 319.485 78.4386 319.766 78.6632 320.14C78.8877 320.513 79 320.968 79 321.505C79 322.043 78.8842 322.501 78.6526 322.881C78.4281 323.254 78.1298 323.535 77.7579 323.725C77.393 323.908 77 324 76.5789 324C76.2211 324 75.9053 323.946 75.6316 323.839C75.3579 323.725 75.1474 323.586 75 323.421C74.8526 323.251 74.8737 323.222 74.8737 323.222V323.896H74V317H74.9053V319.747C74.9053 319.747 74.8421 319.814 74.9895 319.637C75.1439 319.46 75.3579 319.311 75.6316 319.191C75.9123 319.071 76.2386 319.011 76.6105 319.011ZM76.4947 323.26C76.8035 323.26 77.0772 323.187 77.3158 323.042C77.5614 322.89 77.7474 322.682 77.8737 322.416C78.007 322.15 78.0737 321.847 78.0737 321.505C78.0737 321.164 78.007 320.86 77.8737 320.595C77.7474 320.329 77.5614 320.124 77.3158 319.978C77.0772 319.827 76.8035 319.751 76.4947 319.751C76.1719 319.751 75.8877 319.823 75.6421 319.969C75.3965 320.108 75.207 320.31 75.0737 320.576C74.9404 320.835 74.8737 321.139 74.8737 321.486V321.524C74.8737 321.872 74.9404 322.179 75.0737 322.444C75.207 322.704 75.3965 322.906 75.6421 323.051C75.8877 323.191 76.1719 323.26 76.4947 323.26Z" fill="#54463A"/>
<path d="M82 287H123V328H82V287Z" fill="#BFBAAC"/>
<path d="M117.869 323.259C118.127 323.259 118.345 323.214 118.523 323.125C118.702 323.037 118.84 322.926 118.939 322.793C119.039 322.653 119.108 322.504 119.148 322.346H120C119.96 322.638 119.848 322.91 119.663 323.164C119.478 323.417 119.23 323.62 118.92 323.772C118.609 323.924 118.256 324 117.859 324C117.396 324 116.983 323.895 116.62 323.686C116.263 323.471 115.986 323.173 115.787 322.793C115.596 322.413 115.5 321.982 115.5 321.5C115.5 321.025 115.596 320.597 115.787 320.217C115.986 319.837 116.263 319.539 116.62 319.323C116.977 319.108 117.39 319 117.859 319C118.275 319 118.635 319.079 118.939 319.238C119.25 319.396 119.491 319.602 119.663 319.856C119.841 320.103 119.954 320.362 120 320.635H119.148C119.068 320.394 118.923 320.185 118.711 320.008C118.5 319.83 118.216 319.741 117.859 319.741C117.562 319.741 117.301 319.817 117.076 319.97C116.851 320.115 116.676 320.321 116.551 320.587C116.432 320.854 116.372 321.158 116.372 321.5C116.372 321.849 116.435 322.156 116.561 322.422C116.686 322.688 116.861 322.894 117.086 323.04C117.311 323.186 117.572 323.259 117.869 323.259Z" fill="#54463A"/>
<path d="M123 287H164V328H123V287Z" fill="#F2EFE8"/>
<path d="M158.389 324C157.975 324 157.586 323.905 157.221 323.715C156.856 323.526 156.561 323.244 156.337 322.871C156.112 322.498 156 322.043 156 321.505C156 320.968 156.112 320.513 156.337 320.14C156.568 319.76 156.867 319.479 157.232 319.295C157.604 319.106 158 319.011 158.421 319.011C158.779 319.011 159.095 319.068 159.368 319.182C159.642 319.289 159.853 319.428 160 319.599C160.147 319.763 160.095 319.717 160.095 319.717V317H161V323.896H160.126V323.208C160.126 323.208 160.154 323.197 160 323.374C159.853 323.551 159.639 323.7 159.358 323.82C159.084 323.94 158.761 324 158.389 324ZM158.505 319.751C158.196 319.751 157.919 319.827 157.674 319.978C157.435 320.124 157.249 320.329 157.116 320.595C156.989 320.86 156.926 321.164 156.926 321.505C156.926 321.847 156.989 322.15 157.116 322.416C157.249 322.682 157.435 322.89 157.674 323.042C157.919 323.187 158.196 323.26 158.505 323.26C158.828 323.26 159.112 323.191 159.358 323.051C159.604 322.906 159.793 322.704 159.926 322.444C160.06 322.179 160.126 321.872 160.126 321.524V321.486C160.126 321.139 160.06 320.835 159.926 320.576C159.793 320.31 159.604 320.108 159.358 319.969C159.112 319.823 158.828 319.751 158.505 319.751Z" fill="#54463A"/>
<path d="M164 287H205V328H164V287Z" fill="#BFBAAC"/>
<path d="M201.141 321.053L201.143 321.148C201.143 320.705 201.025 320.359 200.789 320.112C200.553 319.859 200.228 319.732 199.814 319.732C199.532 319.732 199.286 319.792 199.076 319.913C198.865 320.027 198.701 320.191 198.583 320.407C198.465 320.622 198.399 320.869 198.386 321.148C198.386 321.25 198.386 321.354 198.386 321.462C198.386 321.563 198.386 321.665 198.386 321.766C198.386 322.051 198.449 322.308 198.573 322.536C198.705 322.764 198.885 322.945 199.115 323.078C199.345 323.205 199.611 323.268 199.912 323.268C200.228 323.268 200.487 323.205 200.69 323.078C200.9 322.945 201.032 322.805 201.084 322.66H201.941C201.895 322.869 201.79 323.078 201.626 323.287C201.462 323.49 201.232 323.661 200.937 323.8C200.648 323.933 200.303 324 199.903 324C199.423 324 199.003 323.899 198.642 323.696C198.281 323.493 197.999 323.205 197.795 322.831C197.598 322.451 197.5 322.007 197.5 321.5C197.5 320.993 197.598 320.553 197.795 320.179C197.992 319.798 198.268 319.507 198.623 319.304C198.977 319.101 199.381 319 199.834 319C200.267 319 200.648 319.095 200.976 319.285C201.304 319.475 201.557 319.748 201.734 320.103C201.911 320.451 202 320.86 202 321.329V321.747H198.386L198.393 321.053H201.141Z" fill="#54463A"/>
<path d="M205 287H246V328H205V287Z" fill="#F2EFE8"/>
<path d="M243 319.889H241.836V324H240.918V319.889H240V319.147H243V319.889ZM240.918 318.531C240.918 318.03 241.064 317.652 241.356 317.395C241.655 317.132 242.078 317 242.626 317H243V317.741H242.69C242.413 317.741 242.199 317.806 242.05 317.934C241.907 318.056 241.836 318.261 241.836 318.55V319.147H240.918V318.531Z" fill="#54463A"/>
<path d="M246 287H287V328H246V287Z" fill="#BFBAAC"/>
<path d="M284 323.686C284 324.157 283.898 324.567 283.695 324.916C283.498 325.264 283.214 325.532 282.842 325.719C282.47 325.906 282.032 326 281.526 326C281.063 326 280.663 325.929 280.326 325.787C279.989 325.645 279.733 325.461 279.558 325.235C279.382 325.009 279.281 324.77 279.253 324.519H280.147C280.232 324.732 280.379 324.906 280.589 325.042C280.807 325.177 281.123 325.245 281.537 325.245C281.867 325.245 282.147 325.18 282.379 325.051C282.611 324.929 282.786 324.751 282.905 324.519C283.032 324.286 283.095 324.009 283.095 323.686V323.235C283.095 323.235 283.154 323.176 283 323.357C282.846 323.538 282.632 323.689 282.358 323.812C282.084 323.935 281.761 323.996 281.389 323.996C280.975 323.996 280.586 323.902 280.221 323.715C279.856 323.521 279.561 323.237 279.337 322.863C279.112 322.482 279 322.027 279 321.498C279 320.962 279.112 320.507 279.337 320.133C279.568 319.758 279.867 319.478 280.232 319.29C280.603 319.097 281 319 281.421 319C281.779 319 282.095 319.058 282.368 319.174C282.642 319.284 282.853 319.426 283 319.6C283.147 319.768 283.126 319.77 283.126 319.77V319.107H284V323.686ZM281.505 323.241C281.828 323.241 282.112 323.17 282.358 323.028C282.604 322.879 282.793 322.676 282.926 322.418C283.06 322.16 283.126 321.859 283.126 321.517V321.479C283.126 321.136 283.06 320.836 282.926 320.578C282.793 320.32 282.604 320.12 282.358 319.978C282.112 319.829 281.828 319.755 281.505 319.755C281.196 319.755 280.923 319.829 280.684 319.978C280.446 320.126 280.26 320.333 280.126 320.598C279.993 320.862 279.926 321.162 279.926 321.498C279.926 321.834 279.993 322.134 280.126 322.398C280.26 322.663 280.446 322.87 280.684 323.018C280.923 323.166 281.196 323.241 281.505 323.241Z" fill="#54463A"/>
<path d="M323.226 319.041C323.547 319.041 323.843 319.109 324.113 319.243C324.384 319.378 324.597 319.59 324.755 319.879C324.918 320.168 325 320.524 325 320.948V324H324.189V321.063C324.189 320.774 324.142 320.537 324.047 320.351C323.953 320.158 323.821 320.017 323.651 319.927C323.487 319.837 323.296 319.792 323.075 319.792C322.855 319.792 322.648 319.84 322.453 319.937C322.264 320.027 322.11 320.174 321.991 320.38C321.871 320.579 321.811 320.832 321.811 321.14V324H321V317H321.811V319.672C321.811 319.672 321.767 319.709 321.906 319.561C322.044 319.414 322.226 319.292 322.453 319.195C322.679 319.093 322.937 319.041 323.226 319.041Z" fill="#54463A"/>
</svg>
