<svg width="328" height="328" viewBox="0 0 328 328" fill="none" xmlns="http://www.w3.org/2000/svg">
<path d="M41 0H82V41H41V0Z" fill="#BFBAAC"/>
<path d="M41 82H82V123H41V82Z" fill="#BFBAAC"/>
<path d="M41 164H82V205H41V164Z" fill="#BFBAAC"/>
<path d="M41 246H82V287H41V246Z" fill="#BFBAAC"/>
<path d="M0 41H41V82H0V41Z" fill="#BFBAAC"/>
<path d="M0 123H41V164H0V123Z" fill="#BFBAAC"/>
<path d="M0 205H41V246H0V205Z" fill="#BFBAAC"/>
<path d="M0 287H41V328H16C8.45753 328 4.68629 328 2.34315 325.657C0 323.314 0 319.542 0 312V287Z" fill="#BFBAAC"/>
<path d="M123 0H164V41H123V0Z" fill="#BFBAAC"/>
<path d="M123 82H164V123H123V82Z" fill="#BFBAAC"/>
<path d="M123 164H164V205H123V164Z" fill="#BFBAAC"/>
<path d="M123 246H164V287H123V246Z" fill="#BFBAAC"/>
<path d="M82 41H123V82H82V41Z" fill="#BFBAAC"/>
<path d="M82 123H123V164H82V123Z" fill="#BFBAAC"/>
<path d="M82 205H123V246H82V205Z" fill="#BFBAAC"/>
<path d="M82 287H123V328H82V287Z" fill="#BFBAAC"/>
<path d="M205 0H246V41H205V0Z" fill="#BFBAAC"/>
<path d="M205 82H246V123H205V82Z" fill="#BFBAAC"/>
<path d="M205 164H246V205H205V164Z" fill="#BFBAAC"/>
<path d="M205 246H246V287H205V246Z" fill="#BFBAAC"/>
<path d="M164 41H205V82H164V41Z" fill="#BFBAAC"/>
<path d="M164 123H205V164H164V123Z" fill="#BFBAAC"/>
<path d="M164 205H205V246H164V205Z" fill="#BFBAAC"/>
<path d="M164 287H205V328H164V287Z" fill="#BFBAAC"/>
<path d="M287 0H312C319.542 0 323.314 0 325.657 2.34315C328 4.68629 328 8.45753 328 16V41H287V0Z" fill="#BFBAAC"/>
<path d="M287 82H328V123H287V82Z" fill="#BFBAAC"/>
<path d="M287 164H328V205H287V164Z" fill="#BFBAAC"/>
<path d="M287 246H328V287H287V246Z" fill="#BFBAAC"/>
<path d="M246 41H287V82H246V41Z" fill="#BFBAAC"/>
<path d="M246 123H287V164H246V123Z" fill="#BFBAAC"/>
<path d="M246 205H287V246H246V205Z" fill="#BFBAAC"/>
<path d="M246 287H287V328H246V287Z" fill="#BFBAAC"/>
<path d="M0 16C0 8.45753 0 4.68629 2.34315 2.34315C4.68629 0 8.45753 0 16 0H41V41H0V16Z" fill="#F2EFE8"/>
<path d="M0 82H41V123H0V82Z" fill="#F2EFE8"/>
<path d="M0 164H41V205H0V164Z" fill="#F2EFE8"/>
<path d="M0 246H41V287H0V246Z" fill="#F2EFE8"/>
<path d="M82 0H123V41H82V0Z" fill="#F2EFE8"/>
<path d="M82 82H123V123H82V82Z" fill="#F2EFE8"/>
<path d="M82 164H123V205H82V164Z" fill="#F2EFE8"/>
<path d="M82 246H123V287H82V246Z" fill="#F2EFE8"/>
<path d="M41 41H82V82H41V41Z" fill="#F2EFE8"/>
<path d="M41 123H82V164H41V123Z" fill="#F2EFE8"/>
<path d="M41 205H82V246H41V205Z" fill="#F2EFE8"/>
<path d="M41 287H82V328H41V287Z" fill="#F2EFE8"/>
<path d="M164 0H205V41H164V0Z" fill="#F2EFE8"/>
<path d="M164 82H205V123H164V82Z" fill="#F2EFE8"/>
<path d="M164 164H205V205H164V164Z" fill="#F2EFE8"/>
<path d="M164 246H205V287H164V246Z" fill="#F2EFE8"/>
<path d="M123 41H164V82H123V41Z" fill="#F2EFE8"/>
<path d="M123 123H164V164H123V123Z" fill="#F2EFE8"/>
<path d="M123 205H164V246H123V205Z" fill="#F2EFE8"/>
<path d="M123 287H164V328H123V287Z" fill="#F2EFE8"/>
<path d="M246 0H287V41H246V0Z" fill="#F2EFE8"/>
<path d="M246 82H287V123H246V82Z" fill="#F2EFE8"/>
<path d="M246 164H287V205H246V164Z" fill="#F2EFE8"/>
<path d="M246 246H287V287H246V246Z" fill="#F2EFE8"/>
<path d="M205 41H246V82H205V41Z" fill="#F2EFE8"/>
<path d="M205 123H246V164H205V123Z" fill="#F2EFE8"/>
<path d="M205 205H246V246H205V205Z" fill="#F2EFE8"/>
<path d="M205 287H246V328H205V287Z" fill="#F2EFE8"/>
<path d="M287 41H328V82H287V41Z" fill="#F2EFE8"/>
<path d="M287 123H328V164H287V123Z" fill="#F2EFE8"/>
<path d="M287 205H328V246H287V205Z" fill="#F2EFE8"/>
<path d="M287 287H328V312C328 319.542 328 323.314 325.657 325.657C323.314 328 319.542 328 312 328H287V287Z" fill="#F2EFE8"/>
</svg>
